<?xml version="1.0" standalone="no"?>
<!DOCTYPE svg PUBLIC "-//W3C//DTD SVG 20010904//EN"
 "http://www.w3.org/TR/2001/REC-SVG-20010904/DTD/svg10.dtd">
<svg version="1.0" xmlns="http://www.w3.org/2000/svg"
 width="1024.000000pt" height="1024.000000pt" viewBox="0 0 1024.000000 1024.000000"
 preserveAspectRatio="xMidYMid meet">
<metadata>
Created by potrace 1.16, written by Peter Selinger 2001-2019
</metadata>
<g transform="translate(0.000000,1024.000000) scale(0.100000,-0.100000)"
fill="#000000" stroke="none">
<path d="M4878 9593 l-138 -138 -80 -267 c-64 -215 -80 -280 -80 -332 0 -35
-58 -567 -130 -1181 -71 -614 -130 -1147 -130 -1184 l0 -67 -473 -800 -473
-800 -18 -171 -19 -171 -191 -191 c-172 -171 -1029 -990 -1033 -987 -1 1 -11
341 -22 756 -20 742 -25 833 -57 1004 l-16 86 -94 0 c-89 0 -94 -1 -99 -22
-39 -172 -43 -246 -65 -1033 l-22 -790 -94 -545 -94 -546 0 -528 0 -529 46
-266 c25 -146 49 -269 52 -273 4 -3 67 -30 140 -58 l134 -52 141 54 141 55 21
119 20 119 373 280 373 281 197 39 c108 21 206 39 216 39 16 1 25 -25 65 -199
l46 -200 325 0 325 0 3 28 c3 22 8 28 25 25 18 -3 33 -36 103 -238 l82 -235
742 0 743 0 82 235 c70 202 85 235 103 238 19 3 22 -2 22 -27 l0 -31 327 2
327 3 47 198 c25 109 48 199 50 201 2 2 99 -15 216 -38 l212 -43 374 -280 374
-281 19 -118 19 -118 140 -54 139 -53 139 52 c76 29 140 55 142 59 2 3 24 125
49 271 l46 266 0 527 0 527 -94 547 -94 547 -21 785 c-22 786 -26 855 -66
1038 -5 21 -10 22 -99 22 -89 0 -94 -1 -99 -22 -3 -13 -14 -81 -26 -153 -17
-111 -23 -241 -42 -900 -11 -423 -21 -771 -22 -771 -4 -3 -862 817 -1033 987
l-190 190 -21 173 -20 173 -471 797 -472 798 0 67 c0 37 -58 569 -130 1184
-71 615 -130 1146 -130 1181 0 50 -17 119 -81 332 l-80 269 -137 138 -137 137
-105 0 -105 0 -137 -137z"/>
</g>
</svg>
