<?xml version="1.0" standalone="no"?>
<!DOCTYPE svg PUBLIC "-//W3C//DTD SVG 20010904//EN"
 "http://www.w3.org/TR/2001/REC-SVG-20010904/DTD/svg10.dtd">
<svg version="1.0" xmlns="http://www.w3.org/2000/svg"
 width="1024.000000pt" height="1024.000000pt" viewBox="0 0 1024.000000 1024.000000"
 preserveAspectRatio="xMidYMid meet">
<metadata>
Created by potrace 1.16, written by Peter Selinger 2001-2019
</metadata>
<g transform="translate(0.000000,1024.000000) scale(0.100000,-0.100000)"
fill="#000000" stroke="none">
<path d="M4942 9607 c-39 -112 -42 -130 -42 -222 -1 -55 -18 -269 -39 -475
l-39 -375 -290 -540 c-287 -534 -291 -541 -388 -654 -55 -63 -106 -126 -115
-140 -9 -14 -114 -364 -233 -777 l-216 -751 0 -526 0 -527 -118 0 -117 0 -108
108 -108 108 -15 400 c-8 219 -15 410 -17 423 -2 20 -138 -99 -912 -794 -500
-450 -915 -819 -921 -822 -7 -2 -156 68 -333 156 -176 89 -323 161 -326 161
-3 0 -5 -7 -5 -15 0 -19 -14 -19 -30 0 -7 8 -16 15 -21 15 -5 0 -9 -374 -9
-863 l0 -862 354 -266 355 -265 924 190 925 190 7 100 c4 56 15 207 26 336 10
129 19 242 19 250 0 8 44 -29 98 -83 l97 -97 68 0 67 0 0 -607 0 -608 110
-125 109 -125 1 -130 c0 -114 8 -177 65 -505 36 -206 65 -376 65 -377 0 -2
238 -3 529 -3 l529 0 10 47 c5 27 36 199 67 383 l58 335 98 0 c55 0 99 -3 99
-8 0 -9 116 -681 126 -729 l6 -28 529 0 c291 0 529 1 529 3 0 1 29 171 65 377
57 328 65 391 65 505 l1 130 109 125 110 125 0 608 0 607 67 0 68 0 96 96 96
96 6 -59 c3 -32 16 -188 28 -348 12 -159 22 -291 23 -291 2 -3 1821 -376 1836
-377 8 0 174 118 368 264 l352 264 0 864 0 863 -25 -16 c-30 -20 -35 -20 -35
-1 0 8 -2 15 -5 15 -3 0 -150 -72 -326 -161 -177 -88 -326 -158 -333 -156 -6
3 -420 372 -921 822 -775 696 -910 814 -912 794 -2 -13 -9 -204 -17 -423 l-15
-400 -108 -108 -108 -108 -117 0 -118 0 0 526 0 525 -215 747 c-119 411 -219
756 -224 768 -5 11 -58 77 -117 146 l-109 126 -289 539 -289 538 -38 375 c-21
206 -38 419 -39 474 0 89 -4 110 -42 222 l-43 124 -135 0 -135 0 -43 -123z"/>
</g>
</svg>
