<?xml version="1.0" standalone="no"?>
<!DOCTYPE svg PUBLIC "-//W3C//DTD SVG 20010904//EN"
 "http://www.w3.org/TR/2001/REC-SVG-20010904/DTD/svg10.dtd">
<svg version="1.0" xmlns="http://www.w3.org/2000/svg"
 width="1024.000000pt" height="1024.000000pt" viewBox="0 0 1024.000000 1024.000000"
 preserveAspectRatio="xMidYMid meet">
<metadata>
Created by potrace 1.16, written by Peter Selinger 2001-2019
</metadata>
<g transform="translate(0.000000,1024.000000) scale(0.100000,-0.100000)"
fill="#000000" stroke="none">
<path d="M3372 9412 c-80 -273 -93 -327 -92 -389 0 -61 -49 -278 -310 -1375
-360 -1511 -749 -3038 -905 -3550 l-105 -347 0 -423 0 -423 -127 -269 -128
-268 -5 828 -5 829 -332 -1327 -333 -1328 0 -430 c0 -236 2 -430 5 -430 3 0
154 99 335 220 l330 220 0 323 0 322 128 140 127 139 3 -317 c1 -174 5 -317 8
-317 3 0 52 32 108 72 55 39 364 218 686 397 l585 326 120 5 120 5 3 108 3
107 93 0 93 0 149 -322 150 -323 98 -5 98 -5 98 -215 98 -215 652 0 653 0 100
218 99 217 97 0 96 1 149 324 149 325 94 0 93 0 0 -110 0 -110 116 0 115 0
587 -326 c323 -179 638 -361 699 -405 l113 -78 2 322 3 321 127 -139 128 -140
0 -325 1 -325 327 -218 c180 -119 331 -217 335 -217 4 0 7 194 7 430 l0 430
-332 1328 -333 1327 -5 -830 -5 -829 -127 267 -128 268 0 424 0 423 -106 349
c-157 516 -536 2007 -899 3530 -264 1110 -315 1334 -315 1395 0 63 -13 118
-92 390 l-93 318 -97 0 -98 0 0 -1210 0 -1210 35 0 35 0 0 -1750 0 -1750 -90
0 -90 0 0 323 -1 322 -152 330 -153 330 -113 5 -113 5 -29 75 c-27 71 -29 84
-29 220 0 140 -1 149 -36 252 l-36 108 -118 0 -118 0 -23 -67 -23 -68 -11 65
c-9 51 -36 113 -125 287 l-115 223 -155 0 -155 0 -113 -218 c-89 -168 -116
-231 -125 -280 -5 -35 -13 -59 -17 -55 -4 4 -15 32 -26 61 l-18 52 -117 0
-116 0 -37 -103 c-35 -101 -36 -106 -36 -253 0 -144 -1 -152 -31 -226 l-31
-77 -111 -3 -112 -3 -152 -329 -153 -330 0 -323 0 -323 -90 0 -90 0 0 1750 0
1750 35 0 35 0 0 1210 0 1210 -97 0 -98 0 -93 -318z"/>
</g>
</svg>
