<?xml version="1.0" standalone="no"?>
<!DOCTYPE svg PUBLIC "-//W3C//DTD SVG 20010904//EN"
 "http://www.w3.org/TR/2001/REC-SVG-20010904/DTD/svg10.dtd">
<svg version="1.0" xmlns="http://www.w3.org/2000/svg"
 width="1024.000000pt" height="1024.000000pt" viewBox="0 0 1024.000000 1024.000000"
 preserveAspectRatio="xMidYMid meet">
<metadata>
Created by potrace 1.16, written by Peter Selinger 2001-2019
</metadata>
<g transform="translate(0.000000,1024.000000) scale(0.100000,-0.100000)"
fill="#000000" stroke="none">
<path d="M5035 9718 c-2 -7 -20 -74 -40 -148 -33 -127 -35 -145 -35 -292 l0
-158 -28 0 c-23 0 -73 -49 -317 -305 l-290 -305 -52 -293 c-29 -160 -52 -314
-53 -340 0 -46 -17 -77 -255 -474 l-255 -424 0 -305 c0 -167 3 -304 6 -304 3
0 111 59 239 130 129 72 241 133 249 136 14 5 16 -11 16 -126 l0 -132 -215
-466 -215 -465 0 -446 0 -447 -384 -244 c-211 -133 -388 -243 -392 -242 -5 0
-19 40 -31 89 -22 87 -23 95 -23 868 l-1 780 -37 280 -37 280 -82 3 c-79 3
-83 2 -87 -20 -3 -13 -21 -147 -41 -298 l-35 -275 0 -767 0 -767 -41 -158
c-22 -87 -44 -161 -48 -166 -7 -7 -645 123 -655 134 -2 2 -10 183 -16 401
l-12 397 -67 453 -66 453 -134 0 -134 0 -249 -454 -248 -455 -80 -745 c-45
-410 -83 -755 -85 -766 -3 -11 -52 -87 -109 -170 l-104 -150 54 -155 c45 -129
81 -281 219 -914 l166 -760 52 -93 52 -93 324 3 324 2 52 95 52 95 38 655 c20
360 38 656 40 658 1 2 118 -70 259 -160 l256 -163 0 -135 0 -135 80 -122 79
-123 163 0 163 1 78 120 77 121 0 87 0 87 425 54 c254 32 429 50 434 44 4 -5
16 -55 25 -112 16 -98 22 -114 141 -352 l125 -250 0 -173 0 -174 212 -307 212
-306 426 0 426 0 212 306 212 305 0 175 0 174 125 250 c119 238 125 254 141
352 9 57 20 107 25 112 4 5 188 -14 433 -45 l426 -53 0 -87 0 -86 78 -121 77
-121 163 0 163 -1 79 122 80 123 0 135 0 135 256 163 c141 90 257 162 259 160
2 -1 20 -298 40 -658 l38 -655 54 -97 54 -98 322 0 322 0 52 93 52 93 166 759
c136 623 176 788 219 915 l54 155 -104 150 c-58 83 -107 159 -109 170 -2 11
-41 355 -85 765 l-81 745 -248 455 -249 455 -133 3 -134 3 -67 -468 -68 -468
-11 -385 c-6 -212 -14 -388 -17 -391 -9 -7 -652 -143 -656 -138 -1 2 -21 77
-44 166 l-42 162 0 767 0 767 -35 276 c-20 152 -38 286 -41 299 -4 22 -8 23
-87 20 l-82 -3 -37 -280 -37 -280 -1 -780 c0 -778 -1 -780 -23 -870 -13 -49
-27 -89 -33 -88 -5 2 -181 112 -391 245 l-383 243 0 444 0 445 -215 465 -215
466 0 133 c0 72 3 132 6 132 3 0 111 -59 239 -130 129 -72 241 -133 249 -136
14 -5 16 27 16 299 l0 305 -255 425 c-237 395 -255 429 -256 474 0 26 -24 180
-52 340 l-52 293 -290 305 c-243 255 -294 305 -317 305 l-28 0 0 158 c0 150
-2 163 -38 302 l-39 145 -82 3 c-59 2 -83 -1 -86 -10z"/>
</g>
</svg>
