<?xml version="1.0" standalone="no"?>
<!DOCTYPE svg PUBLIC "-//W3C//DTD SVG 20010904//EN"
 "http://www.w3.org/TR/2001/REC-SVG-20010904/DTD/svg10.dtd">
<svg version="1.0" xmlns="http://www.w3.org/2000/svg"
 width="1024.000000pt" height="1024.000000pt" viewBox="0 0 1024.000000 1024.000000"
 preserveAspectRatio="xMidYMid meet">
<metadata>
Created by potrace 1.16, written by Peter Selinger 2001-2019
</metadata>
<g transform="translate(0.000000,1024.000000) scale(0.100000,-0.100000)"
fill="#000000" stroke="none">
<path d="M4667 9672 l-99 -57 -224 -288 -224 -287 0 -1239 0 -1239 -124 -113
c-122 -111 -125 -115 -125 -156 l-1 -43 -265 0 -265 0 0 100 0 100 -30 0 -30
0 0 346 0 346 -72 84 -73 84 -205 0 -205 -1 -72 -84 -73 -84 0 -904 0 -905
-373 -839 c-353 -793 -381 -852 -506 -1067 -74 -125 -136 -225 -138 -222 -3 2
-8 137 -11 299 l-7 294 -403 -936 -402 -935 2 -147 3 -146 400 271 400 272 6
122 7 122 45 53 c26 28 90 98 144 154 l98 102 575 85 c566 85 707 99 697 74
-2 -7 -174 -401 -381 -876 l-376 -864 2 -318 3 -319 545 250 c300 138 554 254
565 259 18 7 31 -6 100 -106 l78 -114 603 0 603 0 101 144 100 145 0 170 0
171 60 0 60 0 0 -170 0 -170 101 -145 100 -145 603 0 603 0 79 113 78 114 51
-22 c27 -13 277 -127 555 -255 278 -127 511 -234 518 -237 9 -4 12 63 12 314
l0 319 -380 872 c-209 480 -380 875 -380 877 0 17 183 -5 695 -81 l580 -85 98
-102 c54 -56 119 -126 144 -155 l47 -53 5 -122 6 -122 400 -271 400 -272 3
146 3 146 -403 935 -403 935 -7 -298 c-3 -164 -8 -299 -10 -301 -2 -2 -64 101
-138 229 -128 218 -156 276 -508 1069 l-372 837 0 905 0 904 -72 85 -73 85
-205 0 -205 1 -72 -84 -73 -84 0 -346 0 -346 -30 0 -30 0 0 -100 0 -100 -265
0 -265 0 -1 43 c0 41 -3 45 -125 156 l-124 113 0 1239 0 1239 -226 290 -227
289 -97 56 -98 55 -354 -1 -353 0 -98 -57z"/>
</g>
</svg>
