<?xml version="1.0" standalone="no"?>
<!DOCTYPE svg PUBLIC "-//W3C//DTD SVG 20010904//EN"
 "http://www.w3.org/TR/2001/REC-SVG-20010904/DTD/svg10.dtd">
<svg version="1.0" xmlns="http://www.w3.org/2000/svg"
 width="1024.000000pt" height="1024.000000pt" viewBox="0 0 1024.000000 1024.000000"
 preserveAspectRatio="xMidYMid meet">
<metadata>
Created by potrace 1.16, written by Peter Selinger 2001-2019
</metadata>
<g transform="translate(0.000000,1024.000000) scale(0.100000,-0.100000)"
fill="#000000" stroke="none">
<path d="M5022 9478 c-20 -25 -152 -288 -152 -303 0 -11 -11 -15 -43 -15 l-43
0 -167 -464 -167 -464 0 -142 0 -142 -185 -321 -185 -320 -1 -116 c-1 -101 -6
-67 -36 269 l-34 385 -61 138 -61 138 -76 -6 c-127 -10 -114 3 -153 -152 l-34
-138 22 -250 c12 -137 20 -251 19 -253 -1 -1 -156 86 -345 193 -188 108 -345
193 -349 190 -3 -4 -7 -199 -9 -434 l-3 -427 375 -547 375 -546 17 -188 c16
-186 17 -189 76 -358 34 -93 62 -174 64 -180 2 -5 -45 -52 -106 -104 l-110
-94 0 -259 0 -259 -92 3 -93 3 -42 645 c-23 355 -42 660 -42 678 l-1 33 -82
-3 -81 -3 -569 -805 c-313 -443 -574 -810 -581 -817 -7 -7 -146 -43 -309 -81
l-298 -69 0 33 c0 41 -37 734 -46 842 l-6 82 -106 0 -107 0 -317 -818 -318
-818 -25 -280 -26 -279 159 -810 159 -810 366 -3 367 -2 0 220 c0 121 2 220 5
220 3 0 112 -74 242 -165 l238 -165 667 0 667 0 10 38 c5 20 29 110 52 199
l42 163 337 0 338 0 7 -256 7 -255 121 -140 121 -139 707 0 706 0 120 139 121
139 7 256 7 256 339 0 338 0 10 -37 c5 -21 24 -94 41 -163 17 -69 36 -142 41
-162 l10 -38 666 0 665 0 239 165 c131 91 241 165 244 165 3 0 5 -99 5 -220
l0 -220 367 2 367 3 159 810 158 810 -25 277 -26 278 -316 812 c-174 447 -327
851 -341 898 -14 47 -27 87 -30 89 -5 6 -118 -105 -144 -141 -18 -24 -22 -69
-44 -460 -14 -238 -25 -451 -25 -474 l0 -41 -302 70 -303 70 -576 816 -576
816 -82 3 -81 3 -1 -28 c0 -15 -19 -320 -42 -678 l-42 -650 -93 -3 -92 -3 0
259 0 259 -109 93 -109 94 55 155 c30 86 59 167 63 181 5 14 16 109 25 212
l16 188 375 546 375 546 -3 428 c-2 236 -6 431 -9 434 -3 4 -160 -82 -349
-189 -188 -108 -343 -195 -345 -193 -1 2 7 113 19 248 l22 245 -35 143 c-40
162 -29 150 -154 154 l-77 3 -59 -130 -59 -130 -35 -390 c-30 -340 -35 -375
-36 -275 l-1 115 -185 320 -185 320 0 142 0 143 -167 465 -167 465 -43 0 c-28
0 -43 4 -43 13 0 6 -35 81 -77 164 l-78 153 -91 0 c-61 0 -95 -4 -102 -12z"/>
</g>
</svg>
