<?xml version="1.0" standalone="no"?>
<!DOCTYPE svg PUBLIC "-//W3C//DTD SVG 20010904//EN"
 "http://www.w3.org/TR/2001/REC-SVG-20010904/DTD/svg10.dtd">
<svg version="1.0" xmlns="http://www.w3.org/2000/svg"
 width="1024.000000pt" height="1024.000000pt" viewBox="0 0 1024.000000 1024.000000"
 preserveAspectRatio="xMidYMid meet">
<metadata>
Created by potrace 1.16, written by Peter Selinger 2001-2019
</metadata>
<g transform="translate(0.000000,1024.000000) scale(0.100000,-0.100000)"
fill="#000000" stroke="none">
<path d="M4388 9536 c-395 -106 -720 -195 -723 -198 -4 -3 -33 -73 -67 -154
-33 -82 -65 -154 -72 -160 -6 -6 -32 -16 -57 -22 -25 -6 -138 -56 -252 -111
l-206 -99 -250 -334 -251 -335 0 -210 c0 -115 3 -212 6 -215 3 -4 78 18 167
48 125 42 600 194 720 230 12 4 17 0 17 -15 0 -12 6 -21 13 -21 21 -1 379 -58
382 -62 2 -2 -27 -170 -63 -375 -59 -335 -68 -372 -85 -375 -16 -2 -62 -114
-253 -617 l-234 -614 0 -590 0 -589 -59 -243 -60 -243 205 -738 c112 -406 204
-744 204 -750 0 -6 -229 -508 -510 -1115 -280 -607 -509 -1107 -507 -1110 1
-4 256 177 567 402 l565 408 232 1 232 0 178 -205 177 -205 716 0 717 0 177
205 177 205 232 0 232 -1 565 -409 c311 -224 567 -407 568 -405 2 2 -227 502
-508 1111 -385 833 -510 1114 -507 1133 3 15 96 352 206 750 l200 724 -59 238
-60 238 0 593 0 593 -234 615 c-189 496 -238 616 -253 618 -17 3 -27 44 -85
375 -36 205 -64 374 -63 375 4 4 362 62 383 62 6 0 12 9 12 21 0 13 5 19 13
16 6 -2 59 -19 117 -36 110 -34 736 -236 764 -247 14 -6 16 16 16 211 l0 217
-251 335 -250 335 -212 103 c-117 56 -231 106 -255 110 -24 4 -48 14 -53 23
-6 10 -38 84 -72 166 l-62 149 -720 193 c-396 106 -727 193 -735 193 -8 0
-338 -87 -732 -193z m1724 -2726 l81 -915 -28 -202 -28 -203 -51 29 c-141 81
-139 80 -158 70 -17 -9 -19 -7 -13 23 3 18 12 89 19 158 l14 124 -174 870
c-96 479 -174 876 -174 883 0 9 21 13 73 14 69 0 78 3 207 69 l135 68 7 -37
c5 -20 45 -448 90 -951z m-1752 915 c125 -63 132 -65 205 -65 54 0 75 -4 75
-13 0 -7 -78 -404 -174 -883 l-174 -871 14 -119 c7 -65 16 -136 19 -157 5 -34
4 -37 -13 -28 -13 7 -39 -3 -112 -44 -52 -30 -95 -53 -96 -52 -1 1 -14 90 -30
197 l-28 195 82 920 c82 920 89 985 98 985 2 0 63 -29 134 -65z m-31 -2402
c30 -18 31 -19 31 -96 l0 -79 -32 19 -33 19 -65 -37 c-74 -43 -75 -43 -85 46
l-6 60 73 42 c40 23 76 43 80 43 3 0 20 -8 37 -17z m1697 -25 l75 -43 -6 -54
c-12 -94 -12 -94 -78 -55 -66 39 -68 39 -107 19 l-30 -16 0 78 c0 75 1 79 28
95 15 10 31 18 35 18 4 0 42 -19 83 -42z m-1698 -388 c21 -13 32 -27 32 -43 0
-13 -27 -88 -59 -168 -47 -113 -61 -138 -65 -119 -5 22 -33 220 -39 274 -1 13
12 28 43 47 25 15 47 28 50 28 3 1 20 -8 38 -19z m1698 -26 l20 -14 -21 -150
c-12 -82 -23 -152 -26 -154 -8 -8 -119 273 -119 302 0 22 7 32 33 44 34 16 50
12 113 -28z"/>
</g>
</svg>
