<?xml version="1.0" standalone="no"?>
<!DOCTYPE svg PUBLIC "-//W3C//DTD SVG 20010904//EN"
 "http://www.w3.org/TR/2001/REC-SVG-20010904/DTD/svg10.dtd">
<svg version="1.0" xmlns="http://www.w3.org/2000/svg"
 width="1024.000000pt" height="1024.000000pt" viewBox="0 0 1024.000000 1024.000000"
 preserveAspectRatio="xMidYMid meet">
<metadata>
Created by potrace 1.16, written by Peter Selinger 2001-2019
</metadata>
<g transform="translate(0.000000,1024.000000) scale(0.100000,-0.100000)"
fill="#000000" stroke="none">
<path d="M5025 9708 c-2 -13 -23 -182 -45 -376 l-40 -353 0 -698 c0 -384 -3
-713 -6 -731 -4 -19 -15 -35 -28 -40 -12 -4 -39 -30 -62 -56 -32 -38 -46 -68
-63 -134 -19 -72 -29 -92 -67 -130 l-44 -46 0 -124 c0 -122 -2 -132 -66 -382
-64 -245 -68 -258 -91 -258 -12 0 -23 3 -23 6 0 3 25 164 55 358 105 676 215
1419 211 1424 -3 2 -121 -229 -264 -514 l-259 -519 -243 -730 c-133 -401 -245
-734 -248 -739 -4 -8 -84 430 -162 892 l-12 72 -48 0 c-47 0 -49 -1 -55 -32
-3 -18 -43 -250 -89 -516 l-84 -482 64 -663 64 -662 0 -367 0 -368 -124 0
-124 0 -7 62 c-7 77 -125 1692 -125 1719 0 16 -8 19 -54 19 l-53 0 -388 -1032
-388 -1033 -729 -1227 -728 -1227 1 -128 c2 -220 -94 -272 737 396 l724 581
386 0 387 0 52 28 c29 15 53 30 53 34 0 9 117 699 126 740 l6 28 109 0 109 0
0 -142 c0 -131 6 -176 65 -518 36 -206 65 -392 65 -412 0 -20 4 -39 8 -42 5
-3 14 -44 21 -91 l13 -85 318 0 318 0 10 58 c5 31 29 169 53 305 l43 249 39
20 c21 10 40 18 42 16 2 -2 17 -34 34 -71 l30 -67 671 0 671 0 31 68 c16 37
32 69 33 71 2 1 21 -7 43 -19 l39 -22 48 -276 c26 -153 50 -289 52 -304 l6
-28 317 0 318 0 13 85 c7 47 16 88 21 91 4 3 8 22 8 42 0 20 29 205 65 411 60
342 65 385 65 517 l0 144 109 0 c105 0 109 -1 114 -22 3 -13 33 -188 68 -389
l62 -366 48 -26 47 -27 390 0 390 0 724 -581 723 -581 7 38 c4 22 7 92 7 156
l1 117 -729 1229 -729 1228 -388 1032 -388 1032 -53 0 c-44 0 -53 -3 -53 -17
0 -26 -118 -1646 -125 -1720 l-7 -63 -124 0 -124 0 0 368 0 367 64 660 64 660
-89 514 c-49 282 -89 515 -89 517 0 2 -22 4 -50 4 -27 0 -50 -2 -50 -5 0 -15
-162 -942 -167 -955 -3 -8 -119 325 -258 740 l-252 755 -256 510 c-141 281
-256 505 -256 499 -1 -14 137 -932 213 -1425 31 -197 56 -360 56 -363 0 -3
-11 -6 -25 -6 -14 0 -25 3 -25 6 0 3 -29 117 -65 254 -64 244 -65 252 -65 377
l0 127 -45 46 c-38 39 -47 57 -67 130 -17 66 -31 96 -62 134 -23 26 -50 52
-62 56 -13 5 -24 21 -28 40 -3 18 -6 346 -6 729 l0 696 -40 355 c-23 195 -43
365 -46 378 -4 21 -9 22 -94 22 -85 0 -90 -1 -95 -22z"/>
</g>
</svg>
