<?xml version="1.0" standalone="no"?>
<!DOCTYPE svg PUBLIC "-//W3C//DTD SVG 20010904//EN"
 "http://www.w3.org/TR/2001/REC-SVG-20010904/DTD/svg10.dtd">
<svg version="1.0" xmlns="http://www.w3.org/2000/svg"
 width="1024.000000pt" height="1024.000000pt" viewBox="0 0 1024.000000 1024.000000"
 preserveAspectRatio="xMidYMid meet">
<metadata>
Created by potrace 1.16, written by Peter Selinger 2001-2019
</metadata>
<g transform="translate(0.000000,1024.000000) scale(0.100000,-0.100000)"
fill="#000000" stroke="none">
<path d="M4039 9728 c0 -2 -24 -463 -54 -1026 l-54 -1023 -106 -510 -107 -511
26 -192 c15 -105 29 -204 32 -221 4 -19 -48 49 -143 192 l-149 223 -199 -130
c-110 -71 -200 -128 -201 -127 -1 1 7 61 17 132 14 102 301 1461 325 1538 5
15 -5 17 -108 17 l-113 -1 -580 -716 -580 -716 -42 -311 -42 -311 -1 -607 0
-608 -130 0 -130 0 0 303 0 304 -310 206 -310 207 0 -1068 0 -1069 303 -201
c166 -111 306 -202 310 -202 4 0 7 146 7 325 l0 325 130 0 130 0 0 -177 0
-177 51 -195 c78 -302 88 -365 109 -706 11 -170 20 -318 20 -327 0 -17 24 -18
360 -18 l360 0 0 33 c0 17 7 151 15 297 15 252 39 455 67 547 l13 42 260 -170
c174 -114 319 -200 438 -260 124 -62 176 -93 170 -102 -4 -6 -78 -117 -165
-246 l-158 -234 0 -309 c0 -169 2 -308 5 -308 3 0 47 21 98 47 65 32 165 67
338 118 l247 72 6 -36 c3 -20 6 -50 6 -68 0 -21 5 -33 16 -35 11 -2 75 -137
194 -413 l177 -410 34 -202 34 -203 465 0 466 0 34 203 34 202 177 410 c115
266 183 411 193 413 11 2 16 14 16 35 0 18 3 48 6 68 l6 35 235 -68 c177 -52
262 -82 344 -124 l109 -54 0 313 0 314 -150 222 c-83 122 -157 233 -166 246
l-16 24 169 85 c111 55 261 144 439 260 l269 176 12 -42 c31 -102 53 -290 68
-563 9 -159 18 -296 20 -302 3 -10 84 -13 358 -13 l354 0 6 77 c4 43 12 175
18 293 13 262 34 393 105 664 l54 209 0 178 0 179 130 0 130 0 0 -330 0 -330
310 207 310 206 0 1069 0 1068 -310 -207 -310 -206 0 -304 0 -303 -130 0 -130
0 0 608 -1 607 -42 311 -42 311 -580 716 -580 716 -112 1 c-86 0 -111 -3 -108
-12 2 -7 72 -328 156 -713 123 -570 196 -949 185 -962 -1 -1 -91 56 -200 128
-109 71 -200 129 -201 127 -2 -2 -69 -102 -150 -223 -94 -141 -144 -209 -141
-190 3 17 17 116 32 220 l25 190 -106 510 -106 510 -49 965 c-28 531 -53 993
-56 1028 l-6 62 -179 0 c-98 0 -179 -3 -179 -7 0 -5 -25 -471 -55 -1038 -50
-928 -66 -1145 -84 -1145 -9 0 -251 483 -365 730 l-105 225 -112 0 -112 0 -69
-150 c-100 -217 -391 -805 -398 -805 -19 0 -35 209 -85 1140 -30 564 -55 1031
-55 1038 0 9 -43 12 -180 12 -99 0 -180 -1 -181 -2z"/>
</g>
</svg>
