<?xml version="1.0" standalone="no"?>
<!DOCTYPE svg PUBLIC "-//W3C//DTD SVG 20010904//EN"
 "http://www.w3.org/TR/2001/REC-SVG-20010904/DTD/svg10.dtd">
<svg version="1.0" xmlns="http://www.w3.org/2000/svg"
 width="1024.000000pt" height="1024.000000pt" viewBox="0 0 1024.000000 1024.000000"
 preserveAspectRatio="xMidYMid meet">
<metadata>
Created by potrace 1.16, written by Peter Selinger 2001-2019
</metadata>
<g transform="translate(0.000000,1024.000000) scale(0.100000,-0.100000)"
fill="#000000" stroke="none">
<path d="M4538 9582 l-177 -147 -1 -1827 0 -1828 -120 0 -120 0 -1 -137 -1
-138 -67 365 c-37 201 -70 372 -73 380 -6 18 -544 -1053 -664 -1323 l-85 -192
-115 -457 -114 -458 0 -677 0 -677 -381 -974 c-209 -535 -379 -975 -377 -977
2 -2 167 119 368 268 207 154 484 348 640 449 l275 179 3 -166 2 -166 85 -115
85 -114 373 0 374 0 27 -105 c15 -58 32 -121 37 -140 l10 -35 599 0 599 0 9
33 c5 17 22 80 38 140 l28 107 376 0 375 1 80 111 80 112 5 167 5 168 275
-178 c159 -103 429 -292 640 -449 200 -149 366 -269 368 -267 2 1 -168 440
-377 975 l-381 973 0 678 0 679 -115 458 -114 457 -94 210 c-52 116 -219 460
-372 765 -209 418 -279 550 -285 535 -3 -11 -35 -179 -71 -374 l-64 -355 -3
132 -3 132 -119 0 -120 0 0 1835 c0 1311 -3 1835 -11 1835 -6 0 -87 63 -179
140 l-169 140 -403 -1 -403 -1 -177 -146z"/>
</g>
</svg>
