<?xml version="1.0" standalone="no"?>
<!DOCTYPE svg PUBLIC "-//W3C//DTD SVG 20010904//EN"
 "http://www.w3.org/TR/2001/REC-SVG-20010904/DTD/svg10.dtd">
<svg version="1.0" xmlns="http://www.w3.org/2000/svg"
 width="1024.000000pt" height="1024.000000pt" viewBox="0 0 1024.000000 1024.000000"
 preserveAspectRatio="xMidYMid meet">
<metadata>
Created by potrace 1.16, written by Peter Selinger 2001-2019
</metadata>
<g transform="translate(0.000000,1024.000000) scale(0.100000,-0.100000)"
fill="#000000" stroke="none">
<path d="M5031 9653 c-6 -43 -14 -100 -18 -127 -5 -39 -22 -72 -80 -157 l-73
-108 0 -322 0 -322 -59 -111 c-32 -61 -98 -203 -147 -316 l-89 -205 -5 -431
-5 -431 -263 426 -263 426 -114 103 -113 102 -110 0 c-101 0 -110 2 -115 20
-4 16 -14 20 -49 20 l-45 0 -16 58 c-9 31 -36 101 -61 155 -37 79 -49 97 -63
93 -10 -3 -56 -15 -103 -27 -47 -12 -89 -26 -93 -29 -5 -4 -4 -56 2 -115 9
-85 68 -329 280 -1159 165 -640 333 -1327 432 -1756 l161 -704 -20 -136 -21
-135 31 -116 31 -117 -214 -271 -214 -272 -3 126 -3 127 -333 443 -334 443 -5
154 c-5 121 -15 201 -49 383 l-43 230 -94 0 -94 0 -48 -265 c-39 -214 -48
-288 -48 -383 l-1 -117 -335 -447 -335 -446 0 -1142 0 -1142 425 -566 c233
-311 428 -568 432 -570 5 -3 201 250 436 563 l427 569 0 344 0 343 346 440
c190 241 350 440 354 442 12 4 13 -3 76 -330 50 -265 61 -308 76 -308 10 0 20
-10 22 -22 5 -22 36 -266 36 -281 0 -4 125 -7 278 -7 l279 0 18 -60 c10 -33
21 -60 25 -60 4 0 15 27 25 60 l18 60 277 0 278 0 5 33 c3 17 11 77 17 132 15
136 18 145 38 145 16 0 26 41 76 308 32 169 63 312 70 319 8 9 93 -92 359
-429 l347 -441 0 -344 0 -343 426 -568 c234 -312 428 -568 432 -569 4 -1 199
255 435 569 l427 571 0 1143 0 1142 -335 444 -335 445 0 114 c0 91 -10 168
-48 384 l-48 270 -89 3 c-48 2 -92 -1 -96 -5 -4 -4 -28 -125 -53 -268 -37
-209 -46 -284 -46 -376 l0 -116 -335 -446 -334 -446 -3 -127 -3 -126 -214 272
-214 272 31 112 31 112 -20 140 -21 139 166 723 c102 444 268 1119 431 1753
212 827 267 1053 276 1141 6 61 7 114 2 118 -4 4 -46 17 -93 29 -47 12 -93 25
-103 27 -14 4 -27 -15 -66 -98 -26 -57 -54 -127 -61 -156 l-14 -52 -47 0 c-38
0 -48 -4 -52 -20 -5 -18 -14 -20 -112 -20 l-107 0 -114 -102 -113 -103 -263
-425 -263 -425 -5 430 -5 430 -79 180 c-43 99 -109 242 -147 317 l-69 137 0
321 0 322 -74 106 c-59 86 -74 117 -80 157 -3 28 -11 85 -17 128 l-11 77 -78
0 -78 0 -11 -77z m-1911 -6218 l0 -112 -77 -111 -78 -112 -214 3 -215 2 -78
110 -78 110 0 108 0 107 186 378 186 377 184 -374 184 -374 0 -112z m4555 485
l185 -370 0 -112 0 -113 -80 -112 -81 -113 -212 0 -212 0 -77 111 -78 110 0
112 -1 112 183 372 c101 205 184 372 185 373 2 0 86 -166 188 -370z m-4632
-1542 l77 -111 0 -112 0 -112 -184 -373 -184 -374 -186 372 -186 372 0 112 1
113 80 113 80 112 212 0 212 -1 78 -111z m4737 0 l80 -113 0 -110 0 -110 -186
-375 -187 -375 -183 370 -183 370 0 115 -1 116 78 112 77 111 212 1 212 0 81
-112z"/>
</g>
</svg>
