<?xml version="1.0" standalone="no"?>
<!DOCTYPE svg PUBLIC "-//W3C//DTD SVG 20010904//EN"
 "http://www.w3.org/TR/2001/REC-SVG-20010904/DTD/svg10.dtd">
<svg version="1.0" xmlns="http://www.w3.org/2000/svg"
 width="1024.000000pt" height="1024.000000pt" viewBox="0 0 1024.000000 1024.000000"
 preserveAspectRatio="xMidYMid meet">
<metadata>
Created by potrace 1.16, written by Peter Selinger 2001-2019
</metadata>
<g transform="translate(0.000000,1024.000000) scale(0.100000,-0.100000)"
fill="#000000" stroke="none">
<path d="M4967 9678 c-9 -29 -38 -143 -66 -253 -29 -110 -74 -265 -101 -345
-46 -133 -57 -189 -145 -694 -52 -302 -96 -550 -98 -552 -2 -2 -28 46 -58 107
l-54 111 -68 -7 c-127 -13 -117 -3 -149 -155 l-29 -135 36 -295 c20 -162 38
-310 42 -327 5 -33 5 -33 -33 -33 l-39 0 -145 -335 c-80 -185 -146 -332 -147
-328 -2 5 -59 375 -127 823 -69 448 -128 831 -132 850 l-7 35 -8 -30 c-5 -16
-102 -635 -215 -1374 l-206 -1343 -100 -140 c-68 -95 -103 -136 -108 -127 -4
8 -26 93 -50 189 -23 96 -46 179 -50 183 -4 5 -17 -36 -30 -90 -12 -54 -55
-237 -95 -407 l-72 -309 -376 -523 -377 -523 0 -133 0 -133 -125 -63 c-69 -34
-127 -62 -130 -62 -3 0 -6 264 -7 588 l-3 587 -106 -210 c-90 -177 -129 -271
-249 -600 -78 -214 -268 -712 -421 -1106 l-279 -715 0 -132 c0 -73 3 -132 6
-132 3 0 193 106 423 235 l418 235 106 0 107 0 0 198 0 197 125 63 c69 34 127
62 130 62 3 0 5 -59 5 -130 l0 -130 283 5 c155 3 432 7 615 10 l332 5 0 -112
c0 -94 11 -177 65 -487 36 -205 65 -377 65 -382 0 -5 109 -9 248 -9 l249 0 34
-132 35 -133 549 0 549 0 12 40 c14 52 12 60 71 -277 26 -153 50 -278 53 -278
4 0 25 111 49 248 24 136 48 270 53 297 l11 50 11 -40 12 -40 549 0 550 0 34
133 34 132 248 0 c137 0 249 3 249 8 0 4 29 176 65 382 54 311 65 394 65 488
l0 112 333 -5 c182 -3 459 -7 615 -10 l282 -5 0 130 c0 71 2 130 5 130 3 0 61
-28 130 -62 l125 -63 0 -197 0 -198 106 0 106 0 408 -230 c225 -127 416 -233
424 -236 14 -5 16 10 16 125 l0 132 -266 682 c-146 375 -337 876 -424 1112
-133 365 -173 462 -263 640 l-106 210 0 -592 c-1 -326 -3 -593 -6 -593 -3 0
-61 28 -130 62 l-125 63 0 133 0 133 -377 522 -376 522 -96 408 c-52 224 -98
404 -101 400 -4 -5 -29 -94 -55 -200 l-47 -192 -103 142 -104 143 -211 1375
c-116 755 -213 1375 -215 1377 -4 4 -6 -6 -140 -883 -69 -451 -127 -824 -128
-828 -1 -5 -68 142 -147 327 l-145 336 -38 0 -39 0 6 38 c3 20 22 167 42 326
l35 289 -21 101 c-38 177 -36 173 -73 180 -17 3 -59 8 -92 12 l-60 6 -55 -112
c-51 -104 -56 -110 -63 -83 -4 15 -48 264 -98 553 -80 466 -95 539 -135 654
-24 71 -74 242 -110 380 -36 138 -67 259 -70 269 -5 15 -21 17 -144 17 l-139
0 -14 -52z"/>
</g>
</svg>
