<?xml version="1.0" standalone="no"?>
<!DOCTYPE svg PUBLIC "-//W3C//DTD SVG 20010904//EN"
 "http://www.w3.org/TR/2001/REC-SVG-20010904/DTD/svg10.dtd">
<svg version="1.0" xmlns="http://www.w3.org/2000/svg"
 width="1024.000000pt" height="1024.000000pt" viewBox="0 0 1024.000000 1024.000000"
 preserveAspectRatio="xMidYMid meet">
<metadata>
Created by potrace 1.16, written by Peter Selinger 2001-2019
</metadata>
<g transform="translate(0.000000,1024.000000) scale(0.100000,-0.100000)"
fill="#000000" stroke="none">
<path d="M4756 8469 l-239 -690 23 -110 22 -109 -42 -123 c-40 -114 -70 -167
-459 -814 l-416 -693 -692 0 -693 0 0 27 c0 26 234 2370 246 2466 6 45 5 47
-19 47 -20 0 -44 24 -118 115 l-93 115 -204 0 -204 0 -171 -106 c-95 -59 -179
-114 -188 -123 -12 -11 -87 -355 -245 -1124 l-229 -1108 -20 76 -20 76 -124
-3 -124 -3 -58 -220 c-54 -206 -62 -250 -119 -690 l-62 -470 61 -465 c57 -434
65 -480 119 -690 l59 -225 126 -3 125 -3 13 56 c7 31 15 58 18 60 8 4 99 -415
301 -1388 92 -444 169 -809 171 -811 2 -1 107 -53 233 -114 l229 -112 202 0
203 0 48 115 c42 101 51 115 72 115 23 0 24 2 18 48 -12 91 -246 2437 -246
2465 l0 27 550 0 550 0 0 -472 0 -473 -59 -450 -59 -450 108 -520 c59 -286
113 -546 120 -577 l11 -58 484 0 483 0 11 48 c16 70 131 626 131 634 0 5 239
8 530 8 292 0 530 -3 530 -6 0 -5 105 -513 130 -632 l12 -52 484 0 c266 0 484
2 484 4 0 3 54 262 119 578 l119 573 -59 450 -59 450 0 473 0 472 550 0 550 0
0 -27 c0 -26 -234 -2370 -246 -2465 -6 -46 -5 -48 19 -48 21 0 29 -13 72 -115
l47 -115 207 0 206 1 230 117 230 117 166 800 c206 995 292 1394 301 1389 4
-2 12 -29 19 -59 l12 -56 125 3 126 3 57 220 c54 206 62 250 119 690 l62 470
-61 465 c-57 433 -65 480 -119 690 l-59 225 -124 3 -125 3 -20 -76 -19 -76
-229 1108 c-126 609 -231 1113 -233 1118 -2 6 -87 61 -187 123 l-183 112 -205
0 -205 0 -93 -115 c-73 -91 -97 -115 -117 -115 -24 0 -25 -2 -19 -47 12 -94
246 -2439 246 -2466 l0 -27 -693 0 -694 0 -415 693 c-390 650 -418 700 -458
815 l-43 123 23 105 23 105 -19 59 c-10 31 -118 344 -239 694 l-220 636 -125
0 -125 0 -239 -691z"/>
</g>
</svg>
