<?xml version="1.0" standalone="no"?>
<!DOCTYPE svg PUBLIC "-//W3C//DTD SVG 20010904//EN"
 "http://www.w3.org/TR/2001/REC-SVG-20010904/DTD/svg10.dtd">
<svg version="1.0" xmlns="http://www.w3.org/2000/svg"
 width="1024.000000pt" height="1024.000000pt" viewBox="0 0 1024.000000 1024.000000"
 preserveAspectRatio="xMidYMid meet">
<metadata>
Created by potrace 1.16, written by Peter Selinger 2001-2019
</metadata>
<g transform="translate(0.000000,1024.000000) scale(0.100000,-0.100000)"
fill="#000000" stroke="none">
<path d="M3018 9718 c-3 -7 -44 -198 -93 -424 l-88 -411 -219 -168 -218 -167
0 -109 0 -109 363 -2 363 -3 -125 -407 -126 -408 -162 0 -161 0 79 237 c43
131 79 241 79 245 0 5 -204 8 -453 8 l-452 0 -273 -818 c-149 -449 -272 -823
-272 -830 0 -10 95 -12 452 -10 l451 3 103 305 c101 301 102 304 103 243 l1
-63 145 0 c80 0 145 -3 145 -7 0 -5 -56 -189 -125 -410 l-124 -403 -36 -293
c-19 -161 -35 -299 -35 -305 0 -9 -42 -12 -156 -12 l-155 0 5 43 c5 37 46 423
46 433 0 2 -205 4 -455 4 -250 0 -455 -2 -455 -5 0 -12 -160 -1575 -165 -1607
l-5 -38 454 0 455 0 5 43 c5 37 46 423 46 433 0 2 65 4 145 4 138 0 145 -1
145 -20 0 -11 -20 -188 -45 -393 -25 -206 -45 -379 -45 -386 0 -8 -104 -11
-390 -11 l-390 0 6 -27 c2 -16 22 -144 44 -286 l39 -258 -205 -517 -204 -517
2 -216 3 -216 305 163 c168 90 308 164 312 164 4 0 30 -45 58 -100 l50 -100
369 0 369 0 56 104 56 104 109 723 c88 576 113 726 127 736 9 6 119 71 245
144 l229 132 0 53 0 52 143 -82 142 -82 3 -484 2 -484 -315 -1184 c-174 -651
-315 -1188 -313 -1194 2 -6 170 197 373 451 l369 461 440 2 440 3 48 185 c27
102 50 189 51 194 2 5 31 -32 66 -83 l62 -91 259 0 259 0 63 91 c34 50 64 86
66 80 2 -6 25 -93 51 -193 l47 -183 441 -3 441 -2 372 -465 c205 -256 374
-465 376 -465 2 0 1 6 -1 13 -2 6 -146 545 -320 1196 l-315 1184 2 486 3 486
143 82 142 82 0 -54 0 -53 238 -137 c130 -75 241 -140 245 -145 5 -4 58 -331
118 -727 l109 -719 56 -107 55 -107 369 0 369 0 52 101 c28 55 57 98 63 96 6
-3 146 -77 311 -165 l300 -160 3 214 2 215 -204 518 -204 517 42 280 c24 153
41 282 39 287 -2 4 -177 7 -389 7 -243 0 -384 4 -384 10 0 5 -20 178 -45 383
-25 206 -45 384 -45 396 0 20 3 21 144 21 l144 0 6 -42 c3 -24 12 -113 21
-198 8 -85 17 -174 21 -197 l5 -43 455 0 454 0 -5 38 c-5 34 -165 1592 -165
1606 0 3 -205 6 -456 6 l-456 0 6 -42 c3 -24 12 -113 21 -198 8 -85 17 -174
21 -197 l5 -43 -155 0 c-96 0 -156 4 -156 10 0 5 -16 142 -35 303 l-36 294
-124 403 c-69 222 -125 407 -125 412 0 4 65 8 145 8 l145 0 1 63 c1 61 2 58
103 -243 l103 -305 451 -3 c249 -1 452 1 452 5 0 5 -123 377 -273 828 l-274
820 -451 3 c-249 1 -452 -1 -452 -6 0 -4 36 -114 79 -245 l79 -237 -162 0
-162 0 -125 408 -126 407 364 3 363 2 0 109 0 110 -219 168 -218 168 -87 405
c-48 223 -90 413 -92 423 -5 15 -19 17 -118 17 l-112 0 -73 -337 c-40 -186
-82 -377 -93 -425 l-19 -86 -220 -169 -219 -168 0 -104 c0 -94 4 -116 46 -254
40 -129 45 -154 34 -171 -11 -18 -846 -1204 -920 -1308 l-27 -37 -41 148 c-23
81 -49 171 -57 199 l-16 52 -95 0 -96 0 7 -65 7 -65 -92 0 -92 0 7 65 7 65
-96 0 -95 0 -16 -52 c-8 -28 -34 -118 -57 -200 -23 -81 -43 -147 -44 -145 -14
16 -948 1345 -951 1353 -2 7 16 79 41 161 42 136 46 157 46 254 l0 105 -220
168 c-121 93 -222 176 -224 185 -3 9 -44 199 -92 424 l-88 407 -112 0 c-80 0
-113 -4 -116 -12z m508 -2655 c-1 -2 -11 3 -20 10 -15 11 -17 21 -11 48 l8 34
13 -45 c7 -24 12 -45 10 -47z m3209 11 c-10 -8 -20 -13 -21 -11 -1 1 3 22 9
46 l12 44 9 -33 c8 -27 6 -35 -9 -46z"/>
</g>
</svg>
