<?xml version="1.0" standalone="no"?>
<!DOCTYPE svg PUBLIC "-//W3C//DTD SVG 20010904//EN"
 "http://www.w3.org/TR/2001/REC-SVG-20010904/DTD/svg10.dtd">
<svg version="1.0" xmlns="http://www.w3.org/2000/svg"
 width="1024.000000pt" height="1024.000000pt" viewBox="0 0 1024.000000 1024.000000"
 preserveAspectRatio="xMidYMid meet">
<metadata>
Created by potrace 1.16, written by Peter Selinger 2001-2019
</metadata>
<g transform="translate(0.000000,1024.000000) scale(0.100000,-0.100000)"
fill="#000000" stroke="none">
<path d="M4996 9675 c-14 -29 -41 -114 -62 -187 l-38 -133 -523 -654 -523
-653 0 -280 0 -279 -95 -137 -95 -136 0 -738 0 -738 -149 0 -149 0 -84 -67
c-45 -36 -124 -104 -174 -150 -50 -45 -94 -83 -98 -83 -3 0 -6 54 -6 120 0 66
-2 120 -5 120 -10 0 -788 -130 -813 -135 l-22 -5 0 -473 0 -472 -170 -510
-170 -510 0 -560 0 -560 169 169 c166 166 170 169 173 138 2 -17 190 -436 418
-931 l415 -899 5 1239 5 1238 178 156 179 155 173 0 174 0 -30 -67 -30 -68 73
-560 73 -560 299 -5 300 -5 77 -360 c43 -198 97 -447 120 -552 l42 -193 167 0
168 0 15 -82 c8 -46 41 -233 73 -415 32 -183 61 -333 64 -333 3 0 32 150 64
333 32 182 65 369 74 415 l15 82 168 0 168 0 11 53 c6 29 59 277 119 552 l108
500 299 5 299 5 72 550 c40 303 71 559 69 570 -2 11 -15 46 -30 78 l-26 57
174 0 173 0 182 -157 181 -158 0 -1234 c0 -719 4 -1231 9 -1225 22 24 831
1796 831 1821 0 25 16 12 163 -135 89 -89 166 -162 170 -162 4 0 7 249 7 553
l0 552 -167 495 -168 495 -5 490 -5 489 -400 68 c-220 36 -408 67 -417 67 -16
1 -18 -11 -18 -119 0 -66 -3 -120 -6 -120 -3 0 -49 40 -102 88 -53 48 -132
116 -175 150 l-78 62 -150 0 -149 0 0 738 0 737 -95 135 -94 135 -1 281 0 282
-523 653 -522 654 -42 140 c-23 77 -51 161 -63 188 l-21 47 -100 0 -99 0 -24
-55z m-216 -1035 c0 -184 -1 -190 -20 -190 -11 0 -65 -26 -120 -57 l-100 -57
0 -418 0 -418 -123 0 -124 0 -17 -81 -17 -81 -54 79 -55 78 0 278 0 277 312
390 c172 215 313 390 315 390 2 0 3 -85 3 -190z m1009 -212 l301 -378 0 -275
0 -276 -51 -75 c-28 -42 -53 -73 -56 -71 -3 3 -13 36 -22 74 l-17 68 -122 3
-122 3 0 418 0 419 -99 56 c-54 31 -108 56 -120 56 -21 0 -21 4 -21 192 0 163
2 190 14 178 7 -8 149 -185 315 -392z"/>
</g>
</svg>
