<?xml version="1.0" standalone="no"?>
<!DOCTYPE svg PUBLIC "-//W3C//DTD SVG 20010904//EN"
 "http://www.w3.org/TR/2001/REC-SVG-20010904/DTD/svg10.dtd">
<svg version="1.0" xmlns="http://www.w3.org/2000/svg"
 width="1024.000000pt" height="1024.000000pt" viewBox="0 0 1024.000000 1024.000000"
 preserveAspectRatio="xMidYMid meet">
<metadata>
Created by potrace 1.16, written by Peter Selinger 2001-2019
</metadata>
<g transform="translate(0.000000,1024.000000) scale(0.100000,-0.100000)"
fill="#000000" stroke="none">
<path d="M5006 9713 c-24 -80 -65 -297 -57 -302 11 -7 -43 -301 -57 -310 -5
-3 -101 -86 -214 -184 l-205 -178 -107 -310 -107 -309 -160 -921 -159 -921 0
-164 0 -164 30 0 30 0 0 -601 0 -601 61 -69 62 -69 83 0 84 0 0 -375 0 -376
-47 -64 -48 -64 -136 -1 c-121 0 -138 -2 -144 -17 -4 -10 -29 -83 -56 -162
-39 -113 -49 -157 -49 -207 l0 -64 -80 0 -80 0 0 411 0 412 -87 131 c-48 72
-97 154 -109 181 l-22 50 -167 0 -168 0 -78 -180 c-43 -99 -79 -188 -79 -197
0 -12 -8 -18 -25 -18 -23 0 -25 -3 -25 -52 l0 -53 -62 -25 -62 -25 -123 -580
c-67 -319 -122 -583 -123 -587 0 -5 -25 -8 -55 -8 -47 0 -55 3 -55 19 0 10
-49 304 -109 652 l-109 634 -6 610 c-3 336 -9 896 -12 1245 -5 601 -7 645 -30
815 -36 265 -21 235 -118 235 l-83 0 -26 -202 c-27 -203 -27 -205 -43 -1463
l-16 -1260 -104 -608 -104 -607 0 -220 0 -220 -55 0 -55 0 0 540 0 540 -68 0
-67 0 -138 -138 -137 -137 0 -931 0 -931 102 -12 c57 -7 149 -15 205 -18 l103
-6 0 237 0 236 55 0 55 0 1 -252 0 -253 53 -150 53 -150 270 -3 270 -2 57 162
c55 159 56 165 56 271 0 108 0 108 23 101 76 -23 85 -34 212 -255 l122 -214
61 -25 c50 -20 62 -29 62 -47 0 -18 6 -23 25 -23 14 0 25 -6 25 -13 0 -7 36
-96 79 -197 l80 -185 166 0 167 0 22 50 c12 28 61 109 109 182 l87 132 0 410
0 411 80 0 80 0 0 -68 0 -68 75 -37 75 -37 0 -333 0 -334 83 -96 82 -97 376 0
376 0 82 95 81 94 0 216 0 215 80 0 80 0 0 -216 0 -215 82 -95 82 -94 376 0
375 0 83 97 82 97 0 333 0 333 75 37 75 37 0 68 0 68 80 0 80 0 0 -410 0 -410
93 -143 c51 -78 101 -161 112 -185 l18 -42 165 2 164 3 79 183 c43 101 79 189
79 197 0 9 10 15 25 15 20 0 25 5 25 23 0 20 11 28 62 48 l63 25 122 214 c112
196 126 216 165 237 68 35 68 36 68 -84 0 -104 2 -111 56 -270 l57 -163 271 2
271 3 52 150 52 150 1 253 0 252 55 0 55 0 2 -233 3 -232 85 0 c47 0 138 7
203 14 l117 13 0 932 0 931 -138 138 -137 137 -68 0 -67 0 0 -540 0 -540 -55
0 -55 0 0 218 0 217 -104 610 -105 610 -15 1260 c-16 1247 -16 1262 -42 1454
-14 107 -27 198 -30 203 -3 4 -41 8 -84 8 l-79 0 -6 -32 c-3 -18 -16 -109 -29
-203 -23 -161 -25 -205 -30 -810 -3 -352 -9 -914 -12 -1250 l-6 -610 -109
-632 c-60 -348 -109 -642 -109 -653 0 -18 -7 -20 -54 -20 l-55 0 -11 53 c-6
28 -61 293 -123 587 l-113 535 -62 25 -62 25 0 53 c0 49 -2 52 -25 52 -15 0
-25 6 -25 15 0 8 -36 96 -79 197 l-79 183 -165 3 -165 2 -25 -52 c-13 -29 -63
-111 -111 -183 l-86 -130 0 -412 0 -413 -79 0 -79 0 -4 78 c-4 60 -16 109 -57
224 l-53 148 -137 0 -136 1 -47 63 -48 63 0 377 0 376 84 0 83 0 62 69 61 69
0 601 0 601 30 0 30 0 0 163 0 163 -160 922 -159 921 -108 311 -108 312 -201
174 c-111 95 -207 181 -215 190 -19 23 -71 296 -58 305 8 5 -29 202 -57 302
-5 15 -19 17 -114 17 -95 0 -109 -2 -114 -17z"/>
</g>
</svg>
