<?xml version="1.0" standalone="no"?>
<!DOCTYPE svg PUBLIC "-//W3C//DTD SVG 20010904//EN"
 "http://www.w3.org/TR/2001/REC-SVG-20010904/DTD/svg10.dtd">
<svg version="1.0" xmlns="http://www.w3.org/2000/svg"
 width="1024.000000pt" height="1024.000000pt" viewBox="0 0 1024.000000 1024.000000"
 preserveAspectRatio="xMidYMid meet">
<metadata>
Created by potrace 1.16, written by Peter Selinger 2001-2019
</metadata>
<g transform="translate(0.000000,1024.000000) scale(0.100000,-0.100000)"
fill="#000000" stroke="none">
<path d="M4130 9529 c-175 -158 -226 -208 -228 -230 -2 -15 -12 -35 -23 -45
-18 -17 -19 -36 -19 -697 l0 -679 63 53 c34 29 72 62 85 73 l22 19 -1 -664 0
-664 -212 -197 -212 -196 -3 49 c-2 27 -6 49 -10 49 -4 0 -38 -30 -75 -68
l-67 -68 0 -664 0 -665 -292 -437 c-160 -241 -292 -437 -293 -436 0 2 5 147
11 323 7 176 13 357 13 401 1 71 3 82 20 87 33 8 49 87 55 274 6 214 -4 257
-62 267 -85 14 -98 10 -117 -36 -27 -65 -38 -383 -17 -455 9 -30 22 -53 29
-53 11 0 12 -17 8 -77 -3 -43 -10 -224 -16 -403 -6 -179 -12 -327 -14 -329 -2
-2 -31 0 -65 4 l-61 7 6 122 c7 133 65 1806 65 1861 0 35 -1 35 -42 35 -43 -1
-43 -1 -125 -112 -46 -61 -83 -121 -83 -132 0 -12 -31 -415 -69 -897 l-69
-877 -62 -106 -61 -107 -14 -377 c-8 -207 -15 -388 -15 -402 0 -16 -53 -102
-145 -234 l-145 -209 0 90 c0 49 -3 92 -6 96 -4 3 -25 -8 -49 -26 -35 -26
-113 -145 -449 -686 l-406 -654 0 -274 c0 -257 1 -273 18 -265 9 5 192 87 407
182 410 182 485 224 485 271 0 30 -34 14 480 229 l195 81 320 238 c176 131
321 235 323 232 1 -4 -117 -273 -263 -599 l-265 -592 0 -227 1 -228 567 572
c519 524 576 579 679 648 107 72 113 75 117 53 3 -13 30 -198 61 -413 31 -214
58 -405 62 -422 l5 -33 273 0 273 0 6 27 c3 16 24 154 46 308 22 154 42 295
45 312 l6 33 68 0 68 0 15 -82 c9 -46 44 -246 79 -445 35 -200 66 -363 69
-363 3 0 39 188 79 418 40 229 75 429 78 445 5 26 7 27 74 27 l68 0 6 -33 c3
-17 23 -156 45 -307 22 -151 42 -290 45 -307 l6 -33 273 0 274 0 11 63 c5 34
33 224 61 422 28 198 53 370 55 383 5 22 11 19 118 -53 102 -70 163 -128 679
-648 l567 -572 1 226 0 227 -268 598 c-148 330 -268 600 -267 602 2 2 151
-106 331 -240 l329 -243 333 -139 c318 -133 332 -140 332 -165 0 -48 78 -91
493 -276 217 -96 400 -175 406 -175 8 0 11 77 11 268 l0 267 -406 655 c-338
544 -414 660 -450 687 -24 18 -46 33 -49 33 -3 0 -5 -44 -5 -97 l0 -97 -145
209 c-94 135 -145 218 -145 234 0 14 -7 195 -15 401 l-14 375 -61 109 -62 109
-69 871 c-38 479 -69 883 -69 897 0 16 -30 66 -82 137 -83 111 -83 111 -125
112 -42 0 -43 -1 -43 -33 0 -54 58 -1732 65 -1863 l6 -122 -61 -7 c-34 -4 -63
-6 -65 -4 -2 2 -8 150 -14 329 -6 179 -13 360 -16 403 -4 60 -3 77 8 77 8 0
20 23 29 53 21 74 11 380 -16 450 -18 46 -20 47 -60 46 -122 -4 -128 -20 -117
-288 8 -192 23 -261 56 -261 12 0 15 -16 16 -77 0 -43 6 -224 13 -403 6 -179
11 -326 11 -328 -1 -1 -133 195 -293 436 l-292 437 0 665 0 666 -68 67 c-37
37 -71 67 -74 67 -4 0 -8 -22 -10 -49 l-3 -49 -212 196 -212 197 0 663 -1 663
83 -70 82 -69 3 676 c2 655 2 676 -17 696 -11 12 -21 33 -23 47 -2 20 -58 76
-228 229 l-225 203 -3 -37 c-3 -32 -5 -35 -23 -26 -19 11 -19 1 -18 -667 l0
-678 85 -69 84 -69 0 -744 0 -745 -152 143 c-84 78 -161 149 -170 158 -24 22
-317 1258 -368 1553 -22 124 -40 229 -40 232 0 3 -71 6 -159 6 l-158 0 -6 -27
c-3 -16 -20 -111 -37 -213 -43 -253 -346 -1530 -368 -1551 -9 -9 -86 -80 -169
-158 l-153 -143 0 745 0 745 85 71 85 72 0 675 c0 665 0 675 -19 664 -18 -9
-20 -6 -23 26 l-3 36 -225 -203z"/>
</g>
</svg>
