<?xml version="1.0" standalone="no"?>
<!DOCTYPE svg PUBLIC "-//W3C//DTD SVG 20010904//EN"
 "http://www.w3.org/TR/2001/REC-SVG-20010904/DTD/svg10.dtd">
<svg version="1.0" xmlns="http://www.w3.org/2000/svg"
 width="1024.000000pt" height="1024.000000pt" viewBox="0 0 1024.000000 1024.000000"
 preserveAspectRatio="xMidYMid meet">
<metadata>
Created by potrace 1.16, written by Peter Selinger 2001-2019
</metadata>
<g transform="translate(0.000000,1024.000000) scale(0.100000,-0.100000)"
fill="#000000" stroke="none">
<path d="M2685 9708 c-27 -117 -35 -186 -35 -301 0 -73 -20 -449 -44 -837 -38
-610 -52 -772 -101 -1201 l-58 -496 72 -165 72 -166 -45 -873 c-25 -481 -57
-1151 -71 -1489 -24 -553 -28 -621 -47 -679 -18 -57 -96 -166 -656 -915 -349
-468 -676 -912 -725 -986 -50 -74 -110 -157 -134 -185 l-43 -50 0 -336 0 -336
132 -16 132 -16 811 210 c445 116 818 212 828 215 16 5 17 -11 17 -245 0 -174
3 -251 11 -251 6 0 157 -18 335 -41 l325 -41 124 81 c68 44 129 82 135 83 6 2
21 -22 34 -52 l22 -55 349 0 349 0 24 60 c13 33 73 183 134 333 l110 272 380
-2 379 -3 133 -330 133 -330 349 -3 349 -2 24 60 c22 58 24 60 45 47 11 -8 72
-46 133 -86 l113 -73 322 41 c178 23 329 41 336 41 9 0 12 57 12 251 0 234 1
250 17 245 10 -3 383 -100 828 -215 l810 -211 133 17 132 16 0 336 0 336 -43
50 c-24 28 -81 106 -127 175 -46 69 -372 512 -726 986 -596 799 -643 865 -663
930 -19 62 -24 130 -46 674 -14 333 -46 1000 -71 1482 l-45 878 72 166 72 166
-57 491 c-50 429 -63 583 -101 1202 -25 391 -45 769 -45 842 0 115 -8 184 -35
301 -5 22 -8 23 -112 20 l-107 -3 -18 -85 c-10 -52 -17 -132 -18 -204 0 -65
-20 -445 -45 -844 -39 -626 -53 -791 -100 -1200 -30 -260 -55 -486 -55 -501 0
-15 31 -100 70 -189 l69 -161 -34 -657 c-19 -361 -36 -658 -37 -660 -2 -1 -86
223 -187 499 -101 276 -328 869 -503 1317 -176 448 -329 839 -340 868 l-19 52
-105 0 c-92 0 -104 -2 -104 -17 1 -41 -62 -1080 -66 -1102 -4 -20 -14 -11 -75
70 -38 52 -109 140 -157 196 l-87 102 -67 1 c-38 0 -68 2 -68 5 0 42 -38 248
-62 338 l-31 117 -177 0 -178 0 -30 -112 c-17 -62 -38 -166 -47 -230 l-17
-118 -67 0 -66 0 -92 -108 c-50 -59 -121 -147 -156 -196 -58 -78 -66 -86 -71
-65 -3 13 -19 265 -36 559 -17 294 -33 541 -35 548 -3 8 -33 12 -104 12 l-99
0 -17 -42 c-207 -518 -725 -1861 -856 -2220 -96 -262 -175 -475 -177 -473 -1
1 -18 297 -37 657 l-34 656 69 161 c39 89 70 174 70 189 0 15 -25 241 -55 502
-47 410 -61 574 -100 1200 -25 399 -45 779 -45 845 -1 73 -8 153 -18 205 l-18
85 -107 3 c-104 3 -107 2 -112 -20z"/>
</g>
</svg>
