<?xml version="1.0" standalone="no"?>
<!DOCTYPE svg PUBLIC "-//W3C//DTD SVG 20010904//EN"
 "http://www.w3.org/TR/2001/REC-SVG-20010904/DTD/svg10.dtd">
<svg version="1.0" xmlns="http://www.w3.org/2000/svg"
 width="1024.000000pt" height="1024.000000pt" viewBox="0 0 1024.000000 1024.000000"
 preserveAspectRatio="xMidYMid meet">
<metadata>
Created by potrace 1.16, written by Peter Selinger 2001-2019
</metadata>
<g transform="translate(0.000000,1024.000000) scale(0.100000,-0.100000)"
fill="#000000" stroke="none">
<path d="M5075 9388 c-2 -7 -21 -113 -41 -235 l-38 -223 -101 0 -101 0 -38
-67 c-40 -69 -71 -196 -405 -1675 l-22 -97 -107 -3 -107 -3 -117 -430 -118
-430 0 -485 -1 -485 -39 -110 -39 -110 0 53 c-1 30 -28 208 -61 397 -33 189
-60 346 -60 349 0 3 -38 6 -85 6 -47 0 -85 -3 -85 -8 0 -4 -25 -149 -57 -322
l-56 -315 -6 -289 -6 -290 -450 -251 c-334 -187 -451 -248 -452 -236 -2 9 -28
259 -58 556 l-55 540 -62 122 -63 123 -82 0 -82 0 -60 -117 -61 -117 -60 -576
c-48 -458 -60 -611 -60 -742 l0 -165 -176 -98 c-167 -93 -178 -98 -208 -87
-17 6 -184 84 -371 172 -322 151 -340 159 -343 137 -2 -14 -49 -70 -117 -137
l-115 -115 0 -695 0 -695 137 -136 c102 -101 229 -207 485 -407 l348 -271 121
24 c67 14 130 25 139 25 12 0 31 -26 59 -80 l42 -80 324 0 324 0 60 117 c52
100 61 125 61 170 0 46 3 53 23 58 60 14 1060 215 1071 215 8 0 17 -52 30
-162 15 -134 25 -184 58 -280 l40 -118 283 0 282 0 18 -107 c9 -60 36 -164 60
-233 l42 -125 603 0 602 0 43 120 c24 70 49 167 60 233 l18 112 282 0 283 0
41 118 c34 98 43 142 58 276 9 89 21 160 28 162 8 3 940 -180 1073 -211 19 -5
22 -12 22 -55 0 -41 11 -72 60 -170 l60 -120 325 0 324 0 43 80 c27 49 49 80
59 80 15 0 171 -30 236 -45 34 -8 688 507 861 678 l132 132 0 695 0 695 -115
115 c-65 65 -115 123 -117 136 -3 21 -26 12 -363 -147 -198 -93 -366 -169
-373 -169 -7 0 -92 44 -188 97 l-174 97 0 163 c0 129 -13 285 -60 738 l-60
575 -60 120 -60 120 -83 0 -83 0 -61 -117 -61 -118 -58 -560 -58 -561 -451
252 -450 252 -5 283 -6 284 -57 318 c-31 175 -57 322 -57 327 0 6 -37 10 -84
10 -84 0 -84 0 -90 -27 -33 -165 -116 -682 -117 -724 l0 -54 -40 109 -39 109
0 486 -1 486 -118 430 -117 430 -107 3 c-59 1 -107 4 -107 6 0 1 -87 385 -194
852 -183 803 -196 853 -232 916 l-39 68 -101 0 -101 0 -38 223 c-21 122 -40
228 -42 235 -3 7 -22 12 -44 12 -23 0 -41 -5 -44 -12z"/>
</g>
</svg>
