<?xml version="1.0" standalone="no"?>
<!DOCTYPE svg PUBLIC "-//W3C//DTD SVG 20010904//EN"
 "http://www.w3.org/TR/2001/REC-SVG-20010904/DTD/svg10.dtd">
<svg version="1.0" xmlns="http://www.w3.org/2000/svg"
 width="1024.000000pt" height="1024.000000pt" viewBox="0 0 1024.000000 1024.000000"
 preserveAspectRatio="xMidYMid meet">
<metadata>
Created by potrace 1.16, written by Peter Selinger 2001-2019
</metadata>
<g transform="translate(0.000000,1024.000000) scale(0.100000,-0.100000)"
fill="#000000" stroke="none">
<path d="M5063 9637 l-51 -92 -46 -405 c-25 -223 -49 -422 -52 -442 l-6 -37
-66 -3 -66 -3 -128 -294 -128 -295 -50 -836 c-27 -461 -50 -849 -50 -864 l0
-26 115 0 115 0 0 -89 0 -90 -51 -3 -51 -3 -104 -299 -104 -300 0 -228 0 -229
-72 85 c-40 47 -78 85 -84 85 -7 1 -38 67 -71 149 l-59 147 -123 0 -123 0 -57
-144 c-32 -79 -65 -147 -74 -152 -9 -5 -72 -73 -140 -152 l-124 -143 -132
-303 -131 -304 0 -196 0 -196 -507 -412 c-425 -344 -555 -456 -793 -682 -157
-148 -291 -280 -297 -293 -10 -17 -13 -122 -13 -410 0 -214 3 -388 6 -388 3 0
137 39 297 86 273 81 330 94 878 198 l587 112 -24 -86 c-23 -84 -24 -93 -24
-540 l0 -455 76 -148 75 -147 521 2 520 3 74 140 74 140 1 350 1 350 73 -640
c41 -352 74 -641 74 -642 1 -2 167 -3 371 -3 l370 0 4 22 c3 13 36 300 73 638
l68 615 5 -350 5 -350 73 -138 74 -137 518 0 518 0 76 145 76 145 0 452 c0
433 -1 457 -21 536 -12 45 -19 85 -16 88 3 3 259 -42 569 -100 526 -100 583
-113 869 -196 169 -50 309 -90 313 -90 3 0 6 174 6 388 0 288 -3 393 -13 410
-6 13 -142 147 -302 298 -244 231 -370 339 -792 682 l-503 407 0 195 0 195
-132 305 -132 305 -128 147 c-70 80 -133 148 -139 150 -6 2 -37 69 -69 148
l-58 145 -123 0 -123 0 -59 -147 c-33 -82 -64 -148 -71 -149 -6 0 -44 -38 -83
-85 l-73 -85 0 228 0 228 -104 300 -104 300 -51 3 -51 3 0 90 0 89 115 0 115
0 0 26 c0 14 -23 402 -50 861 l-50 836 -129 296 -128 296 -65 3 c-66 3 -66 3
-72 35 -3 18 -26 217 -52 442 l-46 410 -52 92 c-28 51 -53 93 -56 93 -3 0 -28
-42 -57 -93z"/>
</g>
</svg>
