<?xml version="1.0" standalone="no"?>
<!DOCTYPE svg PUBLIC "-//W3C//DTD SVG 20010904//EN"
 "http://www.w3.org/TR/2001/REC-SVG-20010904/DTD/svg10.dtd">
<svg version="1.0" xmlns="http://www.w3.org/2000/svg"
 width="1024.000000pt" height="1024.000000pt" viewBox="0 0 1024.000000 1024.000000"
 preserveAspectRatio="xMidYMid meet">
<metadata>
Created by potrace 1.16, written by Peter Selinger 2001-2019
</metadata>
<g transform="translate(0.000000,1024.000000) scale(0.100000,-0.100000)"
fill="#000000" stroke="none">
<path d="M4905 9594 l-117 -135 -186 -402 -187 -402 -140 -705 -141 -705 -12
70 c-7 39 -20 109 -28 158 l-16 87 -97 0 -97 0 -72 -417 -72 -418 0 -526 c0
-442 2 -533 15 -569 11 -31 15 -86 15 -206 l0 -164 -100 0 -99 0 -293 -356
-292 -356 -11 33 c-7 19 -25 87 -41 152 l-28 117 -361 0 -360 0 -73 -283 -73
-282 1 -257 0 -257 66 -77 66 -78 -166 -42 c-91 -24 -175 -46 -186 -49 -19 -6
-20 -2 -20 115 l0 122 -72 138 -73 138 -76 37 -76 38 -38 221 c-21 121 -40
227 -42 234 -4 8 -33 12 -98 12 -65 0 -94 -4 -98 -12 -2 -7 -21 -113 -42 -234
l-38 -221 -77 -38 -77 -38 -71 -137 -72 -137 0 -403 0 -402 71 -139 71 -139
-46 -186 c-26 -102 -57 -261 -71 -352 l-24 -167 48 -190 47 -190 379 0 379 0
25 101 24 101 196 -49 c108 -28 198 -52 201 -55 2 -2 11 -86 20 -186 l15 -182
360 0 360 0 14 172 14 173 413 0 414 0 2 -175 3 -174 255 223 c140 123 256
223 257 222 2 -1 12 -105 23 -230 11 -125 40 -403 65 -616 25 -214 45 -394 45
-400 0 -7 230 -10 710 -10 452 0 710 4 710 10 0 5 20 184 45 397 25 213 54
491 65 617 11 126 21 231 23 232 1 1 114 -97 252 -217 137 -121 253 -219 257
-219 4 0 8 77 8 170 l0 170 413 0 414 0 14 -173 14 -172 360 0 360 0 15 182
c9 100 18 184 20 187 3 2 87 25 186 50 99 25 187 48 195 51 12 4 20 -18 40
-97 l25 -103 379 0 379 0 47 190 48 189 -25 166 c-14 91 -45 249 -70 352 l-45
187 70 139 71 139 0 402 0 402 -72 139 -73 138 -76 37 -76 38 -37 216 c-21
119 -40 224 -42 234 -5 16 -17 17 -102 15 l-96 -3 -40 -231 -39 -232 -77 -37
-77 -37 -69 -132 -69 -131 -5 -126 -5 -125 -184 46 -184 46 66 76 67 76 0 259
0 258 -72 282 -73 283 -360 0 -360 0 -39 -150 c-21 -83 -40 -150 -41 -150 -2
0 -135 160 -295 355 l-291 355 -99 0 -100 0 0 164 c0 120 4 175 15 206 13 36
15 127 15 569 l0 526 -72 418 -72 417 -97 0 -98 0 -6 -32 c-3 -18 -16 -90 -28
-160 l-22 -127 -138 701 -139 700 -189 409 -188 409 -117 135 -117 135 -97 0
-97 0 -118 -136z m-865 -5061 c0 -5 11 -134 25 -288 14 -153 25 -294 25 -312
l0 -33 -134 0 -134 0 -6 163 c-4 89 -7 233 -9 320 l-2 157 118 0 c64 0 117 -3
117 -7z m2393 -150 c-2 -87 -5 -231 -9 -320 l-6 -163 -134 0 -134 0 0 33 c0
18 11 159 25 312 14 154 25 283 25 288 0 4 53 7 118 7 l117 0 -2 -157z m-2473
-1895 c0 -2 -30 -91 -65 -198 l-65 -195 5 80 c3 44 8 133 12 198 l6 117 54 0
c29 0 53 -1 53 -2z m2433 -115 c4 -65 9 -154 12 -198 l5 -80 -60 180 c-33 99
-62 188 -66 198 -5 15 2 17 49 17 l54 0 6 -117z"/>
</g>
</svg>
