<?xml version="1.0" standalone="no"?>
<!DOCTYPE svg PUBLIC "-//W3C//DTD SVG 20010904//EN"
 "http://www.w3.org/TR/2001/REC-SVG-20010904/DTD/svg10.dtd">
<svg version="1.0" xmlns="http://www.w3.org/2000/svg"
 width="1024.000000pt" height="1024.000000pt" viewBox="0 0 1024.000000 1024.000000"
 preserveAspectRatio="xMidYMid meet">
<metadata>
Created by potrace 1.16, written by Peter Selinger 2001-2019
</metadata>
<g transform="translate(0.000000,1024.000000) scale(0.100000,-0.100000)"
fill="#000000" stroke="none">
<path d="M4932 9607 c-60 -117 -66 -137 -158 -492 -52 -203 -97 -377 -100
-385 -4 -10 -12 0 -22 28 l-16 43 -124 -3 -125 -3 -78 -229 -79 -228 0 -722
c0 -438 4 -778 11 -866 l11 -145 -151 -420 -151 -420 0 -200 c0 -110 -3 -298
-7 -417 l-6 -218 -199 0 -198 0 0 905 c0 498 -3 905 -8 905 -4 0 -49 -42 -100
-93 l-92 -92 0 -585 0 -585 -366 -500 c-201 -275 -372 -508 -378 -518 -12 -15
-18 -9 -59 58 l-47 76 0 167 0 167 -120 115 -120 115 -40 290 c-23 160 -46
318 -52 353 l-10 62 -59 0 c-39 0 -61 -4 -64 -12 -3 -7 -27 -166 -54 -353
l-50 -339 -120 -120 -121 -119 0 -164 0 -165 -39 -66 -39 -67 -3 -935 -4 -935
58 -325 c31 -179 60 -337 63 -353 l6 -27 366 2 366 3 63 355 c48 278 62 378
62 461 l1 106 380 372 380 373 0 -106 c0 -58 3 -106 8 -106 4 0 49 42 100 93
l92 92 0 253 0 252 185 0 185 0 -1 -117 c-1 -65 -4 -226 -7 -359 l-7 -240 -99
-106 c-54 -58 -98 -110 -98 -114 0 -5 -6 -16 -14 -25 -12 -14 15 -167 218
-1237 128 -672 235 -1222 238 -1222 3 0 60 285 126 633 l121 632 110 3 110 3
12 92 c7 51 15 102 18 115 l5 22 478 0 478 0 5 -23 c3 -12 11 -63 18 -114 l12
-92 110 -3 111 -3 120 -632 c66 -348 123 -633 126 -633 3 0 110 550 238 1221
224 1178 232 1223 215 1241 -10 11 -16 22 -14 25 2 3 -41 53 -95 111 l-99 106
-7 240 c-3 133 -6 294 -7 359 l-1 117 185 0 185 0 0 -256 0 -257 92 -93 c50
-52 95 -94 100 -94 4 0 8 50 8 111 l0 111 380 -373 380 -373 0 -100 c1 -78 15
-183 63 -461 l63 -360 366 -3 366 -2 6 27 c3 16 32 172 63 348 l58 320 -3 940
-4 940 -39 67 -39 66 0 165 0 164 -123 124 -123 124 -49 348 -48 347 -63 0
c-60 0 -63 -1 -68 -27 -3 -16 -26 -174 -51 -353 l-45 -325 -120 -115 -120
-115 0 -164 0 -164 -46 -79 c-26 -43 -48 -78 -49 -76 -1 2 -172 235 -379 518
l-376 514 0 586 0 585 -93 93 c-51 50 -96 92 -100 92 -4 0 -7 -407 -7 -905 l0
-905 -198 0 -199 0 -6 212 c-4 116 -7 303 -7 416 l0 204 -151 422 -151 421 11
145 c7 89 11 422 11 866 l0 721 -60 174 c-33 96 -70 200 -81 232 l-21 57 -123
0 -123 0 -15 -42 c-10 -28 -17 -38 -21 -28 -3 8 -49 182 -101 385 -91 350 -99
376 -158 492 l-62 123 -125 0 -125 0 -63 -123z"/>
</g>
</svg>
