<?xml version="1.0" standalone="no"?>
<!DOCTYPE svg PUBLIC "-//W3C//DTD SVG 20010904//EN"
 "http://www.w3.org/TR/2001/REC-SVG-20010904/DTD/svg10.dtd">
<svg version="1.0" xmlns="http://www.w3.org/2000/svg"
 width="1024.000000pt" height="1024.000000pt" viewBox="0 0 1024.000000 1024.000000"
 preserveAspectRatio="xMidYMid meet">
<metadata>
Created by potrace 1.16, written by Peter Selinger 2001-2019
</metadata>
<g transform="translate(0.000000,1024.000000) scale(0.100000,-0.100000)"
fill="#000000" stroke="none">
<path d="M4853 9509 l-113 -111 0 -110 c0 -102 -14 -185 -185 -1072 l-185
-962 0 -226 0 -227 75 -217 75 -217 0 -902 0 -902 -170 -176 -170 -175 0 -254
0 -254 -85 -73 -85 -72 0 983 0 984 -30 140 c-17 76 -33 152 -36 167 l-6 28
-116 -3 -116 -3 -35 -150 -35 -150 -5 -1084 -6 -1084 -62 -18 c-51 -14 -365
-49 -438 -49 -11 0 -25 10 -31 23 -6 12 -34 65 -62 117 l-52 95 0 110 0 110
-96 222 -97 223 -262 0 -262 0 -97 -222 -96 -223 0 -110 0 -110 -60 -109 -60
-110 0 -147 0 -147 -700 -484 c-384 -265 -699 -488 -700 -493 0 -6 -9 -16 -20
-23 -19 -12 -20 -23 -20 -252 0 -185 3 -240 13 -240 6 0 310 23 675 50 364 28
667 50 672 50 6 0 10 -27 10 -60 l0 -60 114 0 114 0 6 -37 c3 -21 10 -85 16
-143 6 -58 13 -120 16 -137 l5 -33 374 0 c347 0 374 1 379 18 3 9 8 54 12 100
6 71 9 82 23 77 9 -3 137 -58 284 -122 l268 -115 197 54 197 55 3 -153 3 -154
198 0 198 0 42 -98 42 -97 92 -62 93 -63 564 0 564 0 75 52 c109 74 115 80
157 179 l38 89 198 0 197 0 3 153 3 154 196 -55 195 -54 281 121 c154 66 283
121 286 121 3 0 8 -37 12 -83 3 -45 9 -90 11 -99 5 -17 32 -18 379 -18 l375 0
4 23 c3 12 10 76 16 142 6 66 14 135 17 153 l5 32 114 0 114 0 0 60 c0 33 4
60 9 60 6 0 308 -22 672 -50 364 -27 668 -50 676 -50 10 0 13 45 13 240 0 229
-1 240 -20 252 -11 7 -20 17 -20 23 -1 5 -316 228 -700 494 l-700 484 0 149
c0 130 -2 153 -19 176 -10 15 -37 64 -60 109 -40 81 -41 84 -41 189 l0 106
-96 224 -97 224 -262 0 c-201 0 -264 -3 -268 -12 -3 -7 -46 -107 -96 -222
l-91 -209 0 -111 0 -111 -60 -109 c-33 -60 -60 -113 -60 -118 0 -11 -11 -10
-217 7 -104 10 -206 24 -245 36 l-68 20 0 1057 -1 1057 -38 175 -38 175 -116
3 c-64 1 -117 0 -117 -2 0 -3 -15 -67 -32 -143 l-33 -138 -5 -1006 -5 -1007
-82 72 -83 71 0 253 0 254 -170 175 -170 176 0 901 0 902 75 215 75 214 0 229
0 229 -185 961 c-172 893 -185 969 -185 1073 l0 113 -112 110 -113 109 -155 0
-155 1 -112 -111z"/>
</g>
</svg>
