<?xml version="1.0" standalone="no"?>
<!DOCTYPE svg PUBLIC "-//W3C//DTD SVG 20010904//EN"
 "http://www.w3.org/TR/2001/REC-SVG-20010904/DTD/svg10.dtd">
<svg version="1.0" xmlns="http://www.w3.org/2000/svg"
 width="1024.000000pt" height="1024.000000pt" viewBox="0 0 1024.000000 1024.000000"
 preserveAspectRatio="xMidYMid meet">
<metadata>
Created by potrace 1.16, written by Peter Selinger 2001-2019
</metadata>
<g transform="translate(0.000000,1024.000000) scale(0.100000,-0.100000)"
fill="#000000" stroke="none">
<path d="M3582 9547 l-182 -182 0 -640 0 -641 -126 -89 c-69 -49 -127 -92
-130 -96 -2 -4 -20 -85 -39 -180 l-35 -172 0 -1547 0 -1547 -55 -39 -55 -39 0
-422 c0 -233 2 -423 5 -423 2 0 74 52 159 115 86 63 158 115 161 115 3 0 5
-114 5 -253 l0 -252 175 -263 176 -263 -161 -236 -160 -237 0 -224 0 -224
-335 -508 -335 -509 0 -96 c0 -62 4 -94 10 -90 5 3 10 -3 10 -14 0 -12 3 -21
6 -21 3 0 331 182 729 405 398 223 731 408 739 411 14 5 16 -23 16 -258 l0
-265 45 -173 c25 -95 45 -175 45 -177 0 -2 145 -2 321 -1 l322 3 48 185 c40
152 49 201 49 273 l0 87 130 0 130 0 0 -86 c0 -68 8 -118 41 -242 22 -86 45
-172 50 -189 l11 -33 318 0 319 0 10 38 c5 20 26 98 45 173 l36 137 0 266 c0
146 3 266 6 266 3 0 331 -182 729 -405 398 -223 731 -408 740 -411 11 -4 15 0
15 16 0 11 5 18 10 15 6 -4 10 28 10 89 l0 96 -335 508 -335 509 0 225 0 225
-78 114 c-43 63 -115 169 -160 236 l-83 122 176 263 175 263 0 252 c0 139 2
253 5 253 2 0 74 -52 160 -115 85 -63 157 -115 160 -115 3 0 5 190 5 423 l0
422 -55 39 -55 39 0 1547 0 1547 -35 173 c-19 95 -39 178 -44 184 -5 6 -64 49
-130 96 l-121 85 0 640 0 640 -183 183 -182 182 -58 0 -57 0 -2 -2336 -3
-2336 -27 21 c-14 12 -29 21 -32 21 -3 0 -6 -190 -6 -422 l1 -423 144 -108
145 -107 0 -392 0 -392 -81 -123 c-45 -68 -85 -123 -88 -123 -3 1 -85 118
-181 260 l-175 260 -70 319 -70 320 -112 163 -113 163 0 657 0 657 -35 60 -36
61 -104 0 -105 0 0 70 0 70 105 0 105 0 0 440 0 440 -105 0 -105 0 0 70 0 70
80 0 80 0 0 90 0 90 -160 369 -160 370 0 363 1 363 -32 188 -33 187 -66 0 -67
0 -31 -183 c-32 -183 -32 -184 -32 -549 l0 -366 -160 -371 -161 -371 3 -87 3
-88 78 -3 77 -3 0 -69 0 -70 -105 0 -105 0 0 -440 0 -440 105 0 105 0 0 -70 0
-69 -107 -3 -107 -3 -32 -55 -33 -55 -1 -660 0 -660 -113 -163 -113 -162 -68
-318 -69 -317 -174 -257 c-95 -142 -177 -260 -182 -262 -5 -3 -45 50 -90 117
l-81 123 0 394 1 395 144 105 145 105 0 423 0 424 -35 -22 -35 -22 0 2336 0
2336 -58 0 -57 0 -183 -183z"/>
</g>
</svg>
