<?xml version="1.0" standalone="no"?>
<!DOCTYPE svg PUBLIC "-//W3C//DTD SVG 20010904//EN"
 "http://www.w3.org/TR/2001/REC-SVG-20010904/DTD/svg10.dtd">
<svg version="1.0" xmlns="http://www.w3.org/2000/svg"
 width="1024.000000pt" height="1024.000000pt" viewBox="0 0 1024.000000 1024.000000"
 preserveAspectRatio="xMidYMid meet">
<metadata>
Created by potrace 1.16, written by Peter Selinger 2001-2019
</metadata>
<g transform="translate(0.000000,1024.000000) scale(0.100000,-0.100000)"
fill="#000000" stroke="none">
<path d="M4618 9637 l-477 -92 -38 -37 c-30 -29 -47 -38 -74 -38 -29 0 -71
-25 -230 -133 -165 -113 -238 -171 -472 -382 -254 -228 -285 -260 -372 -377
l-95 -129 0 -223 c0 -122 3 -225 6 -229 4 -3 47 21 96 54 116 78 571 278 832
365 l189 64 47 -35 48 -35 172 0 172 0 -27 -36 c-15 -19 -25 -37 -24 -39 2 -1
86 -44 186 -94 162 -81 189 -91 236 -91 l54 0 7 -61 c3 -34 6 -100 6 -146 0
-82 -1 -86 -35 -127 -31 -38 -35 -50 -35 -97 0 -43 -22 -120 -112 -381 l-113
-328 -3 440 -2 440 -59 0 -59 0 -177 -532 c-98 -293 -199 -589 -226 -658 -82
-208 -129 -271 -484 -640 l-310 -322 -58 -120 c-46 -97 -106 -275 -302 -894
l-245 -773 2 -209 3 -210 251 211 c137 117 271 222 297 234 l47 23 284 -178
285 -177 -17 -26 c-9 -14 -177 -261 -372 -548 l-355 -522 -3 211 -2 211 -62
-3 -62 -3 -222 -537 c-155 -374 -258 -639 -338 -874 l-116 -336 0 -354 c0
-195 3 -354 8 -354 4 1 54 45 112 100 74 70 107 94 110 84 4 -11 68 32 233
156 l227 170 55 0 55 0 0 133 0 132 463 350 c371 281 469 350 497 353 l35 4
18 -65 c13 -51 17 -107 17 -256 l0 -191 50 -100 50 -100 330 0 330 0 50 100
c48 96 50 103 50 185 l0 85 170 0 170 0 0 -86 c0 -83 1 -88 51 -185 l51 -99
328 0 328 0 51 96 51 97 0 186 c0 141 4 204 17 259 l17 74 36 -4 c28 -3 126
-72 497 -353 l462 -350 1 -132 0 -133 55 0 55 0 227 -170 c165 -124 229 -167
233 -156 3 10 36 -14 110 -84 58 -55 108 -99 113 -100 4 0 7 159 7 353 l0 352
-117 339 c-81 236 -184 502 -338 875 l-222 536 -61 3 -62 3 -2 -211 -3 -212
-372 548 c-205 301 -372 549 -370 550 1 1 128 81 282 177 l279 175 66 -34 c42
-21 149 -104 300 -233 l235 -199 3 208 2 209 -243 768 c-190 598 -257 796
-303 895 l-59 126 -314 327 c-345 358 -391 417 -466 600 -23 55 -126 353 -229
663 l-188 562 -59 0 -59 0 -2 -441 -3 -440 -112 325 c-92 266 -113 336 -113
382 0 50 -4 62 -35 100 -34 41 -35 45 -35 127 0 46 3 112 6 146 l7 61 54 0
c47 0 74 10 236 91 100 50 184 93 186 94 1 2 -9 20 -24 39 l-27 36 171 0 171
0 47 34 48 34 190 -63 c255 -83 716 -285 836 -365 48 -33 91 -60 94 -60 3 0 5
103 5 229 l0 230 -99 133 c-92 123 -121 152 -380 385 -240 215 -309 270 -469
377 -150 102 -194 126 -222 126 -26 0 -44 9 -75 39 l-40 38 -485 92 c-267 50
-492 91 -500 90 -8 0 -230 -42 -492 -92z"/>
</g>
</svg>
