<?xml version="1.0" standalone="no"?>
<!DOCTYPE svg PUBLIC "-//W3C//DTD SVG 20010904//EN"
 "http://www.w3.org/TR/2001/REC-SVG-20010904/DTD/svg10.dtd">
<svg version="1.0" xmlns="http://www.w3.org/2000/svg"
 width="1024.000000pt" height="1024.000000pt" viewBox="0 0 1024.000000 1024.000000"
 preserveAspectRatio="xMidYMid meet">
<metadata>
Created by potrace 1.16, written by Peter Selinger 2001-2019
</metadata>
<g transform="translate(0.000000,1024.000000) scale(0.100000,-0.100000)"
fill="#000000" stroke="none">
<path d="M4262 9683 c-6 -27 -63 -342 -129 -702 l-118 -654 -36 294 c-36 282
-39 298 -76 384 l-39 90 -134 0 -134 0 -39 -90 c-40 -90 -40 -90 -89 -490 -26
-220 -51 -410 -53 -422 -4 -16 -13 -23 -28 -23 -22 0 -31 -35 -265 -1062
l-242 -1063 30 -450 31 -450 109 -275 110 -275 -34 -197 -35 -198 -277 -367
c-152 -203 -280 -371 -283 -376 -4 -4 -26 7 -49 25 l-42 32 0 603 c0 598 0
604 25 745 23 132 25 166 25 458 l0 315 -51 148 -52 147 -107 0 c-93 0 -109
-2 -115 -17 -3 -10 -26 -76 -51 -147 l-44 -128 0 -317 c0 -293 2 -327 25 -459
25 -141 25 -147 25 -745 l0 -603 -80 -60 -79 -59 -1 -52 c0 -29 -2 -53 -5 -53
-3 0 -134 65 -293 144 l-287 144 -180 528 c-165 483 -180 524 -185 483 l-5
-44 -12 30 c-9 23 -12 -223 -12 -1062 l-1 -1091 102 -32 c57 -17 147 -46 201
-63 l98 -32 289 -240 289 -240 0 -118 1 -117 82 -95 82 -95 156 0 156 0 82 95
c81 93 82 95 82 148 l0 54 213 93 c116 51 215 95 219 97 9 5 -36 -92 -176
-381 -58 -120 -105 -220 -104 -221 2 -1 93 35 203 81 110 46 207 86 217 89 13
5 24 -13 52 -87 l36 -93 0 -240 1 -240 102 -87 102 -88 265 0 265 0 102 88
102 87 1 241 c0 233 1 242 25 305 50 125 31 126 156 -5 l111 -116 628 0 628 0
110 115 c61 64 113 112 116 107 3 -5 19 -44 36 -88 l30 -79 0 -240 1 -240 102
-87 102 -88 265 0 265 1 102 87 102 87 1 240 0 239 36 94 c21 54 41 91 48 89
6 -3 100 -41 209 -87 110 -45 201 -79 205 -76 3 4 -58 137 -136 298 -78 160
-141 292 -140 293 2 2 101 -41 221 -93 l217 -96 0 -53 c0 -50 2 -54 83 -147
l82 -96 155 0 156 0 82 94 82 95 1 118 0 118 289 240 289 240 113 37 c62 20
152 49 201 64 l87 26 0 1084 c0 596 -2 1084 -5 1084 -3 0 -10 -10 -15 -22 -7
-20 -9 -17 -9 17 -1 22 -5 35 -9 30 -5 -6 -87 -241 -183 -523 l-174 -514 -287
-144 c-159 -79 -290 -144 -293 -144 -3 0 -5 24 -5 53 l-1 52 -79 60 -80 60 0
600 c0 596 0 602 25 743 23 132 25 166 25 462 l0 319 -51 145 -51 146 -108 0
-108 0 -51 -146 -51 -145 0 -318 c0 -294 2 -327 25 -457 25 -138 25 -143 25
-744 l0 -606 -42 -32 -42 -33 -18 23 c-10 13 -137 182 -283 375 l-266 352 -35
198 -35 197 110 275 110 276 31 452 30 452 -241 1052 c-132 579 -242 1056
-245 1061 -3 4 -14 8 -24 8 -12 0 -22 9 -25 23 -2 12 -27 202 -54 422 -49 398
-49 400 -89 490 l-39 90 -133 0 -134 0 -39 -90 c-39 -88 -41 -98 -76 -385
l-36 -295 -124 680 c-67 374 -125 690 -128 703 -5 21 -10 22 -99 22 l-94 0 -1
-27 c0 -16 -55 -930 -122 -2032 l-122 -2005 -74 410 -73 409 -81 188 -80 187
-107 0 -107 0 -81 -187 -81 -188 -73 -410 c-49 -277 -74 -395 -76 -365 -8 130
-242 4000 -242 4009 0 7 -34 11 -94 11 l-94 0 -10 -47z"/>
</g>
</svg>
