<?xml version="1.0" standalone="no"?>
<!DOCTYPE svg PUBLIC "-//W3C//DTD SVG 20010904//EN"
 "http://www.w3.org/TR/2001/REC-SVG-20010904/DTD/svg10.dtd">
<svg version="1.0" xmlns="http://www.w3.org/2000/svg"
 width="1024.000000pt" height="1024.000000pt" viewBox="0 0 1024.000000 1024.000000"
 preserveAspectRatio="xMidYMid meet">
<metadata>
Created by potrace 1.16, written by Peter Selinger 2001-2019
</metadata>
<g transform="translate(0.000000,1024.000000) scale(0.100000,-0.100000)"
fill="#000000" stroke="none">
<path d="M4156 7218 c-48 -1382 -91 -2568 -94 -2635 l-7 -122 -229 1137 c-126
625 -232 1143 -236 1151 -10 18 -9 31 -105 -1424 -47 -709 -88 -1305 -91
-1322 l-5 -33 -68 0 -68 0 -11 94 c-7 52 -12 227 -13 388 0 161 -8 592 -18
958 -17 657 -16 667 3 826 l20 161 -40 219 -40 219 -56 3 -56 3 -10 -48 c-6
-26 -25 -126 -42 -222 l-33 -173 21 -162 21 -161 -19 -735 c-11 -404 -19 -840
-20 -968 0 -214 -3 -259 -40 -537 -25 -190 -40 -343 -40 -409 l0 -106 -45 0
c-38 0 -45 3 -50 22 -5 26 -305 2282 -305 2298 0 6 -32 10 -83 10 l-83 0 -202
-1517 -203 -1518 -295 -668 -295 -667 3 -97 3 -97 302 365 c257 311 329 391
496 551 l195 188 76 0 c75 0 78 1 236 80 141 71 166 80 214 80 l54 0 17 -49
c16 -49 17 -50 62 -53 l46 -3 25 -72 24 -73 161 0 162 0 93 -792 c51 -436 95
-794 96 -796 2 -1 196 134 432 301 236 166 434 306 440 310 7 4 97 -33 200
-81 l189 -89 3 -53 c3 -51 7 -59 68 -127 l66 -73 138 0 138 0 66 73 c61 69 65
76 68 127 l3 54 185 88 c102 48 190 85 195 84 6 -2 205 -142 444 -310 238
-169 435 -306 437 -304 1 2 45 359 96 793 l93 790 162 3 c157 2 162 3 169 25
3 12 15 46 26 75 19 52 20 52 63 52 43 0 43 0 60 50 l17 50 49 0 c42 0 74 -12
209 -80 l160 -80 81 0 81 0 199 -193 c171 -164 243 -244 497 -551 l297 -359 3
95 3 96 -296 667 -295 668 -202 1518 -203 1519 -82 0 c-51 0 -83 -4 -83 -10 0
-16 -300 -2272 -305 -2298 -5 -19 -12 -22 -50 -22 l-45 0 0 103 c0 61 -16 224
-40 410 -36 278 -40 328 -40 534 0 126 -9 561 -20 968 l-19 740 21 159 20 159
-32 176 c-17 97 -36 198 -42 224 l-10 48 -56 -3 -56 -3 -40 -218 -40 -219 20
-161 c20 -160 20 -170 3 -822 -10 -363 -18 -793 -18 -955 0 -165 -6 -338 -13
-393 l-12 -97 -68 0 -67 0 -5 32 c-3 18 -46 647 -96 1398 -51 751 -93 1366
-95 1368 -4 5 4 47 -247 -1197 -122 -607 -224 -1099 -225 -1095 -1 5 -43 1157
-93 2559 -49 1403 -91 2584 -92 2625 l-3 75 -59 -119 -59 -120 -286 -2358
c-157 -1297 -288 -2358 -291 -2358 -3 0 -20 29 -39 65 l-33 65 -109 0 -109 0
-32 -65 c-18 -36 -35 -65 -38 -65 -3 0 -134 1061 -292 2358 l-286 2357 -55
118 c-31 64 -57 117 -59 117 -2 0 -43 -1131 -92 -2512z"/>
</g>
</svg>
