<?xml version="1.0" standalone="no"?>
<!DOCTYPE svg PUBLIC "-//W3C//DTD SVG 20010904//EN"
 "http://www.w3.org/TR/2001/REC-SVG-20010904/DTD/svg10.dtd">
<svg version="1.0" xmlns="http://www.w3.org/2000/svg"
 width="1024.000000pt" height="1024.000000pt" viewBox="0 0 1024.000000 1024.000000"
 preserveAspectRatio="xMidYMid meet">
<metadata>
Created by potrace 1.16, written by Peter Selinger 2001-2019
</metadata>
<g transform="translate(0.000000,1024.000000) scale(0.100000,-0.100000)"
fill="#000000" stroke="none">
<path d="M4961 9655 c-31 -74 -31 -77 -31 -245 l0 -170 -24 0 c-13 0 -28 -6
-34 -13 -6 -7 -92 -168 -190 -358 l-180 -345 -83 -320 -83 -319 -215 -324
-216 -324 -7 109 c-3 60 -16 174 -27 253 -12 80 -21 146 -21 148 0 2 -35 3
-77 1 l-78 -3 -22 -155 c-19 -141 -21 -197 -21 -625 0 -428 2 -484 21 -625
l22 -155 77 -3 77 -3 5 33 c3 18 15 98 26 178 11 80 26 150 33 156 18 17 288
177 291 173 3 -5 -129 -1494 -138 -1549 -7 -41 -15 -51 -91 -115 l-84 -70 0
-177 -1 -178 -235 0 -235 0 0 85 0 85 -70 0 -69 0 -6 38 c-14 77 -3 72 -140
72 -121 0 -125 -1 -130 -22 -30 -136 -55 -328 -55 -425 l0 -113 -132 -331
c-73 -182 -134 -326 -136 -320 -2 6 -36 136 -76 289 l-72 277 -249 3 -250 2
-93 -357 -92 -358 0 -352 0 -352 60 -69 60 -70 0 -106 0 -106 -90 0 -90 0 0
620 0 620 -73 0 -72 0 -163 -163 -162 -162 0 -1062 0 -1062 33 -5 c82 -14 313
-36 372 -36 l65 0 0 265 0 265 50 0 c43 0 50 -3 54 -22 6 -27 76 -639 76 -662
0 -14 36 -16 313 -16 l313 0 41 363 42 362 158 152 c140 134 159 150 167 132
8 -17 20 -19 132 -19 140 0 125 -11 144 108 l12 72 64 0 64 0 0 440 0 440 115
0 115 0 -26 -58 c-14 -31 -41 -94 -60 -138 l-35 -81 121 -704 c104 -601 126
-715 153 -781 l32 -78 256 0 257 0 11 -62 c6 -35 13 -82 17 -105 l7 -43 223 0
224 0 0 -187 c0 -178 2 -193 29 -283 l28 -95 67 -3 66 -3 0 108 0 108 100 -3
100 -3 0 -105 0 -105 67 3 67 3 28 95 c26 89 28 107 28 283 l0 187 223 0 224
0 18 105 18 105 256 0 256 0 32 78 c28 66 49 174 153 779 l121 702 -57 133
c-31 73 -58 136 -61 141 -2 4 48 7 111 7 l116 0 0 -440 0 -440 64 0 64 0 12
-72 c19 -119 4 -108 144 -108 112 0 124 2 132 19 8 18 27 2 167 -132 l159
-152 41 -362 42 -363 312 0 c277 0 313 2 313 16 0 23 70 635 76 662 4 19 11
22 54 22 l50 0 0 -265 0 -265 63 0 c54 0 233 18 365 35 l42 6 0 1062 0 1062
-162 162 -163 163 -72 0 -73 0 0 -620 0 -620 -90 0 -90 0 0 106 0 106 60 70
60 69 0 352 0 352 -92 357 -93 358 -250 0 -250 0 -64 -253 c-36 -138 -70 -270
-76 -291 l-12 -39 -131 329 -132 329 0 114 c0 98 -25 289 -55 429 -5 21 -9 22
-130 22 -137 0 -126 5 -140 -72 l-6 -38 -69 0 -70 0 0 -85 0 -85 -235 0 -235
0 -1 178 0 177 -84 70 c-61 51 -85 78 -90 100 -7 37 -143 1559 -139 1564 2 2
71 -38 153 -88 136 -83 151 -95 156 -124 6 -40 45 -317 45 -323 0 -3 35 -4 78
-2 l77 3 22 155 c20 141 22 196 22 620 0 426 -2 478 -22 625 l-22 160 -78 3
c-42 2 -77 1 -77 0 0 -2 -9 -69 -21 -148 -12 -80 -24 -194 -28 -254 l-6 -109
-216 324 -216 325 -83 318 -83 319 -186 358 c-176 339 -187 359 -213 359 l-28
0 0 168 c0 165 0 168 -32 245 l-32 77 -126 0 -127 0 -32 -75z"/>
</g>
</svg>
