<?xml version="1.0" standalone="no"?>
<!DOCTYPE svg PUBLIC "-//W3C//DTD SVG 20010904//EN"
 "http://www.w3.org/TR/2001/REC-SVG-20010904/DTD/svg10.dtd">
<svg version="1.0" xmlns="http://www.w3.org/2000/svg"
 width="1024.000000pt" height="1024.000000pt" viewBox="0 0 1024.000000 1024.000000"
 preserveAspectRatio="xMidYMid meet">
<metadata>
Created by potrace 1.16, written by Peter Selinger 2001-2019
</metadata>
<g transform="translate(0.000000,1024.000000) scale(0.100000,-0.100000)"
fill="#000000" stroke="none">
<path d="M3835 9574 c-132 -85 -246 -159 -254 -163 -9 -5 -26 -87 -51 -237
-20 -126 -49 -272 -63 -324 -14 -52 -119 -594 -232 -1204 l-206 -1109 -66
-106 -66 -105 -208 -1125 c-115 -619 -209 -1133 -209 -1143 0 -16 3 -16 42 -2
22 8 43 13 45 10 2 -2 -17 -115 -42 -252 l-46 -249 -460 -1090 -459 -1090 2
-439 3 -438 520 411 520 411 56 0 c47 0 94 16 321 109 326 134 305 127 313
101 6 -19 14 -20 211 -20 l204 0 0 -52 c1 -45 8 -65 48 -133 l48 -80 384 -3
385 -2 45 80 45 80 456 0 456 0 44 -80 44 -80 385 0 385 1 48 83 c39 70 47 92
47 135 l0 51 205 0 c113 0 205 3 205 8 1 37 22 31 300 -82 243 -100 290 -116
339 -116 l56 -1 520 -411 520 -411 3 438 2 438 -458 1086 -459 1086 -47 254
c-26 139 -45 255 -43 257 2 2 23 -3 47 -11 23 -8 43 -15 44 -15 1 0 -93 515
-210 1144 l-212 1143 -66 104 -66 105 -200 1079 c-110 594 -216 1145 -235
1225 -19 80 -51 239 -69 354 -19 114 -36 210 -38 211 -2 1 -115 75 -253 164
l-250 161 -262 0 c-176 0 -263 -3 -263 -10 0 -6 18 -82 39 -168 22 -86 56
-253 75 -371 19 -117 38 -217 43 -221 4 -4 121 -54 258 -110 138 -56 254 -106
258 -110 5 -4 53 -248 108 -541 54 -294 101 -545 104 -559 4 -20 0 -17 -18 12
-26 45 -39 49 -31 11 43 -228 303 -1637 301 -1638 -1 -1 -126 -13 -278 -26
l-277 -24 -8 22 c-5 13 -92 119 -194 237 l-185 215 -42 0 c-28 1 -43 6 -43 14
1 24 -81 983 -86 1005 -4 19 -11 22 -54 22 -28 0 -50 -4 -50 -9 0 -4 -13 -163
-30 -352 -16 -189 -30 -350 -30 -357 0 -8 -33 16 -72 52 l-73 66 -234 0 -234
0 -73 -66 c-41 -36 -74 -60 -74 -52 0 8 -13 166 -30 353 -16 187 -30 345 -30
352 0 9 -16 13 -50 13 -43 0 -50 -3 -54 -22 -5 -22 -87 -980 -86 -1005 0 -9
-15 -13 -42 -13 l-43 -1 -185 -215 c-102 -118 -189 -225 -194 -237 l-8 -23
-277 26 -276 25 3 25 c1 14 70 389 153 834 82 445 148 811 145 813 -2 2 -16
-15 -30 -39 -19 -30 -25 -36 -21 -18 3 14 50 265 105 559 54 293 102 537 107
541 4 5 121 54 258 111 138 56 254 105 258 109 4 4 25 110 46 236 22 126 55
293 75 371 20 78 36 147 36 152 0 8 -86 11 -262 11 l-263 0 -240 -156z m-111
-4912 l-87 -389 -201 94 c-111 52 -213 99 -228 105 -16 5 -28 17 -28 26 1 28
67 372 73 378 7 7 551 181 555 178 2 -1 -36 -178 -84 -392z m2992 303 c147
-46 270 -89 274 -95 13 -21 74 -384 65 -387 -6 -2 -109 -50 -230 -107 -121
-56 -221 -100 -222 -97 -3 7 -173 761 -173 767 0 9 31 0 286 -81z m-3372 -820
c130 -60 236 -114 236 -120 0 -5 -15 -74 -33 -151 l-32 -142 -145 68 c-80 37
-188 87 -241 112 l-96 45 23 129 c30 165 33 176 43 172 5 -2 115 -52 245 -113z
m3811 93 c9 -38 54 -283 52 -283 -3 -1 -471 -218 -478 -221 -6 -3 -73 295 -67
301 6 6 472 224 480 225 4 0 10 -10 13 -22z m-3924 -637 c123 -58 226 -106
227 -107 5 -3 -75 -354 -81 -361 -3 -3 -383 261 -436 304 -5 3 39 253 46 266
6 10 -19 20 244 -102z m4046 -12 c12 -63 22 -123 22 -134 1 -25 -427 -334
-438 -316 -14 21 -83 355 -74 359 4 1 107 49 228 107 121 57 225 102 230 101
6 -2 20 -54 32 -117z"/>
</g>
</svg>
