<?xml version="1.0" standalone="no"?>
<!DOCTYPE svg PUBLIC "-//W3C//DTD SVG 20010904//EN"
 "http://www.w3.org/TR/2001/REC-SVG-20010904/DTD/svg10.dtd">
<svg version="1.0" xmlns="http://www.w3.org/2000/svg"
 width="1024.000000pt" height="1024.000000pt" viewBox="0 0 1024.000000 1024.000000"
 preserveAspectRatio="xMidYMid meet">
<metadata>
Created by potrace 1.16, written by Peter Selinger 2001-2019
</metadata>
<g transform="translate(0.000000,1024.000000) scale(0.100000,-0.100000)"
fill="#000000" stroke="none">
<path d="M4967 9723 c-3 -5 -39 -111 -80 -238 -41 -126 -94 -273 -117 -325
-24 -52 -55 -135 -70 -185 -20 -68 -95 -221 -308 -629 -255 -490 -281 -536
-286 -505 -3 19 -19 243 -36 499 -25 369 -35 479 -51 535 -11 39 -23 78 -25
88 -5 14 -18 17 -84 17 -66 0 -79 -3 -84 -17 -2 -10 -14 -49 -25 -88 -16 -56
-27 -180 -56 -610 l-36 -540 -75 -430 c-41 -237 -74 -456 -74 -487 0 -55 -9
-74 -230 -497 l-230 -441 2 -290 3 -291 378 256 c208 140 380 255 382 255 3 0
5 -154 5 -342 l1 -343 222 -569 222 -570 -82 -285 c-46 -157 -83 -287 -83
-288 0 -2 -54 -3 -120 -3 l-120 0 0 298 0 298 -140 484 c-77 267 -142 489
-143 494 -2 5 -311 -389 -688 -876 -376 -487 -685 -885 -686 -884 -3 3 -33
826 -33 904 l0 52 88 0 89 0 -13 103 c-7 56 -13 108 -14 115 0 8 -23 12 -78
12 l-79 0 -6 113 c-4 61 -7 185 -7 275 l0 162 -55 0 -55 0 0 -275 0 -275 -219
0 -219 0 -5 -32 c-3 -18 -9 -60 -12 -93 -3 -33 -8 -70 -11 -83 -4 -19 0 -22
26 -22 l30 0 0 -442 c0 -244 -7 -576 -15 -738 -8 -162 -15 -355 -15 -428 l0
-132 -275 -356 -275 -356 0 -374 c0 -206 2 -374 5 -374 3 0 127 38 275 84
l270 84 0 -27 c0 -14 33 -89 74 -166 l73 -140 169 -3 169 -2 87 143 87 144 3
128 3 128 655 203 655 203 188 0 c103 1 187 -1 187 -4 0 -3 -138 -280 -306
-616 -168 -336 -303 -613 -301 -615 2 -2 209 65 461 149 l458 153 77 -151 78
-150 654 0 654 0 76 150 77 151 443 -148 c244 -82 452 -151 462 -154 12 -4
-80 189 -293 615 l-310 621 188 0 188 0 659 -204 660 -204 5 -129 5 -129 85
-142 85 -142 170 2 170 3 72 140 c40 77 72 150 73 163 0 12 5 22 11 22 6 0
127 -36 269 -80 142 -44 261 -80 264 -80 3 0 6 168 6 374 l0 374 -275 355
-275 356 0 133 c0 73 -7 264 -15 423 -8 162 -15 488 -15 738 l0 447 31 0 c24
0 29 4 25 18 -2 9 -7 44 -10 77 -4 33 -9 77 -12 98 l-6 37 -219 0 -219 0 0
275 0 275 -55 0 -55 0 0 -162 c0 -90 -3 -214 -7 -275 l-6 -113 -79 0 c-43 0
-78 -4 -78 -9 0 -12 -19 -157 -25 -193 l-4 -28 89 0 90 0 0 -52 c0 -78 -30
-901 -33 -904 -1 -1 -310 396 -686 884 -377 487 -686 881 -688 876 -1 -5 -66
-227 -143 -492 l-140 -484 0 -299 0 -299 -120 0 -119 0 -20 68 c-96 329 -141
488 -141 503 0 9 99 271 220 580 l220 564 0 343 c0 188 2 342 4 342 2 0 174
-115 382 -255 l379 -256 3 289 2 289 -230 441 c-221 424 -230 443 -230 498 0
31 -33 251 -74 488 l-75 431 -35 535 c-33 488 -39 543 -63 628 l-26 92 -79 0
c-43 0 -78 -1 -78 -3 0 -2 -11 -40 -24 -85 -22 -71 -28 -138 -56 -554 -17
-260 -34 -485 -38 -500 -6 -23 -46 48 -289 515 -182 350 -288 565 -299 607
-10 36 -40 117 -67 180 -27 63 -84 221 -126 350 l-77 235 -151 3 c-83 1 -154
-1 -156 -5z m-2877 -6035 c0 -456 -1 -488 -22 -595 -12 -62 -25 -113 -28 -113
-3 0 -40 55 -82 122 l-78 122 0 473 0 473 105 0 105 0 0 -482z m6270 10 l0
-471 -77 -123 c-43 -68 -80 -123 -83 -124 -3 0 -16 51 -28 113 -21 107 -22
139 -22 595 l0 482 105 0 105 0 0 -472z"/>
</g>
</svg>
