<?xml version="1.0" standalone="no"?>
<!DOCTYPE svg PUBLIC "-//W3C//DTD SVG 20010904//EN"
 "http://www.w3.org/TR/2001/REC-SVG-20010904/DTD/svg10.dtd">
<svg version="1.0" xmlns="http://www.w3.org/2000/svg"
 width="1024.000000pt" height="1024.000000pt" viewBox="0 0 1024.000000 1024.000000"
 preserveAspectRatio="xMidYMid meet">
<metadata>
Created by potrace 1.16, written by Peter Selinger 2001-2019
</metadata>
<g transform="translate(0.000000,1024.000000) scale(0.100000,-0.100000)"
fill="#000000" stroke="none">
<path d="M4928 9593 l-95 -138 -138 -395 -137 -395 -37 -285 -38 -285 -6 280
c-20 847 -24 925 -50 1005 l-24 75 -96 3 -96 3 -27 -88 c-26 -86 -27 -98 -34
-433 -5 -190 -14 -698 -21 -1130 l-12 -785 -48 -140 -49 -140 0 -541 c0 -356
4 -551 11 -572 9 -27 3 -45 -60 -183 l-70 -154 -73 -7 c-116 -11 -1388 -62
-1394 -55 -3 3 -22 99 -41 214 -22 125 -41 212 -49 219 -8 6 -14 30 -14 54 0
24 -9 73 -20 110 -11 37 -22 80 -24 96 -2 16 -13 73 -26 127 l-22 97 -84 0
-84 0 0 104 c0 89 4 113 25 163 l25 58 -23 135 -23 135 -97 3 c-93 3 -97 2
-101 -20 -3 -13 -15 -74 -26 -137 l-20 -115 25 -54 c22 -47 25 -68 25 -163 l0
-109 -83 0 -83 0 -22 -92 c-12 -51 -24 -110 -27 -130 -4 -20 -15 -67 -26 -105
-10 -37 -19 -85 -19 -107 0 -21 -6 -44 -13 -50 -9 -7 -31 -113 -57 -270 -24
-142 -49 -264 -55 -270 -9 -8 -86 -469 -85 -508 0 -5 -21 -8 -46 -8 -37 0 -56
-7 -100 -37 l-54 -38 0 -497 0 -497 53 -41 c47 -35 60 -40 108 -40 l54 0 38
-88 c35 -84 37 -92 37 -199 l0 -112 48 -55 47 -55 381 -1 380 0 47 54 47 55 1
113 c0 109 2 116 38 198 l38 85 55 5 c41 4 68 14 106 40 l51 35 1 98 c0 53 2
97 5 97 3 0 1459 -1043 1543 -1105 2 -2 19 -47 39 -101 28 -80 41 -140 63
-309 l28 -210 -224 -740 c-123 -407 -223 -742 -222 -746 2 -4 129 112 283 257
292 275 292 275 294 202 1 -14 23 -64 49 -110 l48 -83 475 -2 474 -3 48 85
c26 47 47 97 48 112 2 74 2 73 294 -201 154 -145 281 -263 283 -261 2 2 -98
338 -221 747 l-225 743 27 205 c22 168 34 224 65 310 l37 105 766 550 c420
303 769 552 774 553 5 2 9 -40 9 -95 l0 -98 51 -35 c39 -26 65 -36 107 -40
l56 -5 38 -85 c36 -82 37 -89 38 -198 l0 -113 48 -55 47 -54 380 0 381 0 47
56 47 56 0 112 c0 106 2 114 38 196 l38 85 54 5 c41 4 69 14 107 40 l53 35 -3
500 -2 499 -50 38 c-42 31 -58 38 -97 38 -27 0 -48 3 -48 8 1 42 -76 499 -85
507 -7 6 -32 126 -56 269 -23 142 -49 264 -56 272 -7 7 -13 30 -13 51 0 21 -9
70 -20 108 -12 39 -23 84 -25 100 -2 17 -14 74 -26 128 l-22 97 -84 0 -83 0 0
105 c0 90 4 114 24 164 l25 58 -20 114 c-11 63 -22 124 -25 137 -4 22 -8 23
-101 20 l-97 -3 -23 -135 -24 -135 26 -56 c22 -49 25 -71 25 -163 l0 -106 -84
0 -84 0 -23 -97 c-12 -54 -24 -111 -25 -127 -2 -16 -13 -59 -24 -96 -11 -37
-20 -86 -20 -110 0 -24 -6 -48 -14 -54 -8 -7 -27 -91 -49 -219 -20 -115 -38
-211 -41 -214 -6 -6 -1277 44 -1395 55 l-73 7 -70 153 c-64 139 -69 155 -59
184 7 21 11 207 11 569 l0 538 -48 143 -49 143 -17 1080 c-10 594 -21 1109
-26 1145 -4 36 -17 98 -29 138 l-22 72 -97 0 -97 0 -24 -82 c-25 -89 -29 -161
-48 -1003 l-6 -290 -36 285 -37 285 -139 400 -139 400 -95 138 -95 137 -97 0
-96 0 -95 -137z m-3048 -3793 l0 -130 -45 0 -45 0 0 130 0 130 45 0 45 0 0
-130z m280 98 c0 -18 3 -77 7 -130 l6 -98 -51 0 -52 0 0 130 0 130 45 0 c44 0
45 -1 45 -32z m6010 -98 l0 -130 -50 0 c-58 0 -55 -11 -43 163 l6 97 44 0 43
0 0 -130z m280 0 l0 -130 -45 0 -45 0 0 130 0 130 45 0 45 0 0 -130z"/>
</g>
</svg>
