<?xml version="1.0" standalone="no"?>
<!DOCTYPE svg PUBLIC "-//W3C//DTD SVG 20010904//EN"
 "http://www.w3.org/TR/2001/REC-SVG-20010904/DTD/svg10.dtd">
<svg version="1.0" xmlns="http://www.w3.org/2000/svg"
 width="1024.000000pt" height="1024.000000pt" viewBox="0 0 1024.000000 1024.000000"
 preserveAspectRatio="xMidYMid meet">
<metadata>
Created by potrace 1.16, written by Peter Selinger 2001-2019
</metadata>
<g transform="translate(0.000000,1024.000000) scale(0.100000,-0.100000)"
fill="#000000" stroke="none">
<path d="M5006 9643 c-35 -85 -38 -101 -81 -469 l-45 -382 -99 -229 -100 -229
-115 -794 -115 -795 -260 -462 -261 -461 0 -411 c0 -407 0 -410 -22 -448 l-23
-38 -2 40 c-2 22 -16 350 -33 728 -27 614 -35 726 -70 1035 -22 191 -48 379
-58 417 l-18 70 -146 3 -146 3 -86 -94 c-55 -61 -167 -212 -311 -422 l-226
-327 -204 -838 c-184 -752 -205 -846 -205 -921 l0 -84 -142 -303 c-141 -298
-143 -303 -160 -281 -10 11 -18 36 -18 54 0 19 -20 92 -45 163 l-45 129 0 834
0 834 -50 285 c-27 157 -50 288 -50 293 0 4 -45 7 -100 7 -95 0 -100 -1 -105
-22 -2 -13 -25 -141 -50 -285 l-45 -261 0 -839 0 -838 -50 -143 c-28 -79 -50
-155 -50 -170 0 -19 -33 -74 -105 -174 l-105 -147 0 -476 0 -477 105 -148 c61
-86 105 -159 105 -172 0 -41 102 -328 116 -328 8 0 14 -7 14 -16 0 -8 5 -12
10 -9 5 3 10 -1 10 -9 0 -14 21 -16 150 -16 l150 0 0 25 c0 19 5 25 23 25 19
0 27 13 57 101 l35 101 168 89 c92 49 171 89 175 89 4 0 39 -123 78 -273 70
-272 70 -272 99 -277 29 -5 29 -5 52 -140 15 -91 30 -271 47 -553 l24 -417 49
-140 48 -140 390 0 390 0 48 138 49 137 24 420 c29 494 42 581 145 976 l69
267 0 244 0 243 78 78 c42 42 80 77 84 77 15 0 33 -153 143 -1185 l115 -1080
51 -158 52 -158 150 3 150 3 47 140 c42 122 50 160 64 300 10 88 20 175 23
193 l5 32 268 0 268 0 6 -37 c3 -21 13 -105 22 -188 15 -147 27 -197 86 -362
l30 -83 148 0 147 0 47 133 47 132 124 1135 c69 624 127 1145 131 1157 3 13 9
23 13 23 4 0 41 -35 84 -78 l77 -77 0 -243 0 -243 70 -267 c101 -389 115 -481
144 -975 l24 -417 49 -140 48 -140 390 0 390 0 48 137 48 138 24 415 c22 362
46 600 71 682 3 9 17 18 32 20 26 3 28 7 97 275 38 150 72 273 75 273 3 0 82
-40 175 -89 l170 -90 35 -98 c29 -81 39 -99 58 -101 16 -3 22 -10 22 -28 l0
-24 150 0 c100 0 150 4 150 11 0 13 25 39 38 39 12 0 112 290 112 325 0 18 35
75 105 173 l105 147 0 477 0 477 -105 148 c-71 99 -105 156 -105 174 0 15 -22
91 -50 169 l-50 142 0 836 0 837 -40 235 c-22 129 -45 259 -51 288 l-10 52
-100 0 c-54 0 -99 -3 -99 -6 0 -3 -23 -134 -50 -292 l-50 -287 0 -830 0 -831
-45 -134 c-25 -74 -45 -148 -45 -166 0 -17 -8 -42 -18 -54 -17 -22 -19 -18
-160 279 l-142 301 0 85 c0 77 -20 168 -205 924 l-205 839 -226 328 c-143 208
-258 363 -311 422 l-85 92 -146 0 -147 0 -23 -103 c-49 -220 -90 -692 -122
-1417 -16 -371 -31 -697 -32 -725 l-3 -50 -22 36 c-23 36 -23 39 -23 448 l0
411 -261 462 -261 462 -114 793 -115 794 -100 230 -100 231 -45 381 c-43 371
-46 385 -81 470 l-37 87 -77 0 -76 0 -37 -87z m-3538 -6704 l-3 -263 -52 80
-53 80 0 357 0 357 53 79 52 79 3 -253 c1 -140 1 -372 0 -516z m7412 254 l0
-357 -51 -78 c-28 -43 -53 -78 -55 -78 -2 0 -4 233 -4 517 l0 518 55 -82 55
-82 0 -358z"/>
</g>
</svg>
