<?xml version="1.0" standalone="no"?>
<!DOCTYPE svg PUBLIC "-//W3C//DTD SVG 20010904//EN"
 "http://www.w3.org/TR/2001/REC-SVG-20010904/DTD/svg10.dtd">
<svg version="1.0" xmlns="http://www.w3.org/2000/svg"
 width="1024.000000pt" height="1024.000000pt" viewBox="0 0 1024.000000 1024.000000"
 preserveAspectRatio="xMidYMid meet">
<metadata>
Created by potrace 1.16, written by Peter Selinger 2001-2019
</metadata>
<g transform="translate(0.000000,1024.000000) scale(0.100000,-0.100000)"
fill="#000000" stroke="none">
<path d="M3660 9710 c0 -11 -9 -124 -20 -252 -11 -128 -47 -647 -80 -1153
l-60 -920 -60 -230 -60 -230 19 -55 c10 -30 37 -105 59 -166 l41 -112 -50 -68
-49 -68 0 -939 0 -938 180 -244 180 -244 0 -106 c0 -58 -4 -105 -9 -105 -5 0
-53 -52 -107 -115 l-99 -115 -130 0 -130 0 -49 -337 c-27 -186 -51 -344 -53
-351 -4 -8 -30 -12 -84 -12 l-79 0 0 585 0 585 -50 0 c-43 0 -50 -3 -55 -22
-2 -13 -56 -437 -119 -943 l-115 -920 -230 -575 -231 -575 0 -237 c0 -131 2
-238 5 -238 3 0 109 52 235 115 l230 115 165 0 165 0 0 115 0 115 45 0 45 0 0
-230 c0 -126 3 -230 8 -230 4 0 66 103 138 228 123 213 133 227 162 230 29 3
31 1 38 -44 4 -26 24 -78 46 -115 l40 -69 408 0 409 0 27 45 c14 25 30 45 35
45 5 0 45 -21 89 -46 l80 -47 0 -69 c0 -60 6 -83 41 -164 l42 -94 449 2 450 3
38 90 c33 76 39 101 40 162 l0 71 87 50 87 50 28 -49 28 -49 410 0 409 0 40
68 c22 38 42 88 46 115 7 46 9 48 38 45 29 -3 39 -17 162 -230 71 -125 133
-228 138 -228 4 0 7 104 7 230 l0 230 45 0 45 0 0 -115 0 -115 160 0 160 0
240 -120 240 -120 0 243 0 242 -231 575 -231 575 -114 910 c-62 501 -116 925
-119 943 -6 31 -7 32 -55 32 l-50 0 0 -585 0 -586 -82 3 -82 3 -51 347 -50
348 -130 0 -130 0 -99 115 c-54 63 -102 115 -107 115 -5 0 -9 47 -9 105 l0
105 180 244 180 244 0 940 0 939 -50 66 -49 65 60 166 60 165 -61 233 -61 233
-59 915 c-33 503 -69 1031 -81 1173 l-22 257 -144 0 -143 0 0 -115 0 -115 -62
0 -63 0 -42 -124 -43 -124 0 -818 c0 -813 0 -818 -22 -885 -17 -54 -24 -66
-35 -57 -10 8 -13 1 -13 -37 0 -41 -16 -80 -124 -289 -69 -134 -138 -254 -154
-269 l-30 -29 -11 54 c-6 29 -17 93 -25 142 -9 48 -21 96 -28 105 -7 8 -53 62
-102 118 l-88 103 -59 225 -59 225 -1 708 0 707 -42 120 -43 120 -124 3 -125
3 -43 -128 -42 -128 0 -701 0 -701 -59 -227 -60 -227 -88 -102 c-48 -56 -94
-109 -101 -118 -7 -9 -23 -76 -36 -148 -13 -72 -26 -134 -30 -138 -16 -17 -72
68 -181 277 -101 193 -118 233 -123 283 -3 43 -7 55 -16 48 -9 -8 -18 8 -34
58 -22 67 -22 72 -23 887 l0 819 -42 120 -42 120 -62 3 -63 3 0 114 0 115
-145 0 c-138 0 -145 -1 -145 -20z"/>
</g>
</svg>
