<?xml version="1.0" standalone="no"?>
<!DOCTYPE svg PUBLIC "-//W3C//DTD SVG 20010904//EN"
 "http://www.w3.org/TR/2001/REC-SVG-20010904/DTD/svg10.dtd">
<svg version="1.0" xmlns="http://www.w3.org/2000/svg"
 width="1024.000000pt" height="1024.000000pt" viewBox="0 0 1024.000000 1024.000000"
 preserveAspectRatio="xMidYMid meet">
<metadata>
Created by potrace 1.16, written by Peter Selinger 2001-2019
</metadata>
<g transform="translate(0.000000,1024.000000) scale(0.100000,-0.100000)"
fill="#000000" stroke="none">
<path d="M2931 9713 c-5 -10 -25 -57 -45 -106 l-36 -87 0 -513 c0 -444 2 -520
16 -560 14 -42 19 -47 45 -47 l30 0 -6 -1052 c-3 -579 -8 -1171 -11 -1315 l-6
-262 -107 -36 c-58 -19 -109 -35 -114 -35 -4 0 -7 628 -7 1395 l0 1395 -65 0
c-59 0 -65 -2 -70 -22 -2 -13 -99 -570 -215 -1238 -116 -668 -244 -1393 -285
-1610 -41 -217 -119 -663 -175 -991 -97 -576 -100 -601 -98 -729 l3 -132 95
68 c52 37 236 161 407 275 291 195 316 209 358 209 l45 0 2 271 3 271 109 39
c60 22 111 37 114 35 2 -3 1 -226 -3 -496 l-8 -491 -103 -97 -104 -97 0 -385
0 -385 -85 -85 -85 -84 -2 364 -3 365 -44 0 -44 0 -413 -1185 -413 -1185 0
-332 c-1 -183 1 -333 3 -333 2 0 186 114 408 252 356 224 409 253 453 258 l50
5 5 188 5 189 68 28 c37 16 67 26 67 23 0 -3 -18 -26 -41 -50 -26 -28 -38 -50
-35 -61 57 -181 108 -383 122 -480 l18 -122 325 2 326 3 17 120 c9 68 40 200
71 306 l54 186 -54 62 -53 62 0 153 0 154 28 11 c18 8 95 11 231 9 l204 -3
101 -162 101 -163 193 0 192 0 0 -200 0 -200 55 -110 55 -110 540 0 539 0 55
108 56 107 0 203 0 202 193 0 192 0 103 165 103 165 198 0 c118 0 211 -4 230
-11 l31 -11 0 -153 0 -154 -53 -62 -54 -62 54 -182 c31 -108 60 -234 71 -306
l17 -124 328 -3 c209 -1 327 1 327 8 0 57 41 260 82 405 28 99 53 185 55 192
3 6 -14 32 -36 56 -23 24 -41 47 -41 50 0 3 31 -8 70 -25 l70 -31 2 -186 3
-186 50 -5 c44 -5 99 -36 452 -258 222 -139 405 -252 408 -252 3 0 5 148 5
328 l0 328 -414 1190 -413 1189 -44 0 -44 0 -3 -365 -2 -364 -85 84 -85 85 0
385 0 385 -104 97 -103 97 -8 491 c-4 270 -6 493 -4 495 2 2 54 -14 114 -35
l110 -37 3 -272 2 -271 45 0 c42 0 66 -14 347 -201 165 -111 348 -235 405
-275 57 -41 106 -74 108 -74 3 0 5 59 5 132 0 120 -8 181 -101 727 -55 328
-131 760 -169 961 -38 201 -164 912 -280 1580 -116 668 -215 1239 -221 1268
l-10 52 -65 0 -64 0 0 -1395 c0 -767 -3 -1395 -7 -1395 -5 0 -56 16 -114 35
l-107 36 -6 262 c-3 144 -8 736 -11 1315 l-6 1052 30 0 c26 0 31 5 45 47 14
40 16 116 16 562 l-1 516 -43 100 -43 100 -120 3 -120 3 -47 -108 -46 -108 0
-510 c1 -457 3 -515 18 -555 14 -36 23 -46 45 -48 l27 -3 -1 -602 c-1 -331 -5
-882 -8 -1224 l-6 -621 -330 290 c-181 159 -349 313 -372 341 -30 38 -145 272
-429 880 -375 801 -388 827 -415 827 -30 0 -22 -19 -97 234 -26 85 -30 91 -82
133 l-55 43 -145 0 -145 0 -55 -43 -55 -43 -49 -162 c-47 -156 -50 -162 -76
-162 -21 0 -30 -9 -49 -47 -13 -27 -188 -399 -388 -828 -250 -535 -377 -795
-405 -830 -22 -27 -189 -181 -371 -342 l-332 -291 -6 621 c-3 342 -7 893 -8
1224 l-1 602 27 3 c22 2 31 12 45 48 15 40 17 98 17 553 l1 508 -47 109 -46
110 -118 0 c-102 0 -120 -2 -128 -17z m977 -4275 c22 -29 102 -118 176 -198
l136 -144 0 -548 0 -548 -67 0 -68 -1 -100 -162 -101 -162 -208 -5 -208 -5
-24 -45 -23 -45 -1 85 0 85 -110 110 -110 110 0 560 1 560 322 202 c177 111
327 202 333 203 7 0 30 -24 52 -52z m2810 -153 l321 -200 1 -560 0 -560 -110
-110 -110 -110 0 -90 0 -90 -25 52 -24 53 -208 2 -207 3 -101 162 -100 162
-67 1 -68 0 0 548 0 548 136 144 c74 80 154 169 176 198 23 29 47 52 53 50 7
-2 157 -93 333 -203z"/>
</g>
</svg>
