<?xml version="1.0" standalone="no"?>
<!DOCTYPE svg PUBLIC "-//W3C//DTD SVG 20010904//EN"
 "http://www.w3.org/TR/2001/REC-SVG-20010904/DTD/svg10.dtd">
<svg version="1.0" xmlns="http://www.w3.org/2000/svg"
 width="1024.000000pt" height="1024.000000pt" viewBox="0 0 1024.000000 1024.000000"
 preserveAspectRatio="xMidYMid meet">
<metadata>
Created by potrace 1.16, written by Peter Selinger 2001-2019
</metadata>
<g transform="translate(0.000000,1024.000000) scale(0.100000,-0.100000)"
fill="#000000" stroke="none">
<path d="M3458 9640 c-42 -50 -79 -102 -82 -118 -3 -15 -75 -459 -160 -987
l-154 -960 -97 -1520 -96 -1520 -126 -540 c-69 -297 -127 -542 -129 -544 -3
-3 -20 11 -39 29 l-35 34 0 891 0 891 35 104 35 104 0 603 0 603 -50 100 -50
100 -108 0 -109 0 -51 -99 -52 -98 0 -600 0 -599 35 -104 35 -104 0 -896 0
-897 -105 -102 -105 -102 0 -120 c0 -65 -1 -119 -2 -120 -2 0 -165 -13 -363
-27 l-360 -27 -3 -281 -2 -282 454 -326 c258 -185 453 -332 451 -339 -2 -7
-29 -119 -60 -250 l-55 -237 0 -390 c0 -241 4 -390 10 -390 5 0 174 176 376
390 202 215 370 390 373 390 3 0 49 -61 101 -136 94 -135 95 -135 112 -114 17
21 18 17 18 -119 l0 -142 123 -79 122 -80 175 0 175 0 20 -57 20 -58 387 -3
386 -2 7 30 c10 44 20 45 52 5 l28 -35 525 0 525 0 28 35 c32 40 42 39 52 -5
l7 -30 387 0 388 0 18 60 18 60 176 0 175 0 123 81 123 82 0 141 c0 137 1 140
18 118 l18 -23 94 135 c52 74 98 135 101 136 3 0 174 -179 380 -397 l374 -398
3 396 2 396 -59 249 c-57 239 -58 250 -41 265 10 8 214 156 454 329 l436 313
-2 281 -3 281 -360 27 c-198 15 -361 27 -362 27 -2 1 -3 55 -3 121 l0 120
-105 101 -105 102 0 898 0 898 35 98 35 98 0 603 0 604 -52 99 -53 99 -107 0
-107 0 -50 -97 -51 -98 0 -607 0 -606 35 -101 35 -100 0 -894 0 -893 -37 -36
-38 -37 -127 547 -127 547 -96 1515 -96 1515 -155 965 c-85 531 -159 979 -164
997 -4 17 -41 70 -81 117 l-74 86 -81 0 -80 0 -116 -199 -116 -200 -56 -588
-56 -588 0 -1662 0 -1663 -128 0 -129 0 -12 -147 c-6 -82 -14 -181 -18 -220
l-6 -73 -121 -140 -122 -141 -17 -107 c-13 -78 -17 -174 -18 -352 l-1 -245
-24 135 c-31 180 -26 167 -84 240 -36 47 -50 74 -50 97 0 18 -37 118 -86 230
l-86 198 -34 289 c-19 159 -34 295 -34 303 0 10 -24 13 -110 13 -81 0 -110 -3
-110 -12 0 -7 -16 -143 -34 -303 l-34 -290 -86 -197 c-51 -115 -86 -210 -86
-229 0 -24 -14 -51 -54 -103 l-53 -71 -24 -145 -24 -145 -6 270 c-3 158 -11
302 -19 347 l-13 77 -124 142 c-71 82 -123 151 -123 163 0 12 -7 98 -15 191
-8 94 -15 182 -15 198 l0 27 -130 0 -130 0 0 1661 0 1660 -55 587 -56 587 -66
115 c-37 63 -89 154 -117 203 l-50 87 -81 0 -80 0 -77 -90z"/>
</g>
</svg>
