<?xml version="1.0" standalone="no"?>
<!DOCTYPE svg PUBLIC "-//W3C//DTD SVG 20010904//EN"
 "http://www.w3.org/TR/2001/REC-SVG-20010904/DTD/svg10.dtd">
<svg version="1.0" xmlns="http://www.w3.org/2000/svg"
 width="1024.000000pt" height="1024.000000pt" viewBox="0 0 1024.000000 1024.000000"
 preserveAspectRatio="xMidYMid meet">
<metadata>
Created by potrace 1.16, written by Peter Selinger 2001-2019
</metadata>
<g transform="translate(0.000000,1024.000000) scale(0.100000,-0.100000)"
fill="#000000" stroke="none">
<path d="M3500 9693 c-7 -21 -24 -177 -40 -348 -28 -309 -28 -310 -65 -397
-28 -65 -43 -88 -56 -88 -18 0 -19 -57 -19 -1865 0 -1858 0 -1865 20 -1865 20
0 20 -7 20 -475 l0 -476 -72 52 c-40 28 -184 128 -320 222 l-247 172 -1 343 0
344 -81 154 -81 154 -134 0 -134 0 0 -600 0 -600 -55 0 -55 0 0 600 0 600
-132 0 -133 0 -77 -150 -78 -149 0 -128 0 -128 -175 -253 -175 -252 0 -746 0
-745 175 -252 175 -252 -1 -125 0 -125 78 -152 78 -153 133 0 132 0 0 600 0
600 55 0 55 0 0 -600 0 -601 137 3 137 3 77 150 78 150 3 93 3 93 317 -222
318 -222 0 -116 0 -116 225 -317 225 -317 0 -133 c0 -133 0 -135 45 -263 25
-72 60 -165 77 -208 l32 -77 316 0 317 0 41 103 c22 56 52 138 66 182 l26 80
376 -3 c241 -2 380 1 388 7 9 8 18 -8 35 -62 13 -40 44 -125 69 -189 l46 -118
317 0 316 0 26 63 c15 34 49 127 77 205 l50 144 0 134 0 134 225 317 225 318
0 116 0 116 318 222 317 222 5 -98 5 -98 78 -147 78 -148 135 0 134 0 0 600 0
600 55 0 55 0 0 -600 0 -600 133 0 132 0 78 149 77 149 0 127 0 127 175 253
175 253 0 745 0 744 -175 254 -175 253 0 126 0 125 -77 152 -78 153 -132 0
-133 0 0 -600 0 -600 -55 0 -55 0 -2 598 -3 597 -134 0 -133 0 -79 -150 -79
-150 0 -345 -1 -345 -236 -165 c-131 -91 -275 -191 -320 -223 l-83 -58 0 475
c0 469 0 476 20 476 20 0 20 7 20 1865 0 1819 0 1865 -19 1865 -14 0 -28 22
-56 87 -38 88 -38 89 -66 398 -15 170 -33 327 -40 348 l-12 37 -107 0 -107 0
-12 -37 c-6 -21 -23 -173 -37 -338 l-25 -300 -40 -95 -39 -95 -2 -1007 -3
-1007 -227 325 -228 325 0 176 c0 160 -2 182 -26 261 -26 85 -27 86 -188 271
-89 102 -171 200 -183 216 -15 21 -45 134 -98 365 -42 184 -88 383 -102 443
l-25 107 -159 0 c-156 0 -159 0 -164 -22 -3 -13 -50 -216 -104 -451 -71 -308
-104 -434 -118 -450 -11 -12 -93 -106 -182 -209 -160 -186 -162 -189 -186
-270 -22 -74 -25 -103 -25 -259 l0 -176 -227 -325 -228 -325 -5 1016 -5 1016
-36 80 c-36 80 -37 81 -58 350 -12 149 -29 303 -37 343 l-15 72 -109 0 -109 0
-11 -37z m2860 -4043 l0 -485 -31 48 c-25 37 -37 47 -59 47 -22 0 -58 33 -198
180 l-172 179 0 587 0 587 230 -329 230 -328 0 -486z m-2020 550 l0 -581 -172
-179 c-140 -147 -176 -180 -198 -180 -22 0 -34 -10 -59 -47 l-31 -48 0 485 0
485 226 323 c124 177 228 322 230 322 2 0 4 -261 4 -580z m-2580 -1640 l0
-140 -30 0 -30 0 0 -605 0 -605 30 0 30 0 -1 -142 0 -143 -64 125 -64 125 0
632 -1 632 62 130 c33 72 63 131 65 131 1 0 3 -63 3 -140z m6849 -745 l0 -640
-64 -125 -64 -125 0 143 -1 142 30 0 30 0 0 605 0 605 -30 0 -30 0 1 143 0
142 64 -125 64 -125 0 -640z"/>
</g>
</svg>
