<?xml version="1.0" standalone="no"?>
<!DOCTYPE svg PUBLIC "-//W3C//DTD SVG 20010904//EN"
 "http://www.w3.org/TR/2001/REC-SVG-20010904/DTD/svg10.dtd">
<svg version="1.0" xmlns="http://www.w3.org/2000/svg"
 width="1024.000000pt" height="1024.000000pt" viewBox="0 0 1024.000000 1024.000000"
 preserveAspectRatio="xMidYMid meet">
<metadata>
Created by potrace 1.16, written by Peter Selinger 2001-2019
</metadata>
<g transform="translate(0.000000,1024.000000) scale(0.100000,-0.100000)"
fill="#000000" stroke="none">
<path d="M4568 8648 l-136 -1083 -1 445 c-2 438 -2 446 -25 505 l-23 60 -128
0 -128 0 -24 -69 -23 -70 0 -651 0 -651 -30 -29 c-22 -21 -31 -25 -35 -14 -2
8 -138 437 -300 954 -163 517 -299 947 -303 955 -4 9 -7 2 -9 -20 -5 -60 -183
-3218 -183 -3250 l0 -30 -79 0 -79 0 -26 -78 -26 -77 0 -646 c0 -726 4 -685
-70 -655 l-40 16 0 -70 0 -70 -55 0 -55 0 0 1305 c0 718 -4 1305 -8 1305 -4 0
-25 -18 -46 -39 l-38 -39 -214 -898 -214 -899 0 -1036 0 -1036 217 43 217 44
43 42 43 42 0 288 0 288 75 0 c74 0 75 0 75 -26 0 -16 15 -45 35 -70 l35 -42
0 -644 0 -643 26 -77 26 -78 108 0 109 0 5 -32 c3 -18 31 -307 62 -643 31
-335 59 -612 62 -615 2 -3 6 0 9 5 2 6 173 361 381 790 l377 780 43 3 42 3 0
87 c1 71 5 95 24 131 l23 44 6 -174 c4 -96 7 -350 7 -565 l0 -391 125 -216
125 -216 0 -144 c0 -124 3 -153 23 -213 l24 -69 502 0 503 0 24 64 c21 56 24
80 24 211 l0 148 125 217 125 216 0 382 c0 210 3 467 7 571 l6 189 24 -53 c18
-41 23 -70 23 -136 l0 -84 43 0 42 -1 379 -787 c409 -847 384 -797 390 -791 2
2 29 279 60 614 31 336 59 625 62 643 l5 32 109 0 108 0 26 78 26 77 0 643 0
644 35 42 c20 25 35 54 35 70 0 26 1 26 75 26 l75 0 0 -288 0 -288 43 -42 43
-42 217 -44 217 -43 0 1034 0 1034 -215 902 -214 901 -46 45 -45 46 0 -1313 0
-1312 -55 0 -55 0 0 69 0 69 -40 -15 c-74 -30 -70 -71 -70 656 l0 646 -27 78
-26 77 -79 0 -78 0 0 28 c0 15 -40 743 -90 1617 -49 875 -90 1605 -90 1623 0
17 -3 32 -7 32 -5 0 -143 -429 -307 -953 -165 -523 -301 -956 -304 -960 -2 -5
-17 4 -33 19 l-29 28 0 651 0 651 -23 70 -24 69 -129 3 -130 3 -22 -69 c-21
-66 -22 -84 -23 -513 -1 -406 -2 -436 -14 -349 -7 52 -68 542 -136 1088 l-123
992 -416 0 -416 0 -136 -1082z m872 785 c0 -5 7 -55 15 -113 8 -58 15 -117 15
-132 l0 -28 -350 0 -350 0 0 28 c0 15 7 74 15 132 8 58 15 108 15 113 0 4 144
7 320 7 176 0 320 -3 320 -7z m74 -595 c3 -13 10 -66 16 -118 6 -52 13 -105
16 -117 3 -18 0 -23 -15 -23 -19 0 -30 25 -31 65 0 14 -21 32 -73 62 l-72 42
-3 -84 -3 -85 -229 0 -229 0 -3 85 -3 84 -72 -42 c-52 -30 -73 -48 -73 -62 -1
-39 -12 -65 -29 -65 -16 0 -16 8 0 138 10 75 18 138 19 140 0 1 175 2 390 2
l390 0 4 -22z m-824 -575 c-2 -72 -159 -1246 -168 -1255 -9 -9 -12 0 -12 37 0
46 136 1195 145 1223 6 19 35 14 35 -5z m660 -353 c0 -203 -2 -370 -5 -370
-13 0 -26 50 -49 181 -13 79 -35 173 -48 209 l-23 65 -105 3 -106 3 -26 -83
c-14 -46 -36 -143 -49 -216 -12 -72 -28 -140 -35 -150 -11 -14 -13 44 -14 356
l0 372 230 0 230 0 0 -370z m307 -210 c72 -574 85 -716 61 -692 -9 9 -167
1189 -168 1255 0 12 6 17 17 15 15 -3 27 -76 90 -578z m-1417 -3292 c0 -167 3
-333 7 -370 l6 -68 -146 0 c-136 0 -147 -1 -160 -21 -15 -20 -17 -20 -214 61
-307 127 -293 120 -293 143 0 11 -16 39 -35 63 -32 39 -35 48 -35 109 0 63 1
65 20 55 17 -9 89 18 428 159 224 93 410 170 415 170 4 1 7 -135 7 -301z
m2185 128 c335 -139 404 -165 423 -156 22 9 22 8 22 -56 0 -60 -3 -69 -34
-107 -19 -23 -36 -52 -38 -65 -3 -20 -35 -37 -247 -125 l-244 -101 -15 22
c-14 21 -21 22 -160 22 l-145 0 6 68 c4 37 7 204 7 371 0 238 3 302 13 298 6
-3 192 -80 412 -171z m-1247 -576 l52 -131 0 -864 0 -865 -110 0 -110 0 0 862
0 863 53 132 c28 73 55 133 58 133 3 0 29 -59 57 -130z"/>
</g>
</svg>
