<?xml version="1.0" standalone="no"?>
<!DOCTYPE svg PUBLIC "-//W3C//DTD SVG 20010904//EN"
 "http://www.w3.org/TR/2001/REC-SVG-20010904/DTD/svg10.dtd">
<svg version="1.0" xmlns="http://www.w3.org/2000/svg"
 width="1024.000000pt" height="1024.000000pt" viewBox="0 0 1024.000000 1024.000000"
 preserveAspectRatio="xMidYMid meet">
<metadata>
Created by potrace 1.16, written by Peter Selinger 2001-2019
</metadata>
<g transform="translate(0.000000,1024.000000) scale(0.100000,-0.100000)"
fill="#000000" stroke="none">
<path d="M1405 9718 c-2 -7 -18 -71 -34 -141 -24 -99 -31 -152 -31 -229 l0
-101 -53 -66 c-29 -36 -60 -83 -70 -103 l-17 -38 -87 0 -88 0 -207 -300 -208
-300 0 -410 0 -410 170 0 170 0 0 -95 0 -95 -175 0 -175 0 0 -254 0 -254 195
-256 196 -256 489 0 489 0 402 -577 c222 -318 411 -590 421 -604 11 -14 38
-90 61 -170 l43 -144 242 -362 c201 -301 242 -369 242 -398 0 -29 -18 -58
-115 -181 l-115 -146 0 -446 0 -447 115 -145 c92 -117 115 -151 115 -177 0
-28 6 -36 42 -54 23 -12 51 -32 61 -46 18 -22 21 -23 36 -9 21 19 55 21 48 4
-3 -7 -197 -449 -432 -983 -235 -533 -430 -980 -432 -992 -4 -18 143 68 708
413 393 240 719 439 726 441 8 3 13 -3 13 -13 0 -11 32 -65 71 -121 l72 -103
382 0 383 0 20 27 c19 26 20 27 26 5 9 -28 23 -28 32 0 6 22 7 21 26 -5 l20
-27 383 0 384 0 70 103 c39 56 71 110 71 120 0 9 2 17 6 17 3 0 329 -198 726
-440 396 -243 722 -440 723 -438 1 2 -195 452 -436 1002 -242 549 -439 1000
-439 1002 0 13 49 1 55 -13 6 -16 9 -15 30 9 12 14 41 36 64 47 35 18 41 26
41 54 1 25 24 61 115 177 l115 145 0 447 0 446 -115 146 c-94 119 -115 151
-115 178 0 26 49 107 244 399 l245 367 36 133 c21 74 44 145 53 159 8 14 199
289 425 612 l409 588 491 2 491 3 193 254 193 253 -2 252 -3 251 -172 3 -173
2 0 95 0 95 170 0 170 0 0 409 0 409 -207 301 -208 300 -88 1 -87 0 -17 38
c-10 20 -41 67 -70 103 l-53 66 0 102 c0 98 -7 138 -61 344 l-10 37 -72 0 -73
0 -37 -152 c-30 -122 -37 -172 -37 -247 l0 -93 -48 -57 c-26 -31 -56 -75 -66
-98 l-19 -43 -88 0 -88 0 -211 -304 -210 -305 2 -403 3 -403 173 -3 172 -2 0
-95 0 -95 -175 0 -175 0 0 -263 0 -263 -237 -339 c-225 -321 -238 -337 -245
-309 -4 16 -18 96 -30 178 l-23 149 -172 -259 -173 -259 0 575 0 575 -56 175
c-91 288 -94 306 -94 538 0 155 -3 211 -15 238 l-14 35 -87 -3 -87 -3 -13 -35
c-8 -24 -13 -103 -13 -245 -1 -234 -2 -241 -95 -534 l-46 -145 0 -168 c0 -92
-3 -168 -6 -168 -3 0 -59 32 -124 71 l-118 70 -197 328 -196 328 1 261 2 261
-37 110 c-20 60 -45 117 -56 127 -11 10 -101 146 -200 301 l-179 282 -36 243
c-34 226 -38 247 -71 306 l-35 62 -108 0 -109 0 -35 -62 c-32 -59 -37 -80 -70
-305 l-36 -243 -176 -277 c-97 -153 -187 -289 -200 -304 -13 -14 -40 -72 -60
-130 l-35 -104 1 -264 1 -264 -197 -328 -196 -328 -118 -70 c-65 -39 -121 -71
-124 -71 -3 0 -6 75 -6 168 l0 167 -55 175 c-83 263 -85 273 -85 505 0 165 -3
212 -16 245 l-16 40 -85 0 -84 0 -15 -35 c-11 -26 -14 -82 -14 -234 0 -230 -5
-256 -95 -540 l-55 -175 0 -575 0 -576 -168 252 c-92 139 -170 253 -173 253
-4 0 -16 -64 -28 -142 -12 -79 -25 -158 -28 -175 -5 -31 -17 -16 -244 309
l-239 341 0 264 0 263 -175 0 -175 0 0 95 0 95 175 0 175 0 0 406 0 405 -211
305 -211 304 -87 0 -87 0 -23 47 c-12 25 -42 70 -67 98 l-44 52 0 94 c0 75 -7
125 -37 247 l-37 152 -73 0 c-50 0 -75 -4 -78 -12z m129 -542 l46 -54 0 -141
0 -141 -100 0 -100 0 0 136 0 136 48 59 c26 32 50 59 53 59 4 0 27 -24 53 -54z
m7281 -6 l45 -55 0 -137 0 -138 -100 0 -100 0 0 141 0 141 46 54 c26 30 51 53
55 52 5 -2 29 -28 54 -58z m-4306 -2184 l85 -216 522 0 c405 0 524 3 531 13 6
6 47 106 92 220 45 115 87 215 95 222 12 12 30 -13 123 -168 l109 -182 207
-125 207 -125 0 -406 0 -405 -161 -190 c-88 -104 -169 -197 -179 -207 -17 -18
-20 -17 -98 40 -65 47 -85 67 -102 106 l-21 47 -800 0 -800 0 -20 -47 c-16
-39 -35 -59 -101 -107 -78 -56 -81 -57 -98 -40 -10 11 -91 104 -179 208 l-161
189 0 407 0 407 207 124 207 125 110 182 c103 172 110 181 125 163 9 -10 54
-116 100 -235z m2431 -3602 l0 -326 -36 -59 c-20 -32 -38 -59 -40 -59 -2 0 -4
201 -4 447 l0 446 40 -62 40 -62 0 -325z m-3562 -227 l-3 -222 -37 61 -38 62
0 326 0 326 38 57 37 56 3 -221 c1 -122 1 -322 0 -445z"/>
<path d="M4540 6515 l0 -105 580 0 580 0 0 105 0 105 -580 0 -580 0 0 -105z"/>
<path d="M4540 6195 l0 -105 580 0 580 0 0 105 0 105 -580 0 -580 0 0 -105z"/>
<path d="M4540 5865 l0 -105 580 0 580 0 0 105 0 105 -580 0 -580 0 0 -105z"/>
</g>
</svg>
