<?xml version="1.0" standalone="no"?>
<!DOCTYPE svg PUBLIC "-//W3C//DTD SVG 20010904//EN"
 "http://www.w3.org/TR/2001/REC-SVG-20010904/DTD/svg10.dtd">
<svg version="1.0" xmlns="http://www.w3.org/2000/svg"
 width="1024.000000pt" height="1024.000000pt" viewBox="0 0 1024.000000 1024.000000"
 preserveAspectRatio="xMidYMid meet">
<metadata>
Created by potrace 1.16, written by Peter Selinger 2001-2019
</metadata>
<g transform="translate(0.000000,1024.000000) scale(0.100000,-0.100000)"
fill="#000000" stroke="none">
<path d="M4170 9586 l0 -149 140 -465 140 -464 0 -252 1 -251 34 -114 c18 -62
35 -114 37 -116 2 -2 31 -19 66 -39 34 -21 62 -39 62 -42 0 -3 -8 -21 -19 -42
-10 -20 -22 -61 -26 -89 -4 -29 -8 -53 -10 -53 -1 0 -82 33 -178 73 l-176 73
-215 296 c-200 275 -216 300 -216 339 0 40 -19 82 -87 192 -23 37 -24 37 -53
22 l-30 -16 0 -253 0 -254 27 -17 c22 -15 112 -44 135 -45 4 0 8 9 10 20 2 15
62 -58 216 -264 l213 -284 165 -68 166 -69 -6 -35 c-13 -80 -17 -202 -8 -315
l9 -120 -54 -102 c-30 -57 -58 -105 -62 -108 -20 -12 -384 62 -678 137 -280
72 -323 85 -323 102 0 10 -26 63 -57 117 l-57 98 -28 -15 -28 -15 0 -258 0
-259 43 -21 c23 -11 61 -23 85 -27 l42 -7 0 50 0 50 338 -83 c185 -45 381 -90
435 -99 l97 -17 -47 -86 c-102 -188 -92 -179 -113 -94 -5 23 -15 60 -21 82
l-10 41 -66 -3 -66 -3 -26 -96 c-15 -52 -37 -109 -49 -126 -21 -30 -22 -40
-22 -261 0 -127 -4 -233 -8 -236 -5 -3 -14 19 -21 48 -6 29 -16 69 -22 89
l-10 37 -67 0 -68 0 -19 -77 c-11 -43 -32 -103 -48 -133 -28 -53 -29 -61 -34
-238 l-6 -182 -53 -45 c-29 -25 -55 -45 -58 -45 -3 0 -6 13 -6 29 0 22 -82
185 -105 209 -2 2 -17 -4 -34 -13 l-31 -16 0 -255 0 -255 48 -22 48 -22 -148
-270 -147 -270 -90 -281 -91 -281 0 -457 0 -458 68 7 c37 3 77 8 90 11 20 4
22 0 22 -31 0 -20 4 -34 8 -31 4 2 187 394 406 870 l399 865 125 3 124 3 34
94 34 93 0 248 0 247 66 144 c36 79 71 149 78 155 10 10 452 164 470 164 3 0
0 -10 -8 -22 -7 -13 -33 -74 -57 -135 l-43 -113 -57 0 -56 0 -92 -210 c-50
-116 -91 -215 -91 -220 0 -6 34 -10 78 -10 l79 0 -36 -140 -36 -140 -77 0
c-72 0 -78 -2 -83 -22 -27 -114 -85 -393 -85 -408 0 -18 7 -20 86 -20 l87 0
-7 -97 c-4 -54 -9 -117 -12 -141 l-6 -42 -78 0 -78 0 -5 -32 c-3 -18 -9 -120
-13 -225 l-7 -193 82 0 81 0 0 -160 0 -160 -76 0 -76 0 6 -38 c3 -20 13 -98
21 -172 8 -74 18 -150 21 -167 l5 -33 73 0 73 0 27 -137 c15 -76 30 -148 33
-160 5 -21 2 -22 -69 -25 l-74 -3 54 -182 55 -182 70 -3 70 -3 67 -155 67
-155 -79 -3 c-43 -2 -78 -6 -78 -9 0 -4 48 -71 108 -149 l107 -142 45 -4 45
-3 53 -104 54 -103 31 -274 32 -274 35 0 36 0 31 275 32 276 54 102 c54 100
55 102 93 105 21 2 45 8 52 14 7 6 60 73 118 149 l105 139 -85 0 -85 0 69 157
69 158 69 3 69 3 48 157 c26 86 51 169 56 185 l8 27 -75 0 c-67 0 -75 2 -70
18 2 9 17 81 31 160 l27 142 74 0 73 0 5 33 c3 17 13 93 21 167 8 74 18 152
21 172 l6 38 -76 0 -76 0 0 160 0 160 81 0 82 0 -7 193 c-4 105 -10 207 -13
225 l-5 32 -78 0 -78 0 -6 43 c-3 23 -8 86 -12 139 l-7 97 90 3 89 3 -48 220
c-26 121 -48 221 -48 223 0 1 -35 2 -78 2 l-77 0 -36 140 -37 140 79 0 c43 0
79 3 79 8 0 4 -41 103 -91 220 l-92 212 -57 0 -57 0 -38 98 c-21 53 -47 115
-57 136 -14 28 -16 37 -6 34 7 -3 112 -38 233 -78 121 -40 225 -77 232 -84 7
-6 41 -75 77 -154 l66 -143 0 -247 1 -247 33 -95 33 -95 126 -3 125 -3 360
-782 c486 -1053 446 -970 450 -924 3 32 6 36 25 33 12 -3 52 -8 90 -11 l67 -7
0 457 0 457 -95 292 -96 291 -142 259 -143 260 48 24 48 24 0 254 0 253 -31
17 c-36 18 -27 27 -94 -88 -27 -46 -45 -90 -45 -108 0 -16 -3 -30 -6 -30 -3 0
-29 20 -58 45 l-53 45 -6 186 c-5 178 -7 188 -31 225 -15 21 -36 79 -48 129
l-22 90 -68 0 -67 0 -10 -37 c-6 -21 -15 -59 -22 -85 -6 -27 -15 -48 -20 -48
-5 0 -9 104 -9 230 0 228 0 231 -25 268 -13 20 -35 78 -48 127 l-24 90 -66 3
-66 3 -11 -43 c-6 -24 -18 -67 -27 -97 l-15 -53 -17 28 c-31 51 -122 224 -119
224 39 0 351 67 576 124 l292 74 0 -54 0 -53 53 15 c28 8 67 23 85 32 l32 17
0 257 0 257 -29 16 -29 15 -56 -98 c-31 -54 -56 -107 -56 -118 0 -17 -39 -29
-323 -102 -269 -69 -672 -152 -681 -140 -2 2 -28 50 -58 108 l-55 105 9 120
c8 111 5 229 -8 316 l-6 36 168 68 167 69 211 284 c158 213 212 278 214 262 3
-18 8 -20 35 -15 18 4 56 17 85 30 l52 24 0 255 0 255 -31 16 c-17 9 -32 15
-33 13 -2 -2 -26 -44 -54 -93 -40 -70 -52 -100 -52 -133 0 -39 -16 -64 -217
-341 l-217 -298 -161 -66 c-88 -36 -167 -69 -176 -72 -14 -5 -18 3 -24 47 -4
29 -16 70 -27 92 -23 45 -22 46 58 91 l58 33 33 113 32 114 1 249 0 249 140
468 141 468 -3 148 -3 148 -195 -502 c-107 -277 -197 -503 -200 -503 -3 0 -36
59 -75 131 l-70 132 -151 63 c-83 35 -165 67 -183 70 l-31 7 0 -47 0 -46 -40
0 -40 0 0 45 c0 25 -4 45 -8 45 -19 0 -154 -51 -256 -96 l-109 -49 -66 -127
c-36 -70 -68 -128 -71 -128 -3 0 -90 219 -194 488 -104 268 -193 494 -197 502
-5 8 -9 -51 -9 -134z m679 -3598 c77 -119 82 -129 79 -174 l-3 -47 -201 -67
-201 -67 115 249 c64 136 118 245 122 241 4 -5 44 -65 89 -135z m650 120 c5
-13 56 -125 114 -249 l104 -227 -186 63 c-102 35 -194 66 -203 70 -13 5 -18
19 -18 52 0 38 11 61 88 178 48 74 88 135 90 135 1 0 7 -10 11 -22z"/>
</g>
</svg>
