<?xml version="1.0" standalone="no"?>
<!DOCTYPE svg PUBLIC "-//W3C//DTD SVG 20010904//EN"
 "http://www.w3.org/TR/2001/REC-SVG-20010904/DTD/svg10.dtd">
<svg version="1.0" xmlns="http://www.w3.org/2000/svg"
 width="1024.000000pt" height="1024.000000pt" viewBox="0 0 1024.000000 1024.000000"
 preserveAspectRatio="xMidYMid meet">
<metadata>
Created by potrace 1.16, written by Peter Selinger 2001-2019
</metadata>
<g transform="translate(0.000000,1024.000000) scale(0.100000,-0.100000)"
fill="#000000" stroke="none">
<path d="M4470 9726 c0 -2 -65 -513 -145 -1136 l-145 -1132 0 -525 c0 -315 4
-523 9 -521 5 2 72 63 149 136 126 119 144 132 176 132 l36 0 0 209 0 209 40
32 40 32 0 -29 c0 -15 -7 -149 -14 -298 -8 -148 -20 -389 -26 -535 -7 -146
-13 -266 -14 -267 0 0 -50 -10 -111 -21 -107 -20 -114 -22 -275 -116 -149 -87
-166 -95 -177 -79 -12 15 -13 14 -13 -8 0 -21 -22 -37 -156 -113 l-156 -90
-111 -133 -112 -133 -6 32 c-4 18 -10 138 -13 266 -6 220 -5 235 14 279 11 25
20 57 20 72 0 22 -69 411 -85 479 -5 20 -11 22 -65 22 -32 0 -62 -5 -65 -10
-4 -6 -27 -119 -52 -253 l-45 -242 23 -54 22 -54 -13 -436 -13 -436 -128 -354
-129 -353 0 -397 0 -396 30 -110 30 -110 -17 -115 c-9 -63 -24 -132 -33 -153
l-17 -38 -6 73 c-4 40 -41 591 -82 1223 -42 633 -78 1156 -80 1163 -5 14 -101
17 -109 3 -3 -5 -110 -791 -237 -1747 l-231 -1739 -235 -632 -234 -632 3 -91
3 -92 210 243 c211 245 381 429 396 429 5 0 9 -34 11 -76 l3 -76 135 146 c127
137 137 145 173 146 l37 0 0 85 0 85 35 0 c24 0 44 9 67 29 39 34 147 70 157
52 4 -6 22 -106 40 -222 l34 -211 46 -54 46 -53 222 -1 222 0 43 52 c34 40 61
60 126 90 l83 38 -2 393 -1 392 82 58 c45 32 84 57 85 55 2 -2 11 -75 20 -163
10 -88 18 -161 19 -162 1 -1 131 38 289 86 232 71 287 85 287 72 -1 -9 -9 -55
-19 -103 l-18 -88 23 0 c23 0 24 -2 24 -90 0 -87 2 -94 45 -180 l45 -90 440 0
440 0 45 90 c43 86 45 93 45 180 0 88 1 90 24 90 l23 0 -19 96 c-11 53 -17 98
-14 101 3 4 133 -33 288 -80 155 -48 283 -85 284 -84 1 1 10 74 19 162 9 88
18 161 19 163 2 1 40 -24 85 -55 l83 -58 -1 -393 -2 -393 84 -39 c65 -30 93
-49 126 -89 l43 -51 222 0 222 0 46 55 46 54 33 211 c18 116 36 216 40 222 10
16 131 -28 159 -57 17 -18 34 -25 62 -25 l38 0 0 -85 0 -85 38 0 c35 -1 45 -9
172 -146 l135 -146 3 76 c2 42 6 76 11 76 15 0 185 -184 396 -429 l210 -243 3
90 3 91 -235 633 -234 633 -231 1735 c-127 954 -231 1741 -231 1748 0 8 -18
12 -55 12 -36 0 -57 -5 -60 -12 -2 -7 -40 -562 -85 -1233 -44 -670 -82 -1220
-84 -1222 -9 -10 -37 96 -51 190 l-15 108 31 112 c23 84 35 161 48 309 17 189
17 207 0 395 -15 175 -23 220 -67 383 -41 150 -66 218 -130 355 l-80 170 -12
435 -13 435 23 52 22 53 -46 247 c-25 137 -46 251 -46 256 0 6 -129 11 -131 5
0 -2 -22 -115 -48 -253 l-48 -250 24 -55 c24 -54 24 -58 18 -280 -3 -124 -8
-236 -11 -249 -5 -22 -16 -14 -132 101 -90 89 -166 152 -262 218 -74 51 -140
98 -145 104 -6 6 -15 12 -20 13 -6 1 -87 37 -180 80 -108 50 -209 90 -277 108
-96 25 -108 31 -108 50 0 41 -30 678 -40 845 -5 91 -10 182 -10 203 l0 39 40
-32 40 -32 0 -209 0 -209 36 0 c32 0 50 -13 176 -132 77 -73 144 -134 149
-136 5 -2 9 206 9 520 l0 523 -145 1133 c-80 623 -145 1134 -145 1137 0 3 -18
5 -40 5 l-40 0 -2 -861 -3 -862 -31 26 c-26 22 -32 36 -38 84 -11 94 -56 811
-56 899 0 44 -5 106 -11 137 l-12 57 -57 0 c-46 0 -59 -4 -65 -17 -4 -10 -11
-94 -16 -188 -5 -93 -16 -274 -24 -401 -8 -128 -15 -247 -15 -265 -1 -27 -12
-8 -58 99 l-56 132 -122 0 c-85 0 -124 -4 -131 -12 -6 -7 -32 -64 -58 -125
-27 -62 -50 -112 -51 -110 -1 1 -12 162 -23 357 -11 195 -23 387 -25 425 -6
103 -8 105 -76 105 l-58 0 -11 -50 c-6 -28 -11 -86 -11 -128 0 -94 -36 -694
-51 -852 -9 -102 -14 -118 -37 -142 -14 -16 -29 -28 -34 -28 -4 0 -8 387 -8
860 l0 860 -40 0 c-22 0 -40 -2 -40 -4z m1278 -3852 c60 -15 372 -152 427
-188 l22 -15 -20 -108 c-11 -59 -21 -109 -22 -111 -2 -2 -98 44 -214 102 -167
84 -211 110 -211 126 0 11 -13 56 -30 102 -29 80 -36 108 -25 108 3 0 36 -7
73 -16z m-1178 3 c0 -2 -13 -43 -30 -92 -16 -49 -30 -97 -30 -106 0 -12 -58
-47 -205 -123 -113 -58 -209 -106 -213 -106 -8 0 -48 188 -41 194 6 5 309 180
337 195 30 16 182 47 182 38z m1798 -326 c95 -68 334 -299 383 -371 23 -34 23
-39 20 -214 -1 -99 -6 -188 -10 -198 -5 -14 -22 13 -66 104 l-60 123 -172 175
-171 175 -12 100 c-6 55 -13 117 -16 138 -3 20 -3 37 1 37 3 0 50 -31 103 -69z
m-2406 -78 l-13 -128 -166 -166 c-162 -163 -167 -170 -233 -294 -41 -77 -69
-121 -73 -112 -3 8 -7 87 -8 176 l-3 161 159 190 c152 182 164 193 250 245 49
29 92 54 95 54 3 1 0 -56 -8 -126z m3216 -1378 c10 -107 15 -220 11 -260 -3
-38 -7 -64 -7 -57 -20 156 -50 340 -78 465 -27 125 -34 179 -33 260 l1 102 44
-160 c38 -137 47 -188 62 -350z m-4034 192 c-15 -67 -35 -167 -45 -222 l-17
-100 -1 153 -1 154 43 118 42 119 3 -50 c2 -28 -8 -102 -24 -172z"/>
</g>
</svg>
