<?xml version="1.0" standalone="no"?>
<!DOCTYPE svg PUBLIC "-//W3C//DTD SVG 20010904//EN"
 "http://www.w3.org/TR/2001/REC-SVG-20010904/DTD/svg10.dtd">
<svg version="1.0" xmlns="http://www.w3.org/2000/svg"
 width="1024.000000pt" height="1024.000000pt" viewBox="0 0 1024.000000 1024.000000"
 preserveAspectRatio="xMidYMid meet">
<metadata>
Created by potrace 1.16, written by Peter Selinger 2001-2019
</metadata>
<g transform="translate(0.000000,1024.000000) scale(0.100000,-0.100000)"
fill="#000000" stroke="none">
<path d="M4338 9614 l-228 -114 0 -48 c1 -49 -222 -1833 -228 -1827 -4 4 -31
440 -32 508 l0 47 -74 0 c-68 0 -74 -2 -79 -22 -3 -13 -47 -217 -98 -455 -51
-237 -96 -430 -99 -428 -3 2 -188 -759 -410 -1691 l-404 -1694 -67 0 -67 0
-21 -69 c-20 -66 -21 -91 -21 -526 l0 -458 -180 -513 -180 -512 0 -546 c0
-300 3 -546 8 -545 4 0 106 115 227 255 121 141 227 259 236 264 17 9 656 250
664 250 3 0 5 -35 5 -79 l0 -79 110 -83 c61 -46 113 -93 115 -104 2 -11 14
-117 25 -235 21 -205 23 -217 52 -262 l30 -48 222 0 221 0 29 48 c21 33 31 64
34 105 2 31 8 57 12 57 4 0 13 -39 20 -87 17 -118 20 -123 84 -171 l55 -42
319 0 319 0 60 46 60 46 23 134 c19 113 25 134 40 134 19 0 20 -4 51 -198 l12
-72 60 -45 61 -45 319 0 319 0 58 45 c32 24 60 55 63 67 3 13 11 57 18 98 6
41 15 79 19 83 4 4 10 -19 13 -52 4 -45 13 -71 36 -105 l32 -46 218 0 219 0
30 48 c29 45 31 57 52 262 11 118 23 224 25 235 2 11 53 57 115 104 l110 84 0
79 c0 60 3 79 13 76 6 -3 159 -60 339 -128 l327 -122 223 -258 c123 -143 226
-259 231 -259 4 -1 7 244 7 543 l0 545 -177 503 -178 503 -6 485 c-4 428 -7
491 -23 538 l-18 52 -67 0 -67 0 -405 1695 c-222 932 -406 1689 -408 1683 -2
-7 -30 109 -62 257 -32 149 -77 357 -100 463 l-42 192 -72 0 -72 0 -12 -237
c-7 -131 -16 -258 -19 -281 -5 -32 -37 193 -120 850 -62 491 -113 914 -113
940 l1 48 -230 115 c-126 63 -232 115 -235 115 -3 0 -5 -648 -5 -1440 l0
-1440 65 0 65 0 -1 -302 c0 -167 -2 -298 -4 -293 -3 6 -27 114 -55 240 -28
127 -54 240 -57 253 -4 19 -12 22 -49 22 -37 0 -46 -4 -53 -22 -4 -13 -46
-213 -92 -446 l-84 -423 -25 7 c-14 4 -119 9 -234 11 -162 3 -217 1 -250 -10
l-42 -14 -89 448 -90 449 -47 0 c-27 0 -48 -1 -48 -2 0 -2 -27 -120 -59 -263
l-59 -260 -1 303 -1 302 65 0 65 0 0 1440 c0 792 -3 1440 -7 1439 -5 0 -110
-52 -235 -115z m-288 -3439 l0 -645 -25 0 c-14 0 -25 3 -25 8 0 4 -16 273 -35
597 -19 325 -35 600 -35 613 0 17 12 28 53 46 28 14 55 25 60 25 4 1 7 -289 7
-644z m2238 604 c14 -5 22 -17 22 -31 0 -13 -16 -288 -35 -613 -19 -324 -35
-593 -35 -597 0 -5 -11 -8 -25 -8 l-25 0 0 645 0 645 38 -16 c20 -9 47 -20 60
-25z m-2238 -1614 c0 -47 -4 -85 -9 -85 -15 0 -21 29 -21 101 0 55 3 69 15 69
12 0 15 -16 15 -85z m2170 16 c0 -72 -6 -101 -21 -101 -5 0 -9 38 -9 85 0 69
3 85 15 85 12 0 15 -14 15 -69z m-2173 -413 c-3 -7 -5 -2 -5 12 0 14 2 19 5
13 2 -7 2 -19 0 -25z m2150 0 c-3 -7 -5 -2 -5 12 0 14 2 19 5 13 2 -7 2 -19 0
-25z"/>
</g>
</svg>
