<?xml version="1.0" standalone="no"?>
<!DOCTYPE svg PUBLIC "-//W3C//DTD SVG 20010904//EN"
 "http://www.w3.org/TR/2001/REC-SVG-20010904/DTD/svg10.dtd">
<svg version="1.0" xmlns="http://www.w3.org/2000/svg"
 width="1024.000000pt" height="1024.000000pt" viewBox="0 0 1024.000000 1024.000000"
 preserveAspectRatio="xMidYMid meet">
<metadata>
Created by potrace 1.16, written by Peter Selinger 2001-2019
</metadata>
<g transform="translate(0.000000,1024.000000) scale(0.100000,-0.100000)"
fill="#000000" stroke="none">
<path d="M3531 9683 c-22 -47 -25 -75 -67 -923 -24 -481 -44 -885 -44 -897 0
-21 5 -23 45 -23 l45 0 0 -124 0 -125 -46 -3 -47 -3 -63 -120 c-62 -117 -64
-122 -64 -197 l0 -77 -57 -3 -58 -3 -3 -107 -3 -108 61 0 60 0 0 -70 0 -70
-60 0 -60 0 0 -105 0 -105 60 0 60 0 0 -81 c0 -86 34 -229 54 -229 6 0 21 -53
34 -117 13 -65 26 -121 28 -125 3 -4 65 -8 139 -8 l134 0 11 58 c6 31 16 73
21 92 5 19 9 86 9 148 l0 112 120 0 c73 0 120 4 120 10 0 6 52 10 135 10 l135
0 0 -377 c0 -343 2 -396 25 -572 24 -192 25 -194 69 -270 l44 -76 176 -3 176
-2 0 -60 0 -60 -135 0 -136 0 3 -77 3 -78 133 -3 132 -3 0 -34 0 -35 -135 0
-136 0 3 -152 3 -153 133 -3 132 -3 0 -34 0 -35 -135 0 -136 0 3 -77 3 -78
133 -3 132 -3 0 -59 0 -60 -243 0 -243 0 -87 -127 -87 -128 0 -202 0 -203 -75
0 -75 0 0 -105 0 -105 75 0 c68 0 75 -2 75 -20 0 -17 -8 -19 -72 -22 l-73 -3
-3 -107 -3 -108 -37 -25 -37 -25 -6 232 c-4 128 -7 279 -8 336 l-1 102 -161
-2 -162 -3 -63 -120 c-57 -107 -64 -126 -64 -178 l0 -58 -175 -202 -175 -201
0 -511 0 -510 175 -200 174 -200 1 -57 c0 -51 7 -72 66 -183 l66 -125 157 0
158 0 6 197 c4 108 7 233 7 279 l0 83 73 50 c59 42 80 51 115 51 l42 0 0 -201
0 -202 133 -258 c108 -212 136 -259 153 -259 17 0 26 -15 49 -82 15 -46 44
-125 63 -175 l36 -93 269 0 268 0 23 53 c13 28 32 78 42 109 10 32 21 58 24
58 3 0 14 -25 24 -55 9 -30 28 -79 41 -110 l25 -55 268 0 269 0 30 78 c17 42
46 121 64 174 25 73 38 98 51 98 22 0 23 1 167 279 l121 233 0 204 0 204 41 0
c33 0 55 -10 115 -51 l74 -51 0 -83 c0 -45 3 -170 7 -278 l6 -197 158 0 158 0
65 124 c59 111 66 129 66 182 l1 59 174 200 175 200 0 510 0 511 -175 201
-175 202 0 57 c0 50 -7 70 -66 180 l-66 124 -159 0 -159 0 -1 -97 c-1 -54 -4
-205 -8 -336 l-6 -237 -37 26 -38 27 0 109 0 108 -75 0 c-68 0 -75 2 -75 20 0
18 7 20 75 20 l75 0 0 105 0 105 -75 0 -75 0 0 203 0 203 -87 127 -88 127
-242 0 -243 0 0 60 0 60 135 0 135 0 0 80 0 80 -135 0 -135 0 0 35 0 35 135 0
135 0 0 155 0 155 -135 0 -135 0 0 35 0 34 133 3 132 3 3 78 3 77 -136 0 -135
0 0 60 0 60 176 2 177 3 43 75 c44 75 44 77 69 270 23 177 25 230 25 573 l0
377 135 0 c83 0 135 -4 135 -10 0 -6 47 -10 120 -10 l120 0 0 -105 c0 -69 7
-139 21 -205 l22 -100 136 0 137 0 24 123 c13 67 30 126 37 130 23 15 53 140
53 226 l0 81 60 0 60 0 0 105 0 105 -60 0 -60 0 0 70 0 69 58 3 57 3 3 108 3
107 -61 0 -60 0 0 76 c0 75 -1 79 -66 200 l-66 124 -44 0 -44 0 0 125 0 125
45 0 c40 0 45 2 45 23 0 12 -20 414 -44 892 -41 828 -45 873 -66 923 l-22 52
-92 0 -92 0 -22 -52 c-20 -50 -24 -106 -62 -873 -22 -451 -41 -851 -42 -890
l-3 -70 43 -3 42 -3 0 -200 0 -199 -43 0 -43 0 -48 -90 -47 -90 -135 0 -134 0
0 108 c0 100 -5 124 -69 368 -64 245 -73 271 -137 393 l-68 131 -178 0 -178 0
0 121 c0 118 -1 122 -32 175 -32 53 -33 54 -80 54 l-48 0 0 -175 0 -175 -100
0 -100 0 0 175 0 175 -48 0 c-47 0 -48 -1 -80 -53 -31 -52 -32 -55 -32 -175
l0 -122 -180 0 -180 0 -68 -137 c-63 -126 -75 -160 -135 -394 -62 -238 -67
-263 -67 -362 l0 -107 -135 0 -134 0 -48 90 -48 90 -42 0 -43 0 0 200 0 200
45 0 46 0 -6 73 c-3 39 -24 441 -46 892 -37 778 -40 823 -62 872 l-22 53 -91
0 -90 0 -23 -47z m-161 -6723 c0 -43 -3 -50 -20 -50 -20 0 -20 -7 -20 -511 0
-502 0 -511 20 -516 17 -4 20 -14 20 -56 0 -28 -2 -48 -3 -46 -2 2 -41 57 -85
121 l-82 117 0 376 0 376 83 119 c45 66 83 120 85 120 1 0 2 -22 2 -50z m3593
-77 l77 -111 0 -375 0 -376 -85 -122 -85 -123 0 51 c0 42 3 52 20 56 20 5 20
14 20 512 0 498 0 507 -20 512 -17 4 -20 14 -20 56 0 29 4 47 8 42 5 -6 43
-60 85 -122z"/>
</g>
</svg>
