<?xml version="1.0" standalone="no"?>
<!DOCTYPE svg PUBLIC "-//W3C//DTD SVG 20010904//EN"
 "http://www.w3.org/TR/2001/REC-SVG-20010904/DTD/svg10.dtd">
<svg version="1.0" xmlns="http://www.w3.org/2000/svg"
 width="64.000000pt" height="64.000000pt" viewBox="0 0 64.000000 64.000000"
 preserveAspectRatio="xMidYMid meet">
<metadata>
Created by potrace 1.16, written by Peter Selinger 2001-2019
</metadata>
<g transform="translate(0.000000,64.000000) scale(0.100000,-0.100000)"
fill="#000000" stroke="none">
<path d="M307 553 c-2 -4 -7 -19 -10 -33 -3 -14 -20 -33 -36 -43 -22 -13 -32
-28 -37 -55 -5 -28 -29 -61 -100 -137 -90 -96 -94 -102 -94 -145 l0 -46 75 10
c68 8 77 8 89 -9 13 -18 14 -17 31 8 17 26 65 39 65 17 0 -5 14 -10 30 -10 17
0 30 5 30 10 0 19 41 10 64 -15 21 -23 25 -24 37 -9 11 13 24 15 72 9 32 -3
65 -9 73 -12 11 -4 14 5 14 43 0 48 -2 51 -95 149 -52 55 -94 108 -95 117 0
30 -21 65 -46 79 -14 7 -28 26 -32 43 -8 29 -26 45 -35 29z"/>
</g>
</svg>
