<?xml version="1.0" standalone="no"?>
<!DOCTYPE svg PUBLIC "-//W3C//DTD SVG 20010904//EN"
 "http://www.w3.org/TR/2001/REC-SVG-20010904/DTD/svg10.dtd">
<svg version="1.0" xmlns="http://www.w3.org/2000/svg"
 width="64.000000pt" height="64.000000pt" viewBox="0 0 64.000000 64.000000"
 preserveAspectRatio="xMidYMid meet">
<metadata>
Created by potrace 1.16, written by Peter Selinger 2001-2019
</metadata>
<g transform="translate(0.000000,64.000000) scale(0.100000,-0.100000)"
fill="#000000" stroke="none">
<path d="M282 525 l-32 -65 14 -66 c13 -60 12 -71 -2 -101 -21 -45 -39 -42
-49 10 -10 51 -33 56 -45 9 -8 -28 -12 -32 -31 -27 -12 4 -41 28 -64 53 l-43
47 0 -83 c0 -91 5 -100 88 -153 19 -12 38 -33 43 -46 8 -22 14 -25 40 -19 20
4 42 -1 67 -14 43 -23 94 -18 124 12 15 15 23 17 31 9 21 -21 48 -12 60 19 6
16 23 34 37 40 14 6 40 24 58 40 31 29 32 32 32 112 l0 82 -48 -52 c-56 -61
-78 -65 -90 -20 -12 47 -35 42 -46 -9 -11 -52 -27 -55 -48 -10 -14 30 -15 41
-3 98 14 63 14 65 -17 132 -17 37 -34 67 -37 67 -4 0 -21 -29 -39 -65z"/>
</g>
</svg>
