<?xml version="1.0" standalone="no"?>
<!DOCTYPE svg PUBLIC "-//W3C//DTD SVG 20010904//EN"
 "http://www.w3.org/TR/2001/REC-SVG-20010904/DTD/svg10.dtd">
<svg version="1.0" xmlns="http://www.w3.org/2000/svg"
 width="64.000000pt" height="64.000000pt" viewBox="0 0 64.000000 64.000000"
 preserveAspectRatio="xMidYMid meet">
<metadata>
Created by potrace 1.16, written by Peter Selinger 2001-2019
</metadata>
<g transform="translate(0.000000,64.000000) scale(0.100000,-0.100000)"
fill="#000000" stroke="none">
<path d="M281 574 c-21 -30 -28 -34 -53 -29 -26 6 -28 5 -28 -27 0 -23 6 -37
21 -46 18 -11 20 -19 14 -55 -9 -51 -21 -67 -49 -67 -12 0 -33 -15 -49 -35
-30 -37 -57 -44 -77 -20 -22 27 -30 16 -30 -43 0 -46 5 -65 25 -92 30 -40 43
-50 71 -50 13 0 24 -8 27 -20 6 -25 34 -26 40 -2 4 15 5 15 6 -2 1 -15 3 -16
16 -6 18 15 31 5 37 -25 3 -18 11 -20 68 -20 60 0 64 2 70 25 4 17 12 24 25
22 10 -2 22 2 26 10 7 10 9 9 9 -4 0 -11 8 -18 20 -18 13 0 20 7 20 20 0 15 7
20 26 20 18 0 38 12 60 37 31 34 34 42 34 100 0 67 -6 75 -34 44 -18 -20 -18
-20 -52 2 -18 12 -35 28 -36 36 -2 7 -19 19 -38 25 -30 10 -36 17 -44 55 -8
39 -7 46 12 62 14 11 22 28 22 49 0 30 -1 31 -35 24 -26 -5 -35 -3 -35 7 -1
19 -35 59 -52 59 -7 0 -24 -16 -37 -36z"/>
</g>
</svg>
