<?xml version="1.0" standalone="no"?>
<!DOCTYPE svg PUBLIC "-//W3C//DTD SVG 20010904//EN"
 "http://www.w3.org/TR/2001/REC-SVG-20010904/DTD/svg10.dtd">
<svg version="1.0" xmlns="http://www.w3.org/2000/svg"
 width="64.000000pt" height="64.000000pt" viewBox="0 0 64.000000 64.000000"
 preserveAspectRatio="xMidYMid meet">
<metadata>
Created by potrace 1.16, written by Peter Selinger 2001-2019
</metadata>
<g transform="translate(0.000000,64.000000) scale(0.100000,-0.100000)"
fill="#000000" stroke="none">
<path d="M52 468 c-22 -130 -23 -155 -8 -248 9 -52 16 -99 16 -104 0 -5 2 -7
5 -4 4 4 13 49 31 156 5 31 6 32 54 32 37 0 50 -4 50 -14 0 -8 11 -28 25 -44
15 -18 25 -42 25 -61 l0 -31 70 0 70 0 0 31 c0 19 10 43 25 61 14 16 25 36 25
44 0 10 13 14 49 14 56 0 51 8 70 -119 6 -35 12 -66 15 -68 4 -4 18 73 31 167
3 25 -1 87 -9 140 -9 52 -16 99 -16 104 0 5 -2 7 -5 4 -4 -4 -13 -49 -31 -155
-5 -32 -6 -33 -53 -33 -43 0 -50 3 -55 24 -3 14 -18 29 -36 36 -16 7 -30 19
-30 26 0 17 -42 28 -75 20 -14 -4 -25 -12 -25 -20 0 -7 -14 -19 -30 -26 -18
-7 -33 -22 -36 -36 -5 -21 -12 -24 -54 -24 -54 0 -50 -8 -69 119 -6 35 -12 66
-15 68 -2 2 -9 -24 -14 -59z"/>
</g>
</svg>
