<?xml version="1.0" standalone="no"?>
<!DOCTYPE svg PUBLIC "-//W3C//DTD SVG 20010904//EN"
 "http://www.w3.org/TR/2001/REC-SVG-20010904/DTD/svg10.dtd">
<svg version="1.0" xmlns="http://www.w3.org/2000/svg"
 width="64.000000pt" height="64.000000pt" viewBox="0 0 64.000000 64.000000"
 preserveAspectRatio="xMidYMid meet">
<metadata>
Created by potrace 1.16, written by Peter Selinger 2001-2019
</metadata>
<g transform="translate(0.000000,64.000000) scale(0.100000,-0.100000)"
fill="#000000" stroke="none">
<path d="M279 603 c-19 -5 -63 -136 -55 -167 4 -15 -4 -33 -25 -59 -27 -33
-32 -35 -45 -22 -18 17 -24 18 -44 5 -10 -6 -15 -28 -17 -64 -1 -38 -8 -64
-22 -85 -15 -21 -21 -44 -21 -86 l0 -57 22 16 c13 9 34 22 48 29 14 6 30 17
35 23 6 6 28 24 49 40 l39 29 -17 -32 c-24 -48 -20 -68 20 -92 45 -27 103 -27
148 0 39 23 46 51 21 85 -25 33 -16 36 23 8 20 -16 42 -33 47 -38 6 -6 22 -17
35 -25 14 -8 35 -21 48 -29 22 -14 22 -14 22 42 0 43 -5 64 -22 87 -16 21 -21
41 -19 70 3 39 -19 89 -39 89 -4 0 -16 -7 -25 -16 -9 -9 -17 -15 -19 -13 -46
61 -54 76 -47 88 11 18 -34 152 -56 169 -16 12 -52 14 -84 5z"/>
</g>
</svg>
