<?xml version="1.0" standalone="no"?>
<!DOCTYPE svg PUBLIC "-//W3C//DTD SVG 20010904//EN"
 "http://www.w3.org/TR/2001/REC-SVG-20010904/DTD/svg10.dtd">
<svg version="1.0" xmlns="http://www.w3.org/2000/svg"
 width="64.000000pt" height="64.000000pt" viewBox="0 0 64.000000 64.000000"
 preserveAspectRatio="xMidYMid meet">
<metadata>
Created by potrace 1.16, written by Peter Selinger 2001-2019
</metadata>
<g transform="translate(0.000000,64.000000) scale(0.100000,-0.100000)"
fill="#000000" stroke="none">
<path d="M279 603 c-12 -3 -18 -20 -22 -61 -4 -48 -2 -60 15 -74 26 -23 20
-66 -11 -87 -24 -15 -24 -15 -18 11 7 25 4 28 -27 33 -19 4 -44 4 -56 0 -21
-7 -22 -11 -16 -63 4 -31 11 -61 17 -67 6 -6 2 -15 -13 -26 -19 -15 -21 -20
-10 -44 7 -14 12 -50 12 -80 l0 -55 40 0 40 0 0 55 c0 43 3 55 15 55 12 0 13
-4 5 -19 -12 -24 -14 -149 -1 -135 5 5 16 35 25 67 15 53 19 57 46 57 27 0 31
-4 46 -57 9 -32 20 -62 25 -67 12 -14 12 96 -1 128 -7 21 -6 26 5 26 11 0 15
-13 15 -55 l0 -55 40 0 40 0 0 55 c0 30 5 66 12 80 11 24 9 29 -10 44 -16 12
-19 20 -12 27 6 6 14 36 17 66 5 51 4 56 -17 63 -12 4 -37 4 -56 0 -31 -5 -34
-8 -27 -33 6 -26 6 -26 -18 -11 -31 21 -37 66 -11 85 16 11 18 22 15 66 -7 71
-35 90 -104 71z m-3 -308 c8 -45 1 -52 -30 -31 -23 14 -24 19 -14 41 16 36 36
31 44 -10z m129 15 c3 -11 11 -20 17 -20 6 0 -1 -9 -15 -20 -31 -25 -47 -25
-47 -2 1 55 32 84 45 42z"/>
</g>
</svg>
