<?xml version="1.0" standalone="no"?>
<!DOCTYPE svg PUBLIC "-//W3C//DTD SVG 20010904//EN"
 "http://www.w3.org/TR/2001/REC-SVG-20010904/DTD/svg10.dtd">
<svg version="1.0" xmlns="http://www.w3.org/2000/svg"
 width="64.000000pt" height="64.000000pt" viewBox="0 0 64.000000 64.000000"
 preserveAspectRatio="xMidYMid meet">
<metadata>
Created by potrace 1.16, written by Peter Selinger 2001-2019
</metadata>
<g transform="translate(0.000000,64.000000) scale(0.100000,-0.100000)"
fill="#000000" stroke="none">
<path d="M165 529 c-14 -44 -25 -94 -25 -111 0 -29 -44 -96 -61 -91 -18 6 -28
-83 -14 -126 3 -12 10 -19 14 -16 5 2 22 -11 40 -30 17 -19 40 -35 50 -35 32
0 67 -24 63 -43 -2 -10 3 -17 11 -17 8 0 20 -7 27 -15 16 -20 84 -20 100 0 7
8 19 15 27 15 9 0 12 6 9 18 -6 18 31 42 66 42 10 0 32 16 49 35 17 19 37 33
43 32 7 -1 12 20 14 55 3 55 1 59 -38 100 -30 31 -40 50 -40 74 0 18 -11 69
-25 113 -27 84 -36 92 -78 70 -16 -9 -22 -9 -25 0 -2 6 -11 11 -19 11 -13 0
-15 -15 -12 -97 5 -160 2 -191 -18 -189 -24 1 -32 64 -25 182 3 67 2 93 -8 99
-7 4 -16 2 -20 -5 -6 -9 -13 -9 -28 -1 -41 22 -50 14 -77 -70z"/>
</g>
</svg>
