<?xml version="1.0" standalone="no"?>
<!DOCTYPE svg PUBLIC "-//W3C//DTD SVG 20010904//EN"
 "http://www.w3.org/TR/2001/REC-SVG-20010904/DTD/svg10.dtd">
<svg version="1.0" xmlns="http://www.w3.org/2000/svg"
 width="64.000000pt" height="64.000000pt" viewBox="0 0 64.000000 64.000000"
 preserveAspectRatio="xMidYMid meet">
<metadata>
Created by potrace 1.16, written by Peter Selinger 2001-2019
</metadata>
<g transform="translate(0.000000,64.000000) scale(0.100000,-0.100000)"
fill="#000000" stroke="none">
<path d="M138 533 c-9 -22 -22 -66 -28 -100 -10 -52 -10 -64 5 -92 16 -33 13
-85 -6 -96 -16 -10 -49 15 -49 38 -1 21 -2 20 -16 -5 -15 -29 -10 -78 8 -78 5
0 23 -9 38 -20 22 -15 31 -32 36 -65 6 -41 9 -45 35 -45 26 0 29 3 29 34 0 35
24 70 43 63 6 -2 16 -24 24 -50 l14 -47 48 0 49 0 17 50 c9 28 20 50 25 50 20
0 40 -34 40 -66 0 -31 3 -34 29 -34 26 0 29 4 35 45 5 33 14 50 36 65 15 11
33 20 38 20 17 0 23 49 10 73 l-13 22 -3 -21 c-3 -21 -37 -38 -53 -28 -18 11
-20 64 -4 95 16 30 16 37 -1 115 -9 46 -21 84 -26 84 -4 0 -8 7 -8 15 0 8 -4
15 -10 15 -10 0 -19 -42 -22 -115 l-3 -50 -43 -9 c-34 -7 -46 -6 -60 8 -23 20
-41 20 -64 0 -14 -14 -26 -15 -60 -8 l-43 9 -1 62 c-1 35 -7 72 -15 83 -14 20
-15 20 -31 -17z m98 -188 c19 -5 21 -10 14 -39 -13 -59 -40 -79 -40 -31 0 15
-7 40 -16 56 -17 34 -21 33 42 14z m209 -15 c-8 -16 -15 -40 -15 -55 0 -48
-27 -28 -40 31 -7 30 -5 34 19 43 47 17 53 14 36 -19z"/>
</g>
</svg>
