<?xml version="1.0" standalone="no"?>
<!DOCTYPE svg PUBLIC "-//W3C//DTD SVG 20010904//EN"
 "http://www.w3.org/TR/2001/REC-SVG-20010904/DTD/svg10.dtd">
<svg version="1.0" xmlns="http://www.w3.org/2000/svg"
 width="64.000000pt" height="64.000000pt" viewBox="0 0 64.000000 64.000000"
 preserveAspectRatio="xMidYMid meet">
<metadata>
Created by potrace 1.16, written by Peter Selinger 2001-2019
</metadata>
<g transform="translate(0.000000,64.000000) scale(0.100000,-0.100000)"
fill="#000000" stroke="none">
<path d="M230 530 c0 -52 -3 -60 -18 -60 -11 0 -27 -9 -36 -19 -16 -18 -16
-20 6 -35 12 -9 28 -16 35 -16 8 0 13 -14 13 -38 0 -21 5 -43 11 -49 8 -8 8
-19 1 -40 -9 -25 -11 -25 -11 -5 -1 26 -9 27 -38 7 -14 -10 -20 -21 -16 -32 6
-14 0 -15 -42 -10 -26 4 -54 7 -61 7 -11 0 -14 18 -14 75 0 121 -16 86 -24
-51 -5 -89 -4 -130 4 -138 8 -8 15 -7 24 5 10 15 15 15 36 3 14 -7 36 -13 49
-14 19 0 22 -4 18 -22 -4 -12 -1 -28 5 -35 14 -17 78 -17 78 0 0 8 21 12 70
12 49 0 70 -4 70 -12 0 -17 64 -17 78 0 6 7 9 23 5 35 -4 18 -1 22 18 22 13 1
35 7 49 14 21 12 26 12 36 -3 9 -12 16 -13 24 -5 8 8 9 49 4 138 -7 136 -24
172 -24 52 l0 -73 -46 -7 c-68 -9 -74 -8 -74 12 0 40 -49 59 -51 20 0 -20 -2
-20 -11 5 -7 21 -7 32 1 40 6 6 11 28 11 49 0 24 5 38 13 38 7 0 23 7 35 16
22 15 22 17 6 35 -9 10 -25 19 -36 19 -15 0 -18 8 -18 60 0 47 -3 60 -15 60
-11 0 -15 -12 -16 -42 l0 -43 -22 43 c-11 23 -28 42 -37 42 -9 0 -26 -19 -37
-42 l-22 -43 0 43 c-1 30 -5 42 -16 42 -12 0 -15 -13 -15 -60z"/>
</g>
</svg>
