<?xml version="1.0" standalone="no"?>
<!DOCTYPE svg PUBLIC "-//W3C//DTD SVG 20010904//EN"
 "http://www.w3.org/TR/2001/REC-SVG-20010904/DTD/svg10.dtd">
<svg version="1.0" xmlns="http://www.w3.org/2000/svg"
 width="64.000000pt" height="64.000000pt" viewBox="0 0 64.000000 64.000000"
 preserveAspectRatio="xMidYMid meet">
<metadata>
Created by potrace 1.16, written by Peter Selinger 2001-2019
</metadata>
<g transform="translate(0.000000,64.000000) scale(0.100000,-0.100000)"
fill="#000000" stroke="none">
<path d="M502 545 c-11 -38 -33 -113 -48 -167 l-27 -96 -34 16 c-18 9 -33 22
-33 29 0 20 -78 17 -82 -3 -2 -9 -17 -22 -34 -29 l-32 -13 -42 151 c-40 141
-60 193 -60 156 0 -7 -7 -65 -14 -127 -10 -82 -19 -117 -31 -126 -14 -10 -16
-28 -12 -121 5 -119 15 -185 27 -185 4 0 15 9 25 20 14 16 31 20 76 20 l58 0
3 35 c2 27 6 33 17 25 12 -7 12 -11 2 -24 -12 -14 -6 -16 53 -16 61 0 67 2 61
19 -3 12 0 21 10 25 12 4 15 -2 15 -29 l0 -35 63 0 c51 0 64 -3 75 -20 18 -29
32 -25 32 9 0 17 5 33 10 36 6 4 10 55 10 120 0 93 -3 116 -16 123 -11 6 -19
41 -30 128 -8 65 -16 126 -17 134 -2 8 -13 -16 -25 -55z"/>
</g>
</svg>
