<?xml version="1.0" standalone="no"?>
<!DOCTYPE svg PUBLIC "-//W3C//DTD SVG 20010904//EN"
 "http://www.w3.org/TR/2001/REC-SVG-20010904/DTD/svg10.dtd">
<svg version="1.0" xmlns="http://www.w3.org/2000/svg"
 width="64.000000pt" height="64.000000pt" viewBox="0 0 64.000000 64.000000"
 preserveAspectRatio="xMidYMid meet">
<metadata>
Created by potrace 1.16, written by Peter Selinger 2001-2019
</metadata>
<g transform="translate(0.000000,64.000000) scale(0.100000,-0.100000)"
fill="#000000" stroke="none">
<path d="M220 571 c0 -30 -6 -44 -22 -55 -20 -14 -23 -14 -31 -1 -11 20 -30
19 -49 -2 -18 -21 -22 -131 -6 -150 6 -7 19 -13 29 -13 10 0 34 -7 53 -17 35
-16 35 -16 19 -46 -8 -17 -21 -46 -28 -66 -11 -28 -14 -31 -14 -13 -1 30 -27
39 -50 18 -15 -13 -19 -32 -19 -79 0 -34 5 -68 10 -75 15 -18 58 -15 58 3 0
12 11 9 44 -15 38 -25 54 -30 106 -30 52 0 68 5 106 30 33 24 44 27 44 15 0
-18 43 -21 58 -2 5 6 10 40 10 74 0 47 -4 66 -19 79 -25 22 -49 11 -50 -23 0
-23 -4 -19 -19 23 -10 28 -23 61 -29 72 -10 19 -8 23 18 37 17 8 41 15 54 15
14 0 29 6 35 13 16 20 13 129 -5 150 -20 21 -39 22 -50 2 -8 -13 -11 -13 -31
1 -16 11 -22 25 -22 55 0 28 -4 39 -15 39 -8 0 -15 -9 -15 -21 l0 -20 -29 20
c-36 26 -46 26 -82 0 l-29 -20 0 20 c0 12 -7 21 -15 21 -11 0 -15 -11 -15 -39z"/>
</g>
</svg>
