<?xml version="1.0" standalone="no"?>
<!DOCTYPE svg PUBLIC "-//W3C//DTD SVG 20010904//EN"
 "http://www.w3.org/TR/2001/REC-SVG-20010904/DTD/svg10.dtd">
<svg version="1.0" xmlns="http://www.w3.org/2000/svg"
 width="64.000000pt" height="64.000000pt" viewBox="0 0 64.000000 64.000000"
 preserveAspectRatio="xMidYMid meet">
<metadata>
Created by potrace 1.16, written by Peter Selinger 2001-2019
</metadata>
<g transform="translate(0.000000,64.000000) scale(0.100000,-0.100000)"
fill="#000000" stroke="none">
<path d="M156 573 c-3 -21 -8 -62 -12 -90 -3 -29 -10 -53 -15 -53 -5 0 -9 -30
-9 -67 0 -38 -6 -90 -14 -118 -11 -42 -10 -57 2 -92 l14 -43 51 3 52 2 3 -33
c4 -43 25 -37 33 9 l6 34 12 -47 c12 -43 16 -48 42 -48 23 0 30 5 35 28 3 15
10 38 14 52 7 21 9 19 9 -17 1 -53 28 -61 33 -11 3 32 4 32 57 32 53 1 55 2
66 35 9 27 9 47 -2 90 -7 31 -13 86 -13 124 0 37 -4 67 -9 67 -6 0 -12 20 -15
45 -19 147 -15 135 -47 135 -16 0 -29 -4 -29 -8 0 -5 -9 -90 -20 -190 -11 -99
-18 -189 -15 -199 4 -14 3 -14 -4 2 -6 11 -15 39 -21 63 -10 37 -14 42 -40 42
-25 0 -30 -5 -39 -37 -6 -21 -11 -44 -11 -52 0 -8 -2 -12 -5 -9 -4 4 -45 349
-45 379 0 5 -13 9 -29 9 -26 0 -30 -4 -35 -37z"/>
</g>
</svg>
