<?xml version="1.0" standalone="no"?>
<!DOCTYPE svg PUBLIC "-//W3C//DTD SVG 20010904//EN"
 "http://www.w3.org/TR/2001/REC-SVG-20010904/DTD/svg10.dtd">
<svg version="1.0" xmlns="http://www.w3.org/2000/svg"
 width="64.000000pt" height="64.000000pt" viewBox="0 0 64.000000 64.000000"
 preserveAspectRatio="xMidYMid meet">
<metadata>
Created by potrace 1.16, written by Peter Selinger 2001-2019
</metadata>
<g transform="translate(0.000000,64.000000) scale(0.100000,-0.100000)"
fill="#000000" stroke="none">
<path d="M266 568 c-6 -23 -126 -108 -151 -108 -7 0 -18 7 -25 15 -16 19 -25
19 -45 -1 -13 -14 -15 -37 -10 -167 3 -83 8 -153 10 -156 2 -2 7 15 11 38 4
25 12 41 20 41 15 0 17 -14 16 -110 -1 -60 0 -62 10 -32 8 23 17 32 34 32 19
0 23 7 29 50 4 27 4 54 0 59 -12 21 17 92 52 128 20 20 38 32 39 27 2 -5 8
-28 14 -51 10 -41 12 -43 50 -43 37 0 40 2 49 38 6 20 11 43 11 50 0 20 12 14
46 -24 36 -39 59 -96 50 -121 -4 -8 -3 -37 0 -64 6 -42 10 -49 29 -49 18 0 25
-8 33 -38 9 -31 10 -22 8 59 -1 86 0 96 15 92 11 -3 20 -19 24 -45 4 -21 9
-38 10 -36 2 2 7 72 10 155 5 130 3 153 -10 167 -21 20 -29 20 -50 0 -19 -19
-31 -15 -107 34 -33 21 -60 47 -64 60 -6 22 -34 32 -34 12 0 -5 -9 -10 -20
-10 -11 0 -20 5 -20 10 0 20 -28 9 -34 -12z"/>
</g>
</svg>
