<?xml version="1.0" standalone="no"?>
<!DOCTYPE svg PUBLIC "-//W3C//DTD SVG 20010904//EN"
 "http://www.w3.org/TR/2001/REC-SVG-20010904/DTD/svg10.dtd">
<svg version="1.0" xmlns="http://www.w3.org/2000/svg"
 width="64.000000pt" height="64.000000pt" viewBox="0 0 64.000000 64.000000"
 preserveAspectRatio="xMidYMid meet">
<metadata>
Created by potrace 1.16, written by Peter Selinger 2001-2019
</metadata>
<g transform="translate(0.000000,64.000000) scale(0.100000,-0.100000)"
fill="#000000" stroke="none">
<path d="M282 563 c-23 -52 -48 -209 -38 -240 5 -15 -1 -21 -33 -29 -36 -10
-40 -9 -50 13 -14 30 -65 32 -81 3 -13 -24 -12 -110 2 -208 10 -69 12 -72 38
-72 26 0 28 3 39 75 14 82 8 77 73 59 32 -10 46 -32 53 -86 6 -44 9 -48 35
-48 26 0 29 4 35 48 3 26 12 54 18 63 12 16 86 43 95 35 2 -2 8 -36 14 -75 10
-68 12 -71 38 -71 26 0 28 3 38 72 18 126 15 195 -8 218 -22 22 -46 18 -71
-12 -12 -16 -22 -18 -53 -13 -29 6 -36 11 -31 24 10 25 -16 192 -38 244 -12
30 -26 47 -37 47 -10 0 -24 -18 -38 -47z"/>
</g>
</svg>
