<?xml version="1.0" standalone="no"?>
<!DOCTYPE svg PUBLIC "-//W3C//DTD SVG 20010904//EN"
 "http://www.w3.org/TR/2001/REC-SVG-20010904/DTD/svg10.dtd">
<svg version="1.0" xmlns="http://www.w3.org/2000/svg"
 width="64.000000pt" height="64.000000pt" viewBox="0 0 64.000000 64.000000"
 preserveAspectRatio="xMidYMid meet">
<metadata>
Created by potrace 1.16, written by Peter Selinger 2001-2019
</metadata>
<g transform="translate(0.000000,64.000000) scale(0.100000,-0.100000)"
fill="#000000" stroke="none">
<path d="M300 568 c-17 -41 -62 -261 -57 -280 5 -16 -2 -18 -57 -18 -62 0 -63
0 -74 33 -5 17 -10 24 -11 15 -1 -24 -10 -23 -43 9 l-28 27 0 -43 c0 -26 10
-61 25 -90 13 -25 27 -59 30 -74 3 -15 10 -25 15 -22 5 3 35 -1 67 -10 32 -9
64 -17 71 -17 8 -1 18 -12 23 -25 7 -20 15 -23 63 -23 48 0 55 2 58 22 2 17
16 25 68 40 36 10 73 17 82 14 17 -4 28 12 28 42 0 10 11 34 25 54 18 27 25
50 25 84 l0 48 -28 -27 c-33 -32 -42 -33 -43 -9 0 9 -5 2 -10 -16 -10 -32 -10
-32 -73 -32 -56 0 -64 2 -60 18 3 9 -9 79 -25 155 -17 75 -31 139 -31 142 0
15 -32 2 -40 -17z"/>
</g>
</svg>
