<?xml version="1.0" standalone="no"?>
<!DOCTYPE svg PUBLIC "-//W3C//DTD SVG 20010904//EN"
 "http://www.w3.org/TR/2001/REC-SVG-20010904/DTD/svg10.dtd">
<svg version="1.0" xmlns="http://www.w3.org/2000/svg"
 width="64.000000pt" height="64.000000pt" viewBox="0 0 64.000000 64.000000"
 preserveAspectRatio="xMidYMid meet">
<metadata>
Created by potrace 1.16, written by Peter Selinger 2001-2019
</metadata>
<g transform="translate(0.000000,64.000000) scale(0.100000,-0.100000)"
fill="#000000" stroke="none">
<path d="M303 602 c-7 -4 -21 -33 -32 -62 -26 -76 -53 -130 -62 -125 -20 13
-38 -10 -44 -57 -4 -28 -16 -65 -26 -82 -15 -24 -19 -50 -19 -113 0 -46 3 -83
8 -83 4 0 20 20 35 45 18 28 36 45 48 45 14 0 19 7 19 28 0 15 9 38 19 51 18
23 18 23 9 -30 -5 -30 -16 -75 -24 -100 -8 -26 -14 -57 -14 -69 l0 -23 24 25
c12 14 26 33 29 42 4 11 19 16 48 16 32 0 42 -4 46 -20 3 -11 9 -18 13 -15 5
3 11 -4 15 -15 3 -11 11 -20 16 -20 13 0 11 37 -3 63 -7 12 -15 47 -19 77 -4
30 -10 64 -14 75 -6 16 -3 15 14 -5 11 -14 21 -35 21 -48 0 -14 8 -26 23 -31
12 -5 33 -28 47 -50 14 -23 28 -41 32 -41 5 0 8 37 8 81 0 62 -4 89 -19 113
-10 17 -22 52 -25 78 -7 46 -27 75 -45 64 -10 -7 -8 -11 -55 104 -33 82 -48
99 -73 82z"/>
</g>
</svg>
