<?xml version="1.0" standalone="no"?>
<!DOCTYPE svg PUBLIC "-//W3C//DTD SVG 20010904//EN"
 "http://www.w3.org/TR/2001/REC-SVG-20010904/DTD/svg10.dtd">
<svg version="1.0" xmlns="http://www.w3.org/2000/svg"
 width="64.000000pt" height="64.000000pt" viewBox="0 0 64.000000 64.000000"
 preserveAspectRatio="xMidYMid meet">
<metadata>
Created by potrace 1.16, written by Peter Selinger 2001-2019
</metadata>
<g transform="translate(0.000000,64.000000) scale(0.100000,-0.100000)"
fill="#000000" stroke="none">
<path d="M301 579 c-10 -23 -16 -27 -22 -18 -10 16 -11 14 -39 -84 -10 -38
-17 -74 -14 -82 3 -8 -21 -48 -53 -89 l-58 -76 -3 50 c-2 28 -7 50 -11 50 -25
0 -40 -208 -19 -267 14 -39 24 -42 32 -10 3 13 20 30 41 40 31 15 36 15 41 2
4 -8 19 -15 34 -15 20 0 31 -6 35 -20 5 -16 15 -20 55 -20 40 0 50 4 55 20 4
14 15 20 35 20 16 0 30 7 34 15 5 14 11 13 46 -5 26 -13 40 -27 40 -40 0 -11
4 -20 9 -20 15 0 31 60 31 118 0 65 -20 182 -31 182 -4 0 -9 -23 -11 -52 l-3
-52 -58 78 c-32 43 -56 84 -53 91 3 8 -4 44 -14 82 -29 98 -29 100 -40 84 -6
-11 -12 -6 -24 18 -9 17 -18 31 -19 31 -1 0 -8 -14 -16 -31z"/>
</g>
</svg>
