<?xml version="1.0" standalone="no"?>
<!DOCTYPE svg PUBLIC "-//W3C//DTD SVG 20010904//EN"
 "http://www.w3.org/TR/2001/REC-SVG-20010904/DTD/svg10.dtd">
<svg version="1.0" xmlns="http://www.w3.org/2000/svg"
 width="64.000000pt" height="64.000000pt" viewBox="0 0 64.000000 64.000000"
 preserveAspectRatio="xMidYMid meet">
<metadata>
Created by potrace 1.16, written by Peter Selinger 2001-2019
</metadata>
<g transform="translate(0.000000,64.000000) scale(0.100000,-0.100000)"
fill="#000000" stroke="none">
<path d="M271 476 c-26 -58 -43 -81 -77 -106 -34 -24 -44 -28 -44 -15 0 25
-18 8 -25 -24 -3 -16 -13 -35 -20 -41 -12 -10 -16 -3 -26 34 -13 52 -29 55
-41 10 -9 -30 -2 -114 13 -149 7 -18 8 -18 9 5 l1 25 14 -25 c19 -36 67 -36
75 0 4 18 13 25 30 25 27 0 27 0 29 -76 l1 -50 33 3 c28 3 32 6 30 31 -2 26 0
27 47 27 47 0 49 -1 47 -27 -2 -25 2 -28 31 -31 l32 -3 0 60 c0 33 5 63 10 66
18 11 49 -5 52 -28 2 -18 9 -21 33 -19 17 2 36 10 43 19 11 15 12 15 12 -3 1
-35 17 7 25 63 7 52 -7 123 -25 123 -4 0 -13 -21 -19 -46 -10 -39 -14 -44 -26
-34 -8 7 -15 20 -15 29 0 10 -7 26 -15 37 -13 17 -14 17 -15 2 0 -15 -7 -12
-44 13 -34 25 -51 48 -78 105 -19 44 -39 73 -48 73 -9 0 -29 -30 -49 -73z"/>
</g>
</svg>
