<?xml version="1.0" standalone="no"?>
<!DOCTYPE svg PUBLIC "-//W3C//DTD SVG 20010904//EN"
 "http://www.w3.org/TR/2001/REC-SVG-20010904/DTD/svg10.dtd">
<svg version="1.0" xmlns="http://www.w3.org/2000/svg"
 width="64.000000pt" height="64.000000pt" viewBox="0 0 64.000000 64.000000"
 preserveAspectRatio="xMidYMid meet">
<metadata>
Created by potrace 1.16, written by Peter Selinger 2001-2019
</metadata>
<g transform="translate(0.000000,64.000000) scale(0.100000,-0.100000)"
fill="#000000" stroke="none">
<path d="M310 529 c0 -5 -7 -9 -15 -9 -8 0 -15 -6 -15 -14 0 -9 -8 -12 -25 -8
-20 3 -25 0 -25 -16 0 -11 7 -25 16 -33 17 -14 11 -56 -11 -73 -8 -6 -15 -26
-18 -45 -4 -39 -22 -52 -30 -21 -9 33 -26 23 -33 -20 -9 -57 -24 -60 -24 -6 0
25 -4 46 -10 46 -5 0 -10 -18 -10 -40 0 -38 -1 -40 -20 -30 -34 18 -60 3 -60
-34 0 -27 6 -35 36 -49 20 -10 38 -27 41 -38 4 -14 11 -18 24 -14 11 4 19 2
19 -4 0 -17 38 -13 48 5 10 19 32 11 32 -12 0 -8 10 -14 25 -14 14 0 25 5 25
10 0 6 18 10 40 10 22 0 40 -4 40 -10 0 -5 11 -10 25 -10 15 0 25 6 25 14 0
24 20 29 35 10 12 -16 17 -17 34 -7 11 7 27 10 34 7 9 -3 16 3 20 15 3 11 21
28 41 38 30 14 36 22 36 49 0 37 -26 52 -60 34 -19 -10 -20 -8 -20 30 0 22 -4
40 -10 40 -5 0 -10 -21 -10 -46 0 -54 -15 -51 -24 6 -7 42 -24 53 -33 20 -8
-32 -21 -23 -29 18 -3 20 -12 42 -19 48 -23 18 -30 63 -11 70 9 3 16 17 16 31
0 22 -4 25 -25 21 -15 -3 -25 -1 -25 6 0 6 -11 16 -25 23 -14 6 -25 7 -25 2z"/>
</g>
</svg>
