<?xml version="1.0" standalone="no"?>
<!DOCTYPE svg PUBLIC "-//W3C//DTD SVG 20010904//EN"
 "http://www.w3.org/TR/2001/REC-SVG-20010904/DTD/svg10.dtd">
<svg version="1.0" xmlns="http://www.w3.org/2000/svg"
 width="64.000000pt" height="64.000000pt" viewBox="0 0 64.000000 64.000000"
 preserveAspectRatio="xMidYMid meet">
<metadata>
Created by potrace 1.16, written by Peter Selinger 2001-2019
</metadata>
<g transform="translate(0.000000,64.000000) scale(0.100000,-0.100000)"
fill="#000000" stroke="none">
<path d="M140 591 c0 -12 -5 -21 -10 -21 -6 0 -15 -12 -20 -26 -9 -22 -13 -24
-25 -14 -8 7 -15 19 -15 26 0 24 -17 15 -24 -11 -9 -35 2 -72 24 -78 10 -3 25
-18 34 -35 13 -25 14 -36 4 -56 -8 -20 -8 -35 1 -66 10 -33 16 -40 37 -40 19
0 29 7 37 30 l11 30 37 -36 c32 -32 36 -40 29 -65 -5 -16 -6 -29 -2 -29 4 0
-1 -5 -10 -10 -14 -9 -15 -15 -6 -43 6 -17 22 -45 35 -60 12 -16 23 -35 23
-43 0 -8 9 -14 20 -14 11 0 20 6 20 14 0 8 11 27 23 43 34 40 50 90 32 100 -7
5 -15 22 -16 40 -3 26 3 39 31 68 l34 35 12 -30 c10 -22 20 -30 38 -30 21 0
27 7 37 40 9 31 9 46 1 66 -10 20 -9 31 4 56 9 17 24 32 34 35 22 6 33 43 24
78 -7 26 -24 35 -24 11 0 -7 -7 -19 -15 -26 -12 -10 -16 -8 -25 14 -5 14 -14
26 -20 26 -5 0 -10 9 -10 20 0 11 -4 20 -10 20 -5 0 -10 -9 -10 -20 0 -11 -4
-20 -8 -20 -5 0 -6 -22 -2 -50 5 -40 2 -62 -14 -87 -1 0 -18 -4 -38 -8 -31 -6
-38 -4 -38 9 0 8 -9 20 -20 26 -10 6 -22 26 -26 45 -3 19 -10 35 -14 35 -4 0
-11 -16 -14 -35 -4 -19 -16 -39 -26 -45 -11 -6 -20 -18 -20 -27 0 -12 -7 -14
-32 -9 -51 9 -66 35 -58 95 3 28 3 51 -2 51 -4 0 -8 6 -8 14 0 8 -4 18 -10 21
-5 3 -10 -3 -10 -14z"/>
</g>
</svg>
