<?xml version="1.0" standalone="no"?>
<!DOCTYPE svg PUBLIC "-//W3C//DTD SVG 20010904//EN"
 "http://www.w3.org/TR/2001/REC-SVG-20010904/DTD/svg10.dtd">
<svg version="1.0" xmlns="http://www.w3.org/2000/svg"
 width="64.000000pt" height="64.000000pt" viewBox="0 0 64.000000 64.000000"
 preserveAspectRatio="xMidYMid meet">
<metadata>
Created by potrace 1.16, written by Peter Selinger 2001-2019
</metadata>
<g transform="translate(0.000000,64.000000) scale(0.100000,-0.100000)"
fill="#000000" stroke="none">
<path d="M236 500 l-18 -90 -32 27 c-30 25 -31 25 -34 6 -2 -12 12 -45 31 -75
51 -79 50 -88 -11 -143 l-53 -48 -45 44 -44 43 0 -30 c0 -19 16 -56 43 -97 41
-64 44 -66 64 -52 19 13 21 13 27 -8 4 -17 8 -19 18 -9 17 17 48 15 48 -3 0
-25 53 -19 65 8 13 28 37 28 50 -1 12 -26 65 -32 65 -7 0 18 31 20 48 3 10
-10 14 -8 18 9 6 20 8 21 28 8 22 -14 24 -12 64 51 37 58 54 114 35 114 -4 0
-24 -16 -44 -36 l-38 -37 -53 48 c-61 55 -62 63 -12 142 20 30 34 63 32 75 -3
21 -4 20 -35 -6 l-31 -26 -11 50 c-6 27 -14 68 -17 90 -5 30 -11 40 -26 40
-17 0 -18 -5 -13 -52 6 -47 5 -51 -8 -35 -8 9 -21 17 -30 17 -9 0 -21 -8 -27
-17 -9 -14 -10 -6 -5 35 5 46 4 52 -13 52 -14 0 -21 -16 -36 -90z"/>
</g>
</svg>
