<?xml version="1.0" standalone="no"?>
<!DOCTYPE svg PUBLIC "-//W3C//DTD SVG 20010904//EN"
 "http://www.w3.org/TR/2001/REC-SVG-20010904/DTD/svg10.dtd">
<svg version="1.0" xmlns="http://www.w3.org/2000/svg"
 width="64.000000pt" height="64.000000pt" viewBox="0 0 64.000000 64.000000"
 preserveAspectRatio="xMidYMid meet">
<metadata>
Created by potrace 1.16, written by Peter Selinger 2001-2019
</metadata>
<g transform="translate(0.000000,64.000000) scale(0.100000,-0.100000)"
fill="#000000" stroke="none">
<path d="M298 576 c-8 -7 -25 -58 -38 -114 -24 -97 -26 -101 -66 -126 -50 -32
-52 -32 -56 -3 -5 39 -32 26 -41 -21 -8 -41 -10 -43 -38 -37 l-29 7 0 -54 c0
-48 3 -54 30 -70 21 -12 30 -25 30 -42 0 -14 5 -28 10 -31 15 -9 50 4 50 20 0
14 21 25 49 25 13 0 21 -12 27 -42 l9 -43 85 0 85 0 9 43 c6 30 14 42 27 42
28 0 49 -11 49 -25 0 -19 17 -27 40 -20 13 4 20 15 20 31 0 17 9 30 30 42 27
16 30 22 30 71 0 51 -1 53 -24 47 -28 -7 -36 2 -46 48 -7 36 -33 42 -38 9 -2
-13 -6 -23 -9 -23 -16 0 -93 57 -93 68 0 7 -12 54 -26 105 -29 105 -45 124
-76 93z"/>
</g>
</svg>
