<?xml version="1.0" standalone="no"?>
<!DOCTYPE svg PUBLIC "-//W3C//DTD SVG 20010904//EN"
 "http://www.w3.org/TR/2001/REC-SVG-20010904/DTD/svg10.dtd">
<svg version="1.0" xmlns="http://www.w3.org/2000/svg"
 width="64.000000pt" height="64.000000pt" viewBox="0 0 64.000000 64.000000"
 preserveAspectRatio="xMidYMid meet">
<metadata>
Created by potrace 1.16, written by Peter Selinger 2001-2019
</metadata>
<g transform="translate(0.000000,64.000000) scale(0.100000,-0.100000)"
fill="#000000" stroke="none">
<path d="M301 601 c-8 -5 -30 -61 -51 -125 -20 -64 -39 -119 -43 -123 -4 -3
-7 -15 -7 -26 0 -11 -3 -18 -6 -14 -12 11 -62 -15 -68 -36 -9 -35 -7 -72 5
-84 8 -8 8 -17 0 -31 -6 -11 -9 -27 -6 -34 2 -7 9 -32 15 -55 10 -38 14 -43
40 -43 25 0 30 5 39 38 6 20 11 43 11 51 0 11 4 10 13 -3 12 -17 14 -17 20 -2
9 23 117 24 117 0 0 -13 3 -14 15 -4 12 10 15 7 21 -17 13 -61 15 -63 44 -63
26 0 30 5 40 43 6 23 13 48 15 55 3 7 0 22 -6 33 -7 15 -7 24 1 35 20 23 3
103 -23 113 -12 5 -28 6 -34 4 -8 -3 -13 3 -13 14 0 10 -4 23 -9 28 -5 6 -25
62 -45 126 -22 72 -42 119 -52 123 -19 7 -16 8 -33 -3z m-41 -291 c0 -5 -4
-10 -10 -10 -5 0 -10 5 -10 10 0 6 5 10 10 10 6 0 10 -4 10 -10z m140 0 c0 -5
-4 -10 -10 -10 -5 0 -10 5 -10 10 0 6 5 10 10 10 6 0 10 -4 10 -10z"/>
</g>
</svg>
