<?xml version="1.0" standalone="no"?>
<!DOCTYPE svg PUBLIC "-//W3C//DTD SVG 20010904//EN"
 "http://www.w3.org/TR/2001/REC-SVG-20010904/DTD/svg10.dtd">
<svg version="1.0" xmlns="http://www.w3.org/2000/svg"
 width="64.000000pt" height="64.000000pt" viewBox="0 0 64.000000 64.000000"
 preserveAspectRatio="xMidYMid meet">
<metadata>
Created by potrace 1.16, written by Peter Selinger 2001-2019
</metadata>
<g transform="translate(0.000000,64.000000) scale(0.100000,-0.100000)"
fill="#000000" stroke="none">
<path d="M217 602 c-21 -4 -39 -45 -30 -67 3 -9 12 -14 19 -11 7 3 16 1 19 -5
4 -5 16 -8 28 -7 26 4 27 1 27 -57 0 -41 -2 -45 -25 -45 -22 0 -25 -4 -25 -35
0 -27 -4 -35 -18 -35 -14 0 -23 -15 -37 -60 -16 -54 -20 -59 -42 -54 -22 6
-23 4 -23 -43 0 -39 5 -54 23 -71 13 -12 31 -22 40 -22 12 0 17 -9 17 -30 0
-28 3 -30 36 -30 27 0 37 5 41 20 4 16 14 20 53 20 39 0 49 -4 53 -20 4 -15
14 -20 41 -20 33 0 36 2 36 30 0 22 5 30 18 30 34 0 62 42 62 93 0 45 -1 47
-24 41 -22 -5 -26 -1 -43 52 -11 36 -24 59 -35 62 -13 3 -18 14 -18 38 0 30
-3 34 -25 34 -22 0 -25 4 -25 39 0 22 -3 47 -7 56 -5 15 -1 16 25 11 18 -5 33
-3 37 4 5 8 10 8 20 0 9 -8 14 -5 18 11 9 32 -9 66 -37 73 -27 7 -167 6 -199
-2z"/>
</g>
</svg>
