<?xml version="1.0" standalone="no"?>
<!DOCTYPE svg PUBLIC "-//W3C//DTD SVG 20010904//EN"
 "http://www.w3.org/TR/2001/REC-SVG-20010904/DTD/svg10.dtd">
<svg version="1.0" xmlns="http://www.w3.org/2000/svg"
 width="64.000000pt" height="64.000000pt" viewBox="0 0 64.000000 64.000000"
 preserveAspectRatio="xMidYMid meet">
<metadata>
Created by potrace 1.16, written by Peter Selinger 2001-2019
</metadata>
<g transform="translate(0.000000,64.000000) scale(0.100000,-0.100000)"
fill="#000000" stroke="none">
<path d="M245 601 c-45 -9 -46 -45 -3 -58 24 -7 32 -14 30 -29 -1 -10 -6 -48
-10 -84 -7 -64 -7 -65 -39 -68 -28 -3 -33 1 -39 22 -7 31 -39 35 -54 7 -11
-22 -13 -74 -4 -109 9 -31 47 -30 62 3 6 14 16 25 22 25 16 0 11 -19 -11 -41
-18 -18 -21 -29 -16 -69 3 -26 1 -52 -4 -57 -6 -6 -7 -26 -4 -47 7 -34 9 -36
46 -36 22 0 39 5 39 10 0 6 27 10 60 10 33 0 60 -4 60 -10 0 -5 17 -10 39 -10
37 0 39 2 46 36 4 21 2 41 -4 47 -6 6 -8 29 -4 54 5 36 2 50 -16 73 -24 33
-26 40 -11 40 6 0 16 -11 22 -25 15 -33 53 -34 62 -2 9 34 7 86 -4 108 -15 27
-45 24 -58 -7 -10 -20 -18 -25 -40 -22 -25 3 -27 7 -33 63 -4 33 -10 72 -13
86 -7 24 -5 27 29 33 30 6 36 11 33 29 -2 13 -13 24 -28 28 -31 9 -115 9 -155
0z"/>
</g>
</svg>
