<?xml version="1.0" standalone="no"?>
<!DOCTYPE svg PUBLIC "-//W3C//DTD SVG 20010904//EN"
 "http://www.w3.org/TR/2001/REC-SVG-20010904/DTD/svg10.dtd">
<svg version="1.0" xmlns="http://www.w3.org/2000/svg"
 width="64.000000pt" height="64.000000pt" viewBox="0 0 64.000000 64.000000"
 preserveAspectRatio="xMidYMid meet">
<metadata>
Created by potrace 1.16, written by Peter Selinger 2001-2019
</metadata>
<g transform="translate(0.000000,64.000000) scale(0.100000,-0.100000)"
fill="#000000" stroke="none">
<path d="M207 569 c-148 -89 -197 -237 -118 -353 20 -28 57 -60 108 -91 43
-27 80 -50 82 -51 2 -2 -1 -10 -8 -18 -14 -16 4 -26 49 -26 46 0 63 10 48 27
-13 16 -20 10 85 74 82 51 125 108 134 178 12 100 -45 197 -152 259 -108 63
-117 57 -51 -37 31 -43 56 -82 56 -85 0 -11 -46 -6 -62 7 -8 6 -20 38 -27 70
-10 44 -17 57 -31 57 -21 0 -26 -10 -35 -74 -8 -49 -29 -70 -66 -64 -17 3 -13
13 36 86 65 97 57 104 -48 41z"/>
</g>
</svg>
