<?xml version="1.0" standalone="no"?>
<!DOCTYPE svg PUBLIC "-//W3C//DTD SVG 20010904//EN"
 "http://www.w3.org/TR/2001/REC-SVG-20010904/DTD/svg10.dtd">
<svg version="1.0" xmlns="http://www.w3.org/2000/svg"
 width="64.000000pt" height="64.000000pt" viewBox="0 0 64.000000 64.000000"
 preserveAspectRatio="xMidYMid meet">
<metadata>
Created by potrace 1.16, written by Peter Selinger 2001-2019
</metadata>
<g transform="translate(0.000000,64.000000) scale(0.100000,-0.100000)"
fill="#000000" stroke="none">
<path d="M278 598 c-13 -10 -68 -125 -68 -141 0 -2 18 -9 40 -16 38 -11 40
-14 40 -51 0 -33 -3 -40 -20 -40 -11 0 -20 -7 -20 -15 0 -11 -12 -15 -50 -15
l-50 0 0 44 c0 49 -9 61 -40 51 -12 -4 -22 -19 -26 -41 -3 -19 -12 -34 -20
-34 -11 0 -14 -18 -14 -74 0 -41 3 -76 7 -78 5 -1 18 -24 30 -50 38 -80 62
-55 54 55 -2 26 -1 27 53 27 31 0 56 -4 56 -10 0 -5 -7 -10 -16 -10 -10 0 -14
-6 -10 -17 3 -10 8 -40 11 -68 10 -79 13 -85 45 -85 16 0 31 6 34 13 5 9 7 9
12 0 3 -7 18 -13 34 -13 32 0 35 6 45 85 3 28 8 58 11 68 4 11 0 17 -10 17 -9
0 -16 5 -16 10 0 6 24 10 54 10 l53 0 1 -61 c1 -34 3 -63 5 -65 12 -13 37 14
60 64 30 65 39 182 14 182 -8 0 -18 17 -23 38 -7 30 -13 37 -34 37 -23 0 -25
-4 -28 -47 l-3 -48 -50 0 c-37 0 -49 4 -49 15 0 8 -9 15 -20 15 -17 0 -20 7
-20 40 0 37 2 40 40 51 22 7 40 14 40 17 0 15 -56 129 -69 140 -8 6 -27 12
-41 12 -14 0 -33 -6 -42 -12z"/>
</g>
</svg>
