<?xml version="1.0" standalone="no"?>
<!DOCTYPE svg PUBLIC "-//W3C//DTD SVG 20010904//EN"
 "http://www.w3.org/TR/2001/REC-SVG-20010904/DTD/svg10.dtd">
<svg version="1.0" xmlns="http://www.w3.org/2000/svg"
 width="64.000000pt" height="64.000000pt" viewBox="0 0 64.000000 64.000000"
 preserveAspectRatio="xMidYMid meet">
<metadata>
Created by potrace 1.16, written by Peter Selinger 2001-2019
</metadata>
<g transform="translate(0.000000,64.000000) scale(0.100000,-0.100000)"
fill="#000000" stroke="none">
<path d="M302 593 c-6 -10 -13 -34 -17 -53 -4 -19 -13 -44 -21 -55 -7 -11 -16
-42 -20 -70 -6 -42 -8 -46 -15 -26 -6 16 -15 21 -31 19 -18 -2 -25 -13 -33
-45 -11 -45 -35 -80 -35 -51 0 19 -21 29 -47 22 -13 -4 -23 2 -30 18 -10 20
-12 16 -12 -33 -1 -32 6 -69 15 -88 9 -17 13 -39 10 -47 -3 -9 -3 -33 0 -55 6
-35 10 -39 35 -39 29 0 34 12 32 78 -1 6 8 12 18 12 11 0 19 -5 19 -11 0 -6
12 -9 27 -7 19 2 29 10 33 27 5 21 7 22 19 8 10 -13 11 -24 2 -48 -26 -74 1
-119 71 -119 35 1 47 6 62 27 17 23 18 31 6 75 -11 44 -10 52 4 66 15 15 16
14 16 -11 0 -23 4 -27 29 -27 17 0 33 5 36 10 9 14 33 12 32 -2 -2 -67 3 -78
33 -78 32 0 31 -4 34 92 1 26 7 53 14 60 7 7 12 37 12 68 -1 49 -2 53 -15 36
-7 -10 -19 -15 -24 -11 -17 10 -51 -5 -51 -22 0 -30 -27 6 -33 43 -8 49 -24
66 -48 53 -10 -5 -19 -17 -20 -27 -1 -9 -7 9 -14 42 -7 32 -17 61 -22 65 -6 3
-13 24 -17 46 -13 70 -35 94 -54 58z"/>
</g>
</svg>
