<?xml version="1.0" standalone="no"?>
<!DOCTYPE svg PUBLIC "-//W3C//DTD SVG 20010904//EN"
 "http://www.w3.org/TR/2001/REC-SVG-20010904/DTD/svg10.dtd">
<svg version="1.0" xmlns="http://www.w3.org/2000/svg"
 width="64.000000pt" height="64.000000pt" viewBox="0 0 64.000000 64.000000"
 preserveAspectRatio="xMidYMid meet">
<metadata>
Created by potrace 1.16, written by Peter Selinger 2001-2019
</metadata>
<g transform="translate(0.000000,64.000000) scale(0.100000,-0.100000)"
fill="#000000" stroke="none">
<path d="M415 587 c-4 -16 -5 -52 -2 -80 6 -53 -5 -201 -20 -272 -7 -35 -11
-23 -26 105 -10 79 -20 146 -22 148 -7 7 -14 -82 -12 -145 2 -60 -5 -84 -20
-69 -4 4 -7 28 -6 54 3 99 2 113 -6 134 -8 22 -9 22 -14 -7 -3 -16 -11 -82
-18 -145 -12 -104 -14 -111 -22 -75 -16 76 -26 210 -20 271 3 34 1 69 -5 79
-8 15 -11 10 -20 -30 -6 -27 -8 -53 -6 -57 5 -8 -9 -160 -22 -236 -4 -29 -7
-32 -20 -21 -13 10 -15 34 -14 118 1 59 2 124 1 146 -2 65 -19 20 -31 -82 -5
-49 -14 -113 -20 -142 -17 -89 -12 -137 17 -194 l26 -52 11 47 11 47 23 -19
c12 -10 22 -25 22 -33 0 -8 11 -17 25 -19 17 -4 25 -1 25 8 0 8 6 11 15 8 8
-4 15 -12 15 -20 0 -10 12 -14 40 -14 28 0 40 4 40 14 0 8 7 16 15 20 8 3 15
1 15 -4 0 -6 11 -10 25 -10 17 0 25 6 25 18 0 9 11 25 25 34 l24 18 8 -53 9
-52 27 52 c15 30 27 69 27 90 0 73 -48 388 -58 379 -2 -3 -4 -70 -3 -149 1
-115 -2 -147 -13 -156 -12 -10 -16 -7 -20 21 -12 75 -27 228 -23 235 3 5 -1
33 -8 63 -12 51 -13 53 -20 27z"/>
</g>
</svg>
