<?xml version="1.0" standalone="no"?>
<!DOCTYPE svg PUBLIC "-//W3C//DTD SVG 20010904//EN"
 "http://www.w3.org/TR/2001/REC-SVG-20010904/DTD/svg10.dtd">
<svg version="1.0" xmlns="http://www.w3.org/2000/svg"
 width="64.000000pt" height="64.000000pt" viewBox="0 0 64.000000 64.000000"
 preserveAspectRatio="xMidYMid meet">
<metadata>
Created by potrace 1.16, written by Peter Selinger 2001-2019
</metadata>
<g transform="translate(0.000000,64.000000) scale(0.100000,-0.100000)"
fill="#000000" stroke="none">
<path d="M290 600 c0 -5 -6 -10 -14 -10 -8 0 -17 -12 -21 -27 -5 -21 -2 -32
14 -44 26 -21 26 -34 3 -64 -18 -22 -18 -22 -41 -4 -17 14 -22 26 -18 45 6 33
-25 49 -72 37 -18 -5 -31 -10 -30 -13 1 -3 -3 -16 -10 -29 -20 -36 3 -74 42
-68 22 3 32 -2 48 -25 11 -15 17 -32 14 -38 -11 -17 -68 -11 -90 10 -17 16
-24 17 -44 7 -46 -22 -46 -102 -1 -124 21 -10 28 -9 45 7 12 11 29 20 38 20
16 0 16 -2 0 -35 -9 -19 -22 -35 -30 -35 -18 0 -36 -39 -27 -58 4 -9 8 -23 8
-31 1 -20 64 -35 91 -23 17 8 21 17 18 39 -4 24 2 34 33 58 l37 28 -7 -59 c-4
-32 -8 -75 -9 -94 l-2 -35 55 0 55 0 -2 35 c-2 19 -6 61 -9 94 l-6 58 37 -28
c29 -24 35 -34 32 -57 -5 -37 24 -52 74 -40 19 5 32 11 30 14 -2 2 1 15 8 28
11 19 11 28 1 47 -7 13 -19 24 -27 26 -8 2 -21 18 -28 35 -13 30 -13 33 4 33
10 0 24 -7 31 -15 16 -19 54 -19 70 0 15 18 16 81 1 99 -19 23 -49 25 -67 5
-18 -20 -78 -26 -89 -9 -3 6 3 23 14 38 16 23 26 28 50 24 25 -3 32 0 42 22 9
20 9 29 0 40 -7 8 -10 20 -6 26 3 5 -2 13 -12 16 -10 3 -25 9 -33 14 -9 4 -26
2 -41 -6 -21 -11 -25 -18 -21 -40 4 -20 -1 -31 -18 -44 -23 -17 -24 -17 -42 5
-23 30 -23 43 3 64 16 12 19 23 14 44 -4 15 -13 27 -21 27 -8 0 -14 5 -14 10
0 6 -13 10 -30 10 -16 0 -30 -4 -30 -10z"/>
</g>
</svg>
