<?xml version="1.0" standalone="no"?>
<!DOCTYPE svg PUBLIC "-//W3C//DTD SVG 20010904//EN"
 "http://www.w3.org/TR/2001/REC-SVG-20010904/DTD/svg10.dtd">
<svg version="1.0" xmlns="http://www.w3.org/2000/svg"
 width="64.000000pt" height="64.000000pt" viewBox="0 0 64.000000 64.000000"
 preserveAspectRatio="xMidYMid meet">
<metadata>
Created by potrace 1.16, written by Peter Selinger 2001-2019
</metadata>
<g transform="translate(0.000000,64.000000) scale(0.100000,-0.100000)"
fill="#000000" stroke="none">
<path d="M140 597 c0 -8 -9 -92 -19 -188 -20 -180 -18 -271 5 -290 7 -6 10
-17 7 -25 -4 -10 4 -14 32 -14 32 0 36 2 30 20 -4 14 -2 20 8 20 16 0 47 -31
47 -48 0 -7 7 -12 15 -12 9 0 18 -7 21 -15 8 -20 60 -20 68 0 3 8 12 15 21 15
8 0 15 6 15 13 0 19 47 61 54 49 3 -6 3 -17 0 -26 -5 -13 1 -16 31 -16 28 0
36 3 32 14 -3 8 0 19 7 25 23 19 24 110 5 286 -10 94 -19 178 -19 188 0 10 -8
17 -20 17 -19 0 -20 -7 -20 -95 0 -88 -2 -95 -20 -95 -18 0 -20 -8 -22 -92 -2
-73 -6 -93 -18 -96 -10 -2 -21 14 -33 48 -16 44 -21 50 -46 50 -23 0 -32 -7
-45 -34 -9 -19 -16 -42 -16 -51 0 -12 -5 -15 -16 -11 -9 3 -18 6 -20 6 -2 0
-4 41 -4 90 0 83 -1 90 -20 90 -19 0 -20 7 -20 95 0 88 -1 95 -20 95 -11 0
-20 -6 -20 -13z"/>
</g>
</svg>
