<?xml version="1.0" standalone="no"?>
<!DOCTYPE svg PUBLIC "-//W3C//DTD SVG 20010904//EN"
 "http://www.w3.org/TR/2001/REC-SVG-20010904/DTD/svg10.dtd">
<svg version="1.0" xmlns="http://www.w3.org/2000/svg"
 width="64.000000pt" height="64.000000pt" viewBox="0 0 64.000000 64.000000"
 preserveAspectRatio="xMidYMid meet">
<metadata>
Created by potrace 1.16, written by Peter Selinger 2001-2019
</metadata>
<g transform="translate(0.000000,64.000000) scale(0.100000,-0.100000)"
fill="#000000" stroke="none">
<path d="M280 607 c0 -2 -7 -55 -15 -118 -9 -63 -16 -134 -16 -159 -1 -43 -28
-90 -51 -90 -4 0 -8 29 -8 65 0 51 -3 65 -15 65 -8 0 -15 -6 -15 -14 0 -9 -7
-12 -18 -9 -16 4 -21 -8 -36 -97 -30 -171 -7 -237 74 -209 25 9 30 16 30 44 0
36 14 54 24 30 3 -8 14 -15 25 -15 11 0 23 -5 26 -10 8 -13 75 -13 75 0 0 6 9
10 20 10 11 0 23 7 26 15 9 23 24 7 24 -25 0 -42 39 -67 79 -50 25 10 30 19
36 61 10 71 -23 240 -47 247 -10 2 -18 8 -18 13 0 5 -7 9 -15 9 -12 0 -15 -14
-15 -65 0 -36 -4 -65 -8 -65 -21 0 -49 48 -51 85 0 22 -8 91 -16 154 -8 63
-15 118 -15 123 0 4 -4 8 -10 8 -5 0 -10 -6 -10 -14 0 -9 -7 -12 -20 -9 -11 3
-20 9 -20 14 0 5 -4 9 -10 9 -5 0 -10 -1 -10 -3z"/>
</g>
</svg>
