<?xml version="1.0" standalone="no"?>
<!DOCTYPE svg PUBLIC "-//W3C//DTD SVG 20010904//EN"
 "http://www.w3.org/TR/2001/REC-SVG-20010904/DTD/svg10.dtd">
<svg version="1.0" xmlns="http://www.w3.org/2000/svg"
 width="64.000000pt" height="64.000000pt" viewBox="0 0 64.000000 64.000000"
 preserveAspectRatio="xMidYMid meet">
<metadata>
Created by potrace 1.16, written by Peter Selinger 2001-2019
</metadata>
<g transform="translate(0.000000,64.000000) scale(0.100000,-0.100000)"
fill="#000000" stroke="none">
<path d="M156 568 c-3 -24 -7 -54 -8 -68 -3 -20 -8 -24 -29 -22 l-26 3 -6
-123 -7 -122 40 -70 c22 -38 40 -75 40 -82 0 -9 11 -14 30 -14 25 0 30 4 30
24 0 43 19 39 26 -4 6 -34 10 -41 25 -37 12 3 19 0 19 -9 0 -9 11 -14 30 -14
17 0 30 4 30 9 0 5 8 11 19 14 12 3 21 17 25 41 8 40 26 40 26 0 0 -20 5 -24
30 -24 23 0 30 5 30 19 0 11 4 22 9 25 5 3 23 32 40 65 30 58 30 59 24 181
l-6 122 -29 -6 c-27 -5 -28 -4 -28 33 0 21 -3 53 -6 70 -5 26 -11 31 -34 31
-31 0 -30 6 -51 -210 -7 -69 -15 -129 -19 -133 -4 -4 -13 6 -20 22 -18 44 -61
44 -83 -1 -20 -41 -23 -33 -37 112 -20 216 -19 210 -51 210 -25 0 -28 -4 -33
-42z"/>
</g>
</svg>
