<?xml version="1.0" standalone="no"?>
<!DOCTYPE svg PUBLIC "-//W3C//DTD SVG 20010904//EN"
 "http://www.w3.org/TR/2001/REC-SVG-20010904/DTD/svg10.dtd">
<svg version="1.0" xmlns="http://www.w3.org/2000/svg"
 width="64.000000pt" height="64.000000pt" viewBox="0 0 64.000000 64.000000"
 preserveAspectRatio="xMidYMid meet">
<metadata>
Created by potrace 1.16, written by Peter Selinger 2001-2019
</metadata>
<g transform="translate(0.000000,64.000000) scale(0.100000,-0.100000)"
fill="#000000" stroke="none">
<path d="M297 588 c-3 -13 -9 -60 -13 -106 -3 -45 -10 -84 -13 -87 -4 -2 -16
27 -26 66 -11 38 -24 69 -30 69 -30 -1 -33 -15 -25 -125 5 -60 6 -113 1 -118
-5 -5 -29 21 -55 57 -41 58 -50 65 -66 56 -19 -10 -19 -12 5 -67 14 -31 37
-84 52 -117 14 -34 39 -78 55 -98 15 -20 28 -43 28 -50 0 -16 53 -41 77 -36
10 2 19 13 21 26 4 29 20 29 24 0 2 -18 11 -24 36 -26 18 -2 32 1 32 7 0 6 7
11 15 11 8 0 15 7 15 16 0 8 13 32 29 52 44 56 132 264 119 279 -17 21 -24 16
-74 -52 -26 -36 -51 -62 -55 -58 -4 5 -4 58 1 118 8 110 5 124 -26 125 -6 0
-20 -31 -30 -70 -10 -38 -21 -70 -25 -70 -3 0 -9 39 -13 88 -9 113 -14 132
-36 132 -10 0 -20 -10 -23 -22z"/>
</g>
</svg>
