<?xml version="1.0" standalone="no"?>
<!DOCTYPE svg PUBLIC "-//W3C//DTD SVG 20010904//EN"
 "http://www.w3.org/TR/2001/REC-SVG-20010904/DTD/svg10.dtd">
<svg version="1.0" xmlns="http://www.w3.org/2000/svg"
 width="64.000000pt" height="64.000000pt" viewBox="0 0 64.000000 64.000000"
 preserveAspectRatio="xMidYMid meet">
<metadata>
Created by potrace 1.16, written by Peter Selinger 2001-2019
</metadata>
<g transform="translate(0.000000,64.000000) scale(0.100000,-0.100000)"
fill="#000000" stroke="none">
<path d="M297 548 c-3 -13 -9 -51 -13 -85 -6 -61 -7 -61 -48 -77 -42 -16 -44
-16 -116 14 -57 23 -75 27 -82 18 -13 -22 -10 -26 57 -75 61 -46 64 -50 65
-90 0 -44 0 -44 -110 -132 -22 -17 -23 -21 -10 -35 13 -13 26 -10 109 25 51
21 95 39 97 39 2 0 4 -7 4 -15 0 -8 9 -15 20 -15 11 0 20 5 20 10 0 6 14 10
30 10 17 0 30 -4 30 -10 0 -5 9 -10 20 -10 12 0 20 7 20 16 0 9 5 14 13 11
150 -64 191 -77 198 -65 14 21 12 23 -56 74 -62 47 -65 50 -65 94 0 40 4 48
33 68 17 12 48 35 67 51 29 24 32 31 22 44 -12 14 -21 12 -84 -14 -72 -29 -72
-29 -114 -12 -41 17 -42 19 -49 73 -10 94 -15 110 -35 110 -10 0 -20 -9 -23
-22z"/>
</g>
</svg>
