<?xml version="1.0" standalone="no"?>
<!DOCTYPE svg PUBLIC "-//W3C//DTD SVG 20010904//EN"
 "http://www.w3.org/TR/2001/REC-SVG-20010904/DTD/svg10.dtd">
<svg version="1.0" xmlns="http://www.w3.org/2000/svg"
 width="64.000000pt" height="64.000000pt" viewBox="0 0 64.000000 64.000000"
 preserveAspectRatio="xMidYMid meet">
<metadata>
Created by potrace 1.16, written by Peter Selinger 2001-2019
</metadata>
<g transform="translate(0.000000,64.000000) scale(0.100000,-0.100000)"
fill="#000000" stroke="none">
<path d="M150 441 c0 -103 -4 -172 -10 -176 -17 -10 -13 -191 5 -209 25 -24
55 -29 98 -15 32 10 41 11 45 1 5 -16 59 -16 64 0 4 10 14 9 47 -2 37 -12 46
-11 76 3 l35 17 0 99 c0 56 -4 103 -10 106 -6 4 -10 73 -10 176 l0 169 -50 0
-50 0 -2 -97 c-2 -54 -3 -130 -3 -170 0 -74 -17 -115 -30 -74 -9 29 -61 29
-70 0 -13 -41 -30 0 -30 74 0 40 -1 116 -3 170 l-2 97 -50 0 -50 0 0 -169z"/>
</g>
</svg>
