<?xml version="1.0" standalone="no"?>
<!DOCTYPE svg PUBLIC "-//W3C//DTD SVG 20010904//EN"
 "http://www.w3.org/TR/2001/REC-SVG-20010904/DTD/svg10.dtd">
<svg version="1.0" xmlns="http://www.w3.org/2000/svg"
 width="64.000000pt" height="64.000000pt" viewBox="0 0 64.000000 64.000000"
 preserveAspectRatio="xMidYMid meet">
<metadata>
Created by potrace 1.16, written by Peter Selinger 2001-2019
</metadata>
<g transform="translate(0.000000,64.000000) scale(0.100000,-0.100000)"
fill="#000000" stroke="none">
<path d="M310 546 c0 -12 -11 -43 -24 -68 -13 -25 -26 -57 -29 -69 -2 -13 -5
2 -6 34 -1 43 -5 57 -16 57 -11 0 -15 -12 -15 -49 0 -57 -15 -105 -30 -96 -5
3 -10 31 -10 61 0 30 -4 54 -10 54 -11 0 -16 -22 -24 -98 -3 -29 -8 -57 -11
-62 -14 -22 -25 4 -25 56 0 72 -20 70 -22 -3 -2 -57 -2 -57 -5 -10 -2 26 -8
47 -13 47 -11 0 -35 -161 -35 -243 0 -49 4 -70 15 -77 21 -14 30 -12 30 5 0 8
9 15 19 15 21 0 31 19 31 56 0 21 3 23 29 18 23 -5 30 -2 36 15 6 19 8 19 21
6 19 -18 19 -18 38 0 9 10 37 17 70 18 45 2 56 0 59 -15 6 -22 21 -23 41 -3
13 13 15 13 21 -6 6 -17 13 -20 35 -15 27 5 29 3 32 -32 2 -29 8 -38 25 -40
12 -2 23 -10 25 -18 3 -13 6 -12 26 1 16 12 22 26 22 53 0 56 -32 262 -41 262
-4 0 -10 -21 -12 -47 -3 -47 -3 -47 -5 10 -2 73 -22 75 -22 3 0 -52 -11 -78
-25 -56 -3 5 -8 33 -11 62 -8 76 -13 98 -24 98 -6 0 -10 -24 -10 -54 0 -30 -5
-58 -10 -61 -15 -9 -30 39 -30 96 0 37 -4 49 -15 49 -11 0 -15 -14 -16 -57 -1
-32 -4 -48 -6 -36 -2 13 -15 43 -29 68 -13 25 -24 57 -24 71 0 13 -4 24 -10
24 -5 0 -10 -11 -10 -24z m-173 -318 c-3 -8 -6 -5 -6 6 -1 11 2 17 5 13 3 -3
4 -12 1 -19z"/>
</g>
</svg>
