<?xml version="1.0" standalone="no"?>
<!DOCTYPE svg PUBLIC "-//W3C//DTD SVG 20010904//EN"
 "http://www.w3.org/TR/2001/REC-SVG-20010904/DTD/svg10.dtd">
<svg version="1.0" xmlns="http://www.w3.org/2000/svg"
 width="64.000000pt" height="64.000000pt" viewBox="0 0 64.000000 64.000000"
 preserveAspectRatio="xMidYMid meet">
<metadata>
Created by potrace 1.16, written by Peter Selinger 2001-2019
</metadata>
<g transform="translate(0.000000,64.000000) scale(0.100000,-0.100000)"
fill="#000000" stroke="none">
<path d="M295 570 c-6 -36 -13 -43 -76 -79 -68 -39 -69 -40 -105 -25 -30 13
-38 13 -45 2 -13 -19 -12 -21 21 -43 29 -20 30 -22 30 -105 0 -83 -1 -85 -30
-105 -33 -22 -34 -24 -21 -43 7 -11 15 -11 45 2 34 14 39 14 71 -5 19 -12 35
-27 35 -34 0 -8 14 -15 33 -17 29 -3 33 -7 41 -45 12 -59 40 -59 52 0 8 38 12
42 42 45 18 2 32 9 32 17 0 7 16 22 35 34 32 19 37 19 71 5 30 -13 38 -13 45
-2 13 19 12 21 -21 43 -29 20 -30 22 -30 105 0 83 1 85 30 105 33 22 34 24 21
43 -7 11 -15 11 -44 -2 -36 -15 -37 -14 -106 25 -63 37 -70 44 -76 80 -5 29
-12 39 -25 39 -13 0 -20 -10 -25 -40z m-16 -86 c-15 -19 -89 -57 -89 -47 0 7
87 62 99 63 2 0 -2 -7 -10 -16z m171 -47 c0 -10 -77 33 -93 51 -6 8 12 2 41
-14 28 -16 52 -33 52 -37z m-293 -144 c-2 -16 -4 -3 -4 27 0 30 2 43 4 28 2
-16 2 -40 0 -55z m330 0 c-2 -16 -4 -3 -4 27 0 30 2 43 4 28 2 -16 2 -40 0
-55z m-267 -104 c0 -4 -7 -6 -15 -3 -8 4 -15 10 -15 15 0 4 7 6 15 3 8 -4 15
-10 15 -15z m220 1 c-8 -5 -17 -7 -19 -4 -3 3 1 9 9 14 8 5 17 7 19 4 3 -3 -1
-9 -9 -14z"/>
</g>
</svg>
