<?xml version="1.0" standalone="no"?>
<!DOCTYPE svg PUBLIC "-//W3C//DTD SVG 20010904//EN"
 "http://www.w3.org/TR/2001/REC-SVG-20010904/DTD/svg10.dtd">
<svg version="1.0" xmlns="http://www.w3.org/2000/svg"
 width="64.000000pt" height="64.000000pt" viewBox="0 0 64.000000 64.000000"
 preserveAspectRatio="xMidYMid meet">
<metadata>
Created by potrace 1.16, written by Peter Selinger 2001-2019
</metadata>
<g transform="translate(0.000000,64.000000) scale(0.100000,-0.100000)"
fill="#000000" stroke="none">
<path d="M295 573 c-9 -53 -82 -224 -103 -239 -9 -7 -20 -10 -23 -8 -10 6 -32
-152 -25 -172 3 -9 12 -14 20 -11 10 4 13 -4 13 -26 0 -85 0 -85 43 -85 45 -1
42 -9 42 123 -1 38 2 64 6 58 11 -18 55 -25 84 -14 l26 10 0 -57 c0 -129 -3
-121 42 -120 43 0 43 0 43 85 0 22 3 30 13 26 23 -9 27 23 13 114 -7 48 -14
82 -17 75 -13 -40 -110 142 -127 241 -4 28 -11 37 -25 37 -14 0 -21 -9 -25
-37z"/>
</g>
</svg>
