<?xml version="1.0" standalone="no"?>
<!DOCTYPE svg PUBLIC "-//W3C//DTD SVG 20010904//EN"
 "http://www.w3.org/TR/2001/REC-SVG-20010904/DTD/svg10.dtd">
<svg version="1.0" xmlns="http://www.w3.org/2000/svg"
 width="64.000000pt" height="64.000000pt" viewBox="0 0 64.000000 64.000000"
 preserveAspectRatio="xMidYMid meet">
<metadata>
Created by potrace 1.16, written by Peter Selinger 2001-2019
</metadata>
<g transform="translate(0.000000,64.000000) scale(0.100000,-0.100000)"
fill="#000000" stroke="none">
<path d="M190 598 c0 -7 -7 -69 -14 -138 -8 -69 -12 -141 -9 -160 7 -49 53
-84 53 -40 0 31 20 24 27 -10 3 -16 9 -30 14 -30 5 0 9 -43 9 -95 l0 -95 50 0
50 0 0 95 c0 57 4 95 10 95 6 0 10 8 10 19 0 10 7 24 15 31 13 10 15 9 15 -9
0 -45 46 -11 53 39 2 19 -1 91 -9 160 -8 69 -14 131 -14 138 0 6 -7 12 -15 12
-11 0 -15 -12 -15 -44 0 -29 -5 -46 -15 -49 -10 -4 -15 -25 -17 -68 -3 -69
-20 -87 -36 -39 -8 20 -18 30 -32 30 -14 0 -24 -10 -32 -30 -16 -48 -32 -30
-38 41 -3 44 -9 63 -17 62 -9 -2 -13 12 -13 47 0 38 -4 50 -15 50 -8 0 -15 -6
-15 -12z m160 -483 l0 -65 -30 0 c-30 0 -30 0 -30 57 0 65 7 66 16 2 9 -67 18
-69 28 -4 3 22 5 48 6 58 0 9 2 17 5 17 3 0 5 -29 5 -65z"/>
</g>
</svg>
