<?xml version="1.0" standalone="no"?>
<!DOCTYPE svg PUBLIC "-//W3C//DTD SVG 20010904//EN"
 "http://www.w3.org/TR/2001/REC-SVG-20010904/DTD/svg10.dtd">
<svg version="1.0" xmlns="http://www.w3.org/2000/svg"
 width="64.000000pt" height="64.000000pt" viewBox="0 0 64.000000 64.000000"
 preserveAspectRatio="xMidYMid meet">
<metadata>
Created by potrace 1.16, written by Peter Selinger 2001-2019
</metadata>
<g transform="translate(0.000000,64.000000) scale(0.100000,-0.100000)"
fill="#000000" stroke="none">
<path d="M306 594 c-3 -9 -6 -33 -6 -55 0 -42 -16 -54 -23 -16 -3 22 -4 21
-10 -3 -3 -14 -9 -55 -12 -93 -4 -42 -11 -67 -18 -66 -44 5 -47 1 -41 -58 4
-48 2 -62 -15 -83 l-21 -25 0 53 c0 37 -4 54 -15 58 -9 4 -15 19 -15 40 0 22
-5 34 -13 34 -16 0 -44 -262 -33 -307 12 -45 46 -59 46 -18 0 15 6 25 15 25 8
0 19 9 25 20 7 14 21 20 44 20 20 0 36 6 39 14 5 12 13 12 40 4 25 -8 44 -8
66 0 26 9 33 9 38 -3 3 -9 18 -15 34 -15 17 0 36 -9 46 -20 10 -11 23 -20 30
-20 7 0 13 -11 13 -25 0 -33 28 -23 37 13 8 33 -16 293 -28 307 -6 5 -9 1 -9
-10 0 -11 -7 -33 -15 -49 -8 -15 -15 -49 -15 -75 l0 -46 -20 25 c-14 18 -20
41 -20 83 0 54 -1 57 -24 57 -22 0 -25 5 -31 58 -3 31 -9 73 -12 92 -5 28 -7
30 -11 13 -5 -35 -22 -27 -22 10 0 46 -10 77 -25 77 -7 0 -16 -7 -19 -16z
m-36 -278 c0 -3 -4 -8 -10 -11 -5 -3 -10 -1 -10 4 0 6 5 11 10 11 6 0 10 -2
10 -4z"/>
</g>
</svg>
