<?xml version="1.0" standalone="no"?>
<!DOCTYPE svg PUBLIC "-//W3C//DTD SVG 20010904//EN"
 "http://www.w3.org/TR/2001/REC-SVG-20010904/DTD/svg10.dtd">
<svg version="1.0" xmlns="http://www.w3.org/2000/svg"
 width="64.000000pt" height="64.000000pt" viewBox="0 0 64.000000 64.000000"
 preserveAspectRatio="xMidYMid meet">
<metadata>
Created by potrace 1.16, written by Peter Selinger 2001-2019
</metadata>
<g transform="translate(0.000000,64.000000) scale(0.100000,-0.100000)"
fill="#000000" stroke="none">
<path d="M295 571 c-6 -36 -10 -39 -60 -57 -51 -17 -55 -17 -73 -1 -20 19 -48
22 -56 8 -4 -5 5 -22 18 -38 l24 -28 -23 -52 c-20 -45 -28 -53 -59 -59 -52 -9
-50 -40 3 -49 36 -6 39 -10 57 -60 17 -51 17 -55 1 -73 -19 -20 -22 -48 -8
-56 5 -4 23 5 40 19 30 26 30 26 50 6 11 -11 32 -21 48 -23 23 -2 30 -10 37
-40 13 -53 42 -52 51 2 6 37 9 40 40 40 20 0 35 6 39 15 7 19 40 19 56 0 14
-17 46 -20 54 -6 4 5 -5 22 -18 38 l-24 28 23 52 c20 45 28 53 59 59 52 9 50
40 -3 49 -36 6 -39 10 -57 60 -17 51 -17 55 -1 73 19 20 22 48 8 56 -5 4 -22
-5 -38 -18 l-28 -24 -52 23 c-45 20 -53 28 -59 59 -9 52 -40 50 -49 -3z m-11
-81 c-5 -5 -25 -12 -44 -15 l-35 -6 30 15 c35 17 64 21 49 6z m111 -2 c14 -6
25 -15 25 -19 0 -9 -47 8 -64 23 -15 12 9 10 39 -4z m101 -132 c-4 -13 -26 39
-26 62 1 9 7 2 16 -17 8 -19 13 -39 10 -45z m-328 37 c-15 -34 -28 -51 -28
-35 0 18 22 62 31 62 5 0 3 -12 -3 -27z m-3 -153 l6 -35 -15 34 c-18 38 -21
60 -6 45 5 -5 12 -25 15 -44z m325 10 c-7 -16 -17 -30 -22 -30 -5 0 -7 4 -4 9
3 4 10 21 16 36 6 15 13 25 17 22 3 -4 0 -20 -7 -37z m-205 -100 c3 -5 1 -10
-4 -10 -6 0 -11 5 -11 10 0 6 2 10 4 10 3 0 8 -4 11 -10z m85 0 c0 -5 -5 -10
-11 -10 -5 0 -7 5 -4 10 3 6 8 10 11 10 2 0 4 -4 4 -10z"/>
</g>
</svg>
