<?xml version="1.0" standalone="no"?>
<!DOCTYPE svg PUBLIC "-//W3C//DTD SVG 20010904//EN"
 "http://www.w3.org/TR/2001/REC-SVG-20010904/DTD/svg10.dtd">
<svg version="1.0" xmlns="http://www.w3.org/2000/svg"
 width="64.000000pt" height="64.000000pt" viewBox="0 0 64.000000 64.000000"
 preserveAspectRatio="xMidYMid meet">
<metadata>
Created by potrace 1.16, written by Peter Selinger 2001-2019
</metadata>
<g transform="translate(0.000000,64.000000) scale(0.100000,-0.100000)"
fill="#000000" stroke="none">
<path d="M180 573 c0 -20 -7 -44 -16 -54 -14 -16 -15 -27 -3 -104 10 -69 10
-104 0 -182 -12 -87 -11 -98 3 -109 10 -7 16 -26 16 -52 l0 -41 40 1 c42 0 47
9 42 69 -1 9 8 19 19 22 16 4 18 11 13 31 -9 39 3 76 26 76 23 0 34 -30 25
-71 -6 -26 -4 -31 14 -36 12 -3 21 -13 20 -22 -6 -60 -1 -69 41 -69 39 -1 40
0 40 35 0 20 7 44 16 54 14 16 15 27 3 104 -10 69 -10 104 0 182 12 87 11 98
-3 109 -10 7 -16 26 -16 52 l0 41 -40 -1 c-42 0 -47 -9 -42 -69 1 -9 -8 -19
-19 -22 -15 -4 -19 -11 -15 -29 3 -13 8 -41 11 -62 6 -36 5 -38 -9 -27 -9 8
-16 24 -16 37 0 13 -4 24 -10 24 -5 0 -10 -11 -10 -24 0 -13 -7 -30 -16 -37
-15 -12 -16 -10 -10 19 3 17 9 46 12 63 5 25 2 31 -15 36 -12 3 -21 13 -20 22
6 60 1 69 -41 69 -39 1 -40 0 -40 -35z m87 -85 c-3 -8 -6 -5 -6 6 -1 11 2 17
5 13 3 -3 4 -12 1 -19z m110 -350 c-3 -8 -6 -5 -6 6 -1 11 2 17 5 13 3 -3 4
-12 1 -19z"/>
</g>
</svg>
