<?xml version="1.0" standalone="no"?>
<!DOCTYPE svg PUBLIC "-//W3C//DTD SVG 20010904//EN"
 "http://www.w3.org/TR/2001/REC-SVG-20010904/DTD/svg10.dtd">
<svg version="1.0" xmlns="http://www.w3.org/2000/svg"
 width="64.000000pt" height="64.000000pt" viewBox="0 0 64.000000 64.000000"
 preserveAspectRatio="xMidYMid meet">
<metadata>
Created by potrace 1.16, written by Peter Selinger 2001-2019
</metadata>
<g transform="translate(0.000000,64.000000) scale(0.100000,-0.100000)"
fill="#000000" stroke="none">
<path d="M290 596 c0 -8 -6 -21 -13 -28 -7 -7 -19 -38 -25 -69 -8 -35 -22 -65
-37 -79 l-25 -23 0 32 c0 30 -2 32 -16 20 -13 -11 -17 -10 -25 4 -14 24 -39
21 -39 -5 0 -20 -1 -21 -20 -3 -20 18 -20 17 -20 -30 0 -41 -2 -46 -15 -35
-13 10 -15 9 -15 -12 0 -13 7 -33 15 -45 10 -14 16 -53 18 -119 3 -99 9 -124
29 -124 7 0 6 6 -2 15 -10 12 -10 15 4 15 9 0 16 -6 16 -13 0 -8 6 -14 14 -14
8 0 12 6 9 14 -3 7 0 13 6 13 6 0 11 -5 11 -11 0 -6 5 -9 11 -7 8 3 13 36 14
90 2 48 6 91 9 97 14 23 35 10 42 -24 4 -25 11 -35 25 -35 17 0 19 -9 19 -95
l0 -95 40 0 40 0 0 95 c0 86 2 95 19 95 14 0 21 10 25 35 7 36 13 40 32 27 17
-11 32 -125 20 -145 -8 -12 -8 -22 0 -34 14 -23 36 -29 28 -9 -8 21 6 20 22
-1 13 -17 13 -17 14 0 0 9 7 17 15 17 9 0 12 -6 8 -17 -5 -15 -4 -16 8 -5 9 8
14 44 16 113 2 69 8 108 18 122 20 28 20 61 0 53 -12 -4 -15 3 -15 34 0 41 -7
49 -28 28 -9 -9 -12 -7 -12 10 0 25 -27 30 -36 7 -4 -10 -13 -13 -25 -10 -15
5 -19 1 -19 -21 l0 -27 -24 22 c-13 12 -29 44 -36 69 -21 87 -42 121 -72 122
-18 0 -28 -5 -28 -14z"/>
</g>
</svg>
