<?xml version="1.0" standalone="no"?>
<!DOCTYPE svg PUBLIC "-//W3C//DTD SVG 20010904//EN"
 "http://www.w3.org/TR/2001/REC-SVG-20010904/DTD/svg10.dtd">
<svg version="1.0" xmlns="http://www.w3.org/2000/svg"
 width="64.000000pt" height="64.000000pt" viewBox="0 0 64.000000 64.000000"
 preserveAspectRatio="xMidYMid meet">
<metadata>
Created by potrace 1.16, written by Peter Selinger 2001-2019
</metadata>
<g transform="translate(0.000000,64.000000) scale(0.100000,-0.100000)"
fill="#000000" stroke="none">
<path d="M157 571 c7 -50 -24 -225 -48 -273 -11 -21 -19 -47 -19 -59 l0 -22
24 22 24 23 4 -24 c2 -17 10 -24 31 -26 21 -3 27 -8 23 -19 -3 -8 -6 -21 -6
-28 0 -8 -7 -11 -20 -8 -25 7 -25 -5 0 -37 11 -14 20 -40 20 -57 0 -26 4 -33
20 -33 14 0 20 7 20 23 0 13 11 34 24 47 l25 23 7 -27 c5 -20 12 -26 35 -26
22 0 30 6 35 26 l6 25 24 -22 c13 -12 24 -33 24 -46 0 -16 6 -23 20 -23 16 0
20 7 20 33 0 17 9 43 20 57 25 32 25 44 0 37 -13 -3 -20 0 -20 8 0 7 -3 20 -6
28 -4 11 2 16 22 19 20 2 30 10 34 27 5 21 7 22 19 7 33 -40 41 -6 12 52 -24
48 -55 223 -48 273 5 37 -5 53 -17 27 -5 -10 -7 -10 -12 0 -12 27 -21 10 -17
-35 5 -72 -28 -227 -49 -231 -12 -2 -23 8 -35 32 -21 46 -43 46 -68 1 -11 -22
-25 -35 -34 -33 -21 4 -41 98 -44 200 -2 74 -8 93 -21 66 -5 -10 -7 -10 -12 0
-12 26 -22 10 -17 -27z m90 -357 c2 -5 -3 -19 -12 -29 -14 -19 -14 -18 -15 13
0 31 18 42 27 16z m173 -14 c0 -16 -2 -30 -5 -30 -9 0 -26 41 -20 50 12 20 25
9 25 -20z"/>
</g>
</svg>
