<?xml version="1.0" standalone="no"?>
<!DOCTYPE svg PUBLIC "-//W3C//DTD SVG 20010904//EN"
 "http://www.w3.org/TR/2001/REC-SVG-20010904/DTD/svg10.dtd">
<svg version="1.0" xmlns="http://www.w3.org/2000/svg"
 width="64.000000pt" height="64.000000pt" viewBox="0 0 64.000000 64.000000"
 preserveAspectRatio="xMidYMid meet">
<metadata>
Created by potrace 1.16, written by Peter Selinger 2001-2019
</metadata>
<g transform="translate(0.000000,64.000000) scale(0.100000,-0.100000)"
fill="#000000" stroke="none">
<path d="M150 596 c0 -8 -6 -17 -12 -19 -10 -4 -10 -6 0 -6 16 -1 16 -45 0
-71 -8 -13 -9 -23 -3 -29 6 -6 8 -32 6 -58 -6 -76 -19 -23 -21 82 -1 151 -17
75 -24 -116 -8 -195 -3 -220 46 -240 26 -10 33 -9 59 10 16 12 34 19 39 16 6
-3 10 -34 10 -69 l0 -62 70 0 70 0 0 61 c0 75 13 92 45 59 32 -32 50 -30 87 6
l30 30 -7 183 c-7 196 -24 275 -25 122 -2 -105 -15 -158 -21 -82 -2 26 0 52 6
58 6 6 5 16 -3 29 -16 26 -15 67 0 73 10 4 10 6 1 6 -7 1 -13 8 -13 16 0 20
-6 19 -30 -5 -11 -11 -15 -20 -10 -20 14 0 12 -54 -2 -68 -9 -9 -10 -17 -2
-30 7 -10 8 -36 5 -62 l-7 -45 -7 40 c-4 22 -7 72 -8 110 -1 108 -16 40 -20
-96 -4 -101 -10 -128 -30 -129 -3 0 -11 16 -19 35 -11 28 -19 35 -40 35 -20 0
-29 -7 -38 -34 -9 -24 -17 -33 -30 -29 -15 3 -17 20 -20 119 -5 136 -20 209
-21 99 -1 -38 -4 -88 -8 -110 l-7 -40 -7 45 c-3 26 -2 52 5 62 8 13 7 21 -2
30 -14 14 -16 68 -2 68 6 0 1 9 -10 20 -24 24 -30 25 -30 6z"/>
</g>
</svg>
