<?xml version="1.0" standalone="no"?>
<!DOCTYPE svg PUBLIC "-//W3C//DTD SVG 20010904//EN"
 "http://www.w3.org/TR/2001/REC-SVG-20010904/DTD/svg10.dtd">
<svg version="1.0" xmlns="http://www.w3.org/2000/svg"
 width="64.000000pt" height="64.000000pt" viewBox="0 0 64.000000 64.000000"
 preserveAspectRatio="xMidYMid meet">
<metadata>
Created by potrace 1.16, written by Peter Selinger 2001-2019
</metadata>
<g transform="translate(0.000000,64.000000) scale(0.100000,-0.100000)"
fill="#000000" stroke="none">
<path d="M289 558 c-6 -29 -16 -60 -20 -68 -4 -8 -13 -48 -20 -88 -10 -61 -15
-71 -29 -67 -14 5 -17 -1 -17 -35 0 -28 -6 -45 -19 -55 -17 -12 -19 -11 -22
16 -5 42 -22 36 -23 -8 -1 -34 -2 -31 -10 17 -15 86 -26 80 -33 -16 -4 -49
-13 -104 -21 -122 -18 -39 -18 -45 -5 -37 6 4 7 -6 3 -25 l-6 -32 25 25 c14
14 28 32 31 41 4 9 13 13 21 10 11 -4 19 3 26 20 12 33 19 33 48 -1 21 -25 30
-28 98 -29 71 -2 77 -1 103 27 34 36 39 36 51 3 8 -21 13 -24 24 -15 11 10 16
8 21 -8 3 -11 20 -35 37 -53 18 -18 28 -28 25 -21 -4 6 -10 31 -13 55 -13 102
-23 195 -23 221 -2 50 -19 28 -29 -35 -7 -50 -10 -55 -11 -25 -1 44 -18 50
-23 8 -3 -27 -5 -28 -21 -16 -11 8 -19 28 -20 51 -2 30 -6 39 -19 38 -13 -1
-19 13 -28 70 -6 39 -15 78 -19 86 -4 8 -14 39 -20 68 -10 39 -18 52 -31 52
-13 0 -21 -13 -31 -52z"/>
</g>
</svg>
