<?xml version="1.0" standalone="no"?>
<!DOCTYPE svg PUBLIC "-//W3C//DTD SVG 20010904//EN"
 "http://www.w3.org/TR/2001/REC-SVG-20010904/DTD/svg10.dtd">
<svg version="1.0" xmlns="http://www.w3.org/2000/svg"
 width="64.000000pt" height="64.000000pt" viewBox="0 0 64.000000 64.000000"
 preserveAspectRatio="xMidYMid meet">
<metadata>
Created by potrace 1.16, written by Peter Selinger 2001-2019
</metadata>
<g transform="translate(0.000000,64.000000) scale(0.100000,-0.100000)"
fill="#000000" stroke="none">
<path d="M360 488 c0 -116 -1 -121 -17 -105 -12 12 -18 34 -19 70 -1 68 -18
63 -24 -7 -5 -56 -30 -104 -30 -58 0 36 -27 25 -35 -14 -3 -20 -11 -48 -17
-63 -14 -33 -17 -90 -6 -97 4 -3 6 -9 3 -14 -3 -5 0 -28 6 -52 6 -24 14 -58
17 -77 4 -19 13 -36 20 -39 9 -3 12 17 12 77 0 65 3 81 15 81 8 0 15 -4 15
-10 0 -5 7 -10 15 -10 8 0 15 5 15 10 0 6 7 10 15 10 11 0 15 -12 15 -46 0
-55 16 -55 38 1 9 22 20 43 26 48 7 5 6 10 -4 17 -12 7 -12 10 -1 10 7 0 11 6
8 14 -3 8 -1 17 6 20 9 3 8 8 -3 15 -10 7 -11 11 -2 11 19 0 14 20 -5 20 -15
0 -16 2 -3 10 12 8 13 11 1 19 -11 7 -11 10 0 15 10 4 11 7 2 12 -7 3 -9 12
-6 20 3 8 -1 14 -8 14 -11 0 -11 3 1 10 12 8 13 11 1 19 -11 7 -11 10 0 15 10
4 11 7 2 12 -7 3 -9 12 -6 20 3 8 1 14 -4 14 -4 0 -9 17 -9 38 0 48 -12 92
-24 92 -6 0 -10 -49 -10 -122z"/>
</g>
</svg>
