<?xml version="1.0" standalone="no"?>
<!DOCTYPE svg PUBLIC "-//W3C//DTD SVG 20010904//EN"
 "http://www.w3.org/TR/2001/REC-SVG-20010904/DTD/svg10.dtd">
<svg version="1.0" xmlns="http://www.w3.org/2000/svg"
 width="64.000000pt" height="64.000000pt" viewBox="0 0 64.000000 64.000000"
 preserveAspectRatio="xMidYMid meet">
<metadata>
Created by potrace 1.16, written by Peter Selinger 2001-2019
</metadata>
<g transform="translate(0.000000,64.000000) scale(0.100000,-0.100000)"
fill="#000000" stroke="none">
<path d="M125 601 c-3 -5 -1 -12 5 -16 6 -4 8 -11 4 -16 -3 -6 12 -26 35 -45
23 -20 41 -43 41 -51 0 -9 -3 -13 -7 -10 -9 9 -34 -13 -27 -24 3 -5 -1 -9 -9
-9 -8 0 -30 17 -48 38 -18 20 -38 37 -43 37 -6 0 -17 4 -23 8 -26 16 -12 -17
29 -72 23 -31 46 -59 52 -63 10 -7 -18 -16 -68 -20 -51 -5 -44 -28 8 -28 25 0
46 -4 46 -10 0 -5 -21 -10 -46 -10 -52 0 -59 -23 -8 -28 16 -1 40 -5 53 -8 20
-4 21 -7 9 -17 -29 -23 -98 -126 -89 -132 5 -3 12 -1 16 5 4 6 11 8 16 4 6 -3
26 12 45 35 20 23 43 41 51 41 9 0 13 -3 10 -7 -9 -9 13 -34 24 -27 5 3 9 -1
9 -9 0 -8 -17 -30 -37 -48 -21 -18 -38 -38 -38 -43 0 -6 -4 -17 -8 -23 -16
-25 17 -12 70 27 53 40 53 41 53 15 0 -20 5 -25 24 -25 15 0 26 7 29 18 3 9 5
0 6 -20 0 -21 6 -38 11 -38 6 0 11 17 11 38 1 20 3 29 6 19 7 -25 53 -23 53 3
0 11 2 20 5 20 3 0 30 -18 60 -40 30 -22 56 -36 60 -31 3 5 1 12 -5 16 -6 4
-8 11 -4 16 3 6 -12 26 -35 45 -23 20 -41 42 -41 50 0 9 4 13 9 10 11 -7 33
18 24 27 -3 4 1 7 10 7 8 0 31 -18 51 -41 19 -23 39 -38 45 -34 6 3 11 1 11
-4 0 -6 5 -11 10 -11 6 0 10 5 10 12 0 12 -77 118 -94 130 -10 7 18 16 68 20
51 5 44 28 -8 28 -25 0 -46 5 -46 10 0 6 21 10 46 10 52 0 59 23 8 28 -16 1
-40 5 -53 8 -20 4 -21 7 -9 17 9 7 34 38 57 69 28 39 37 59 29 64 -6 4 -14 2
-16 -4 -2 -7 -8 -9 -14 -6 -5 3 -25 -12 -44 -35 -20 -23 -42 -41 -50 -41 -9 0
-13 4 -10 9 7 11 -18 33 -27 24 -4 -3 -7 1 -7 9 0 9 17 31 38 49 20 18 37 38
37 43 0 6 4 17 8 24 16 25 -17 11 -72 -30 -31 -23 -59 -46 -63 -52 -7 -10 -16
18 -20 68 -5 51 -28 44 -28 -8 0 -25 -4 -46 -10 -46 -5 0 -10 21 -10 46 0 52
-23 59 -28 8 -1 -16 -5 -40 -8 -53 -4 -20 -7 -21 -17 -9 -23 29 -126 98 -132
89z"/>
</g>
</svg>
