<?xml version="1.0" standalone="no"?>
<!DOCTYPE svg PUBLIC "-//W3C//DTD SVG 20010904//EN"
 "http://www.w3.org/TR/2001/REC-SVG-20010904/DTD/svg10.dtd">
<svg version="1.0" xmlns="http://www.w3.org/2000/svg"
 width="64.000000pt" height="64.000000pt" viewBox="0 0 64.000000 64.000000"
 preserveAspectRatio="xMidYMid meet">
<metadata>
Created by potrace 1.16, written by Peter Selinger 2001-2019
</metadata>
<g transform="translate(0.000000,64.000000) scale(0.100000,-0.100000)"
fill="#000000" stroke="none">
<path d="M150 575 c0 -38 -2 -40 -30 -25 -15 8 -21 6 -30 -9 -12 -24 -13 -114
-1 -106 5 3 19 -8 30 -24 19 -26 21 -40 17 -119 -4 -90 -20 -136 -43 -127 -10
3 -13 -10 -13 -48 0 -64 12 -80 49 -65 14 5 45 11 69 11 32 2 44 -2 48 -15 4
-15 17 -18 76 -18 59 0 71 3 75 18 4 15 12 17 56 12 29 -3 58 -9 65 -14 24
-15 42 14 42 70 0 39 -3 52 -13 49 -23 -9 -39 37 -43 127 -3 70 -1 94 12 113
9 14 23 25 30 25 10 0 14 14 14 48 0 61 -10 77 -44 68 -24 -6 -26 -4 -26 29 0
24 -5 35 -15 35 -8 0 -15 -9 -15 -20 0 -13 -7 -20 -20 -20 -14 0 -20 7 -20 21
0 36 -25 15 -28 -25 l-3 -36 -29 20 c-15 11 -33 20 -39 20 -14 0 -54 -22 -63
-35 -4 -5 -8 2 -8 17 0 33 -9 58 -21 58 -5 0 -9 -9 -9 -20 0 -13 -7 -20 -20
-20 -13 0 -20 7 -20 20 0 11 -7 20 -15 20 -10 0 -15 -11 -15 -35z"/>
</g>
</svg>
