<?xml version="1.0" standalone="no"?>
<!DOCTYPE svg PUBLIC "-//W3C//DTD SVG 20010904//EN"
 "http://www.w3.org/TR/2001/REC-SVG-20010904/DTD/svg10.dtd">
<svg version="1.0" xmlns="http://www.w3.org/2000/svg"
 width="64.000000pt" height="64.000000pt" viewBox="0 0 64.000000 64.000000"
 preserveAspectRatio="xMidYMid meet">
<metadata>
Created by potrace 1.16, written by Peter Selinger 2001-2019
</metadata>
<g transform="translate(0.000000,64.000000) scale(0.100000,-0.100000)"
fill="#000000" stroke="none">
<path d="M447 565 c4 -28 2 -35 -11 -35 -13 0 -16 -12 -16 -69 0 -38 -3 -76
-6 -85 -8 -20 -34 -21 -34 -1 0 8 -9 33 -21 55 -29 55 -58 55 -81 -3 -10 -23
-18 -48 -18 -55 0 -18 -27 -15 -34 4 -3 9 -6 47 -6 85 0 57 -3 69 -16 69 -12
0 -15 7 -12 30 3 17 1 30 -3 30 -4 0 -17 -42 -29 -92 -35 -149 -13 -288 46
-288 12 0 24 6 27 13 2 6 7 -19 11 -58 14 -145 9 -135 76 -135 67 0 62 -9 76
134 4 50 9 65 17 57 36 -36 77 20 85 115 3 45 -2 91 -17 158 -22 92 -46 143
-34 71z"/>
</g>
</svg>
