<?xml version="1.0" standalone="no"?>
<!DOCTYPE svg PUBLIC "-//W3C//DTD SVG 20010904//EN"
 "http://www.w3.org/TR/2001/REC-SVG-20010904/DTD/svg10.dtd">
<svg version="1.0" xmlns="http://www.w3.org/2000/svg"
 width="64.000000pt" height="64.000000pt" viewBox="0 0 64.000000 64.000000"
 preserveAspectRatio="xMidYMid meet">
<metadata>
Created by potrace 1.16, written by Peter Selinger 2001-2019
</metadata>
<g transform="translate(0.000000,64.000000) scale(0.100000,-0.100000)"
fill="#000000" stroke="none">
<path d="M205 603 c-81 -7 -102 -42 -70 -114 8 -19 14 -30 15 -26 0 5 7 2 15
-7 9 -8 15 -19 14 -23 -4 -14 13 -67 27 -90 12 -19 12 -22 0 -17 -8 3 -20 -2
-27 -11 -8 -8 -20 -22 -26 -30 -15 -15 -18 -85 -4 -85 5 0 12 -30 15 -67 4
-38 10 -76 12 -85 9 -32 21 -19 27 28 3 27 12 50 22 58 10 7 15 18 12 23 -4 6
2 18 13 28 20 18 20 17 20 -33 0 -45 3 -52 19 -52 11 0 22 6 25 13 5 9 7 9 12
0 3 -7 14 -13 25 -13 16 0 19 7 19 52 0 50 0 51 20 33 11 -10 17 -22 13 -28
-3 -5 2 -16 12 -23 10 -8 19 -31 23 -59 7 -70 26 -49 37 43 6 44 13 84 18 88
11 12 8 64 -5 79 -7 8 -19 22 -27 30 -7 9 -19 14 -27 11 -12 -5 -12 -2 0 17
14 22 29 71 31 95 0 7 10 21 23 30 31 24 39 81 15 109 -16 20 -29 23 -133 27
-63 2 -137 2 -165 -1z m65 -160 l0 -38 -19 30 c-12 21 -15 32 -7 37 21 14 26
8 26 -29z m126 29 c8 -5 5 -16 -7 -37 l-19 -30 0 38 c0 37 5 43 26 29z"/>
</g>
</svg>
