<?xml version="1.0" standalone="no"?>
<!DOCTYPE svg PUBLIC "-//W3C//DTD SVG 20010904//EN"
 "http://www.w3.org/TR/2001/REC-SVG-20010904/DTD/svg10.dtd">
<svg version="1.0" xmlns="http://www.w3.org/2000/svg"
 width="64.000000pt" height="64.000000pt" viewBox="0 0 64.000000 64.000000"
 preserveAspectRatio="xMidYMid meet">
<metadata>
Created by potrace 1.16, written by Peter Selinger 2001-2019
</metadata>
<g transform="translate(0.000000,64.000000) scale(0.100000,-0.100000)"
fill="#000000" stroke="none">
<path d="M292 558 c-7 -24 -16 -63 -21 -88 l-9 -45 -1 58 c-1 31 -5 57 -10 57
-5 0 -15 -26 -21 -57 -6 -32 -16 -69 -21 -83 -14 -32 -20 -19 -44 78 -21 86
-35 101 -35 36 0 -43 -8 -57 -13 -22 -5 31 -22 14 -22 -22 0 -70 -14 -43 -17
33 l-3 72 -18 -110 c-11 -60 -21 -148 -24 -195 -4 -74 -2 -93 21 -150 l25 -65
1 43 c0 40 1 42 30 42 25 0 30 4 30 25 0 38 43 30 52 -10 2 -11 9 -19 16 -18
6 2 15 -9 18 -25 14 -61 29 -72 98 -72 68 0 69 1 91 78 3 12 13 22 21 22 8 0
14 9 14 19 0 17 18 31 41 31 5 0 9 -11 9 -25 0 -21 5 -25 29 -25 27 0 30 -3
33 -38 l3 -37 24 60 c21 54 23 70 17 155 -4 52 -15 142 -25 200 l-19 105 -1
-77 c0 -43 -4 -78 -8 -78 -5 0 -7 18 -7 40 2 45 -20 57 -24 13 -4 -50 -12 -37
-12 20 0 32 -4 57 -8 57 -5 0 -19 -41 -32 -91 -21 -81 -25 -90 -37 -73 -7 10
-13 23 -13 30 0 31 -23 114 -31 114 -5 0 -9 -26 -10 -57 -1 -63 -4 -56 -28 60
-10 44 -17 57 -30 57 -13 0 -22 -12 -29 -42z m58 -258 c3 -2 8 -2 11 -2 4 1 5
-8 2 -18 -3 -12 0 -20 7 -20 7 0 6 -6 -4 -16 -9 -8 -14 -19 -12 -22 2 -4 -13
-7 -34 -7 -21 0 -36 3 -34 7 2 3 -3 14 -12 22 -10 10 -11 16 -4 16 7 0 10 8 7
20 -3 11 -1 18 3 15 5 -3 11 -1 15 5 5 8 33 8 55 0z"/>
<path d="M296 278 c-10 -30 -2 -44 24 -44 21 0 26 5 28 28 2 24 -1 28 -23 28
-14 0 -27 -6 -29 -12z"/>
</g>
</svg>
