<?xml version="1.0" standalone="no"?>
<!DOCTYPE svg PUBLIC "-//W3C//DTD SVG 20010904//EN"
 "http://www.w3.org/TR/2001/REC-SVG-20010904/DTD/svg10.dtd">
<svg version="1.0" xmlns="http://www.w3.org/2000/svg"
 width="64.000000pt" height="64.000000pt" viewBox="0 0 64.000000 64.000000"
 preserveAspectRatio="xMidYMid meet">
<metadata>
Created by potrace 1.16, written by Peter Selinger 2001-2019
</metadata>
<g transform="translate(0.000000,64.000000) scale(0.100000,-0.100000)"
fill="#000000" stroke="none">
<path d="M158 425 c-4 -154 -7 -188 -21 -203 -21 -24 -23 -88 -2 -96 9 -3 15
-18 15 -36 0 -33 11 -38 34 -15 17 17 46 20 46 5 0 -5 7 -10 15 -10 8 0 15 -6
15 -14 0 -17 58 -29 94 -20 14 3 26 12 26 20 0 8 7 14 15 14 8 0 15 5 15 10 0
15 29 12 46 -5 23 -23 34 -18 34 15 0 18 6 33 15 36 21 8 19 72 -2 96 -14 15
-17 49 -21 203 l-5 185 -48 0 -49 0 0 -110 c0 -91 -3 -110 -15 -110 -11 0 -15
-12 -15 -51 0 -28 5 -59 11 -70 15 -29 7 -45 -13 -25 -9 9 -22 16 -28 16 -6 0
-19 -7 -28 -16 -20 -20 -28 -4 -13 25 6 11 11 42 11 70 0 39 -4 51 -15 51 -12
0 -15 19 -15 110 l0 110 -49 0 -48 0 -5 -185z"/>
</g>
</svg>
