<?xml version="1.0" standalone="no"?>
<!DOCTYPE svg PUBLIC "-//W3C//DTD SVG 20010904//EN"
 "http://www.w3.org/TR/2001/REC-SVG-20010904/DTD/svg10.dtd">
<svg version="1.0" xmlns="http://www.w3.org/2000/svg"
 width="64.000000pt" height="64.000000pt" viewBox="0 0 64.000000 64.000000"
 preserveAspectRatio="xMidYMid meet">
<metadata>
Created by potrace 1.16, written by Peter Selinger 2001-2019
</metadata>
<g transform="translate(0.000000,64.000000) scale(0.100000,-0.100000)"
fill="#000000" stroke="none">
<path d="M299 370 c-16 -9 -178 -39 -229 -42 -30 -3 -35 -7 -38 -31 l-3 -28
68 2 c37 0 76 -2 86 -6 9 -4 17 -3 17 2 0 5 9 9 20 9 11 0 20 -4 20 -9 0 -5 8
-6 18 -2 20 8 121 10 129 2 3 -3 16 -2 29 3 16 7 24 6 24 -1 0 -7 7 -8 18 -4
9 4 47 6 85 6 l67 -2 0 28 c0 25 -4 29 -32 31 -49 3 -219 33 -243 42 -12 4
-28 5 -36 0z"/>
</g>
</svg>
