<?xml version="1.0" standalone="no"?>
<!DOCTYPE svg PUBLIC "-//W3C//DTD SVG 20010904//EN"
 "http://www.w3.org/TR/2001/REC-SVG-20010904/DTD/svg10.dtd">
<svg version="1.0" xmlns="http://www.w3.org/2000/svg"
 width="64.000000pt" height="64.000000pt" viewBox="0 0 64.000000 64.000000"
 preserveAspectRatio="xMidYMid meet">
<metadata>
Created by potrace 1.16, written by Peter Selinger 2001-2019
</metadata>
<g transform="translate(0.000000,64.000000) scale(0.100000,-0.100000)"
fill="#000000" stroke="none">
<path d="M310 598 c0 -10 -8 -26 -19 -37 -10 -10 -21 -25 -24 -32 -4 -10 -6
-9 -6 3 -1 11 -6 15 -15 12 -9 -3 -12 -12 -8 -22 5 -14 3 -15 -10 -5 -20 17
-30 5 -16 -21 11 -20 10 -20 -9 -3 -27 23 -36 11 -15 -22 l16 -26 -22 19 c-29
25 -41 13 -16 -15 19 -22 19 -22 -4 -10 -30 16 -49 4 -25 -15 17 -14 17 -15
-4 -9 -17 5 -23 2 -23 -9 0 -8 10 -17 22 -19 20 -4 19 -4 -4 -6 -29 -1 -38
-15 -15 -24 10 -4 10 -6 0 -6 -22 -2 -14 -29 10 -34 l22 -4 -22 -2 c-14 0 -23
-7 -23 -17 0 -11 5 -14 18 -9 14 5 15 4 5 -6 -18 -18 -16 -29 5 -30 9 0 12 -3
5 -5 -7 -3 -9 -12 -6 -20 3 -7 9 -11 14 -8 5 3 9 -4 9 -16 0 -12 4 -18 10 -15
6 3 10 -1 10 -9 0 -9 5 -16 10 -16 6 0 10 -9 10 -20 0 -12 6 -20 13 -19 48 6
56 0 59 -48 l3 -48 25 42 c14 24 28 43 31 43 3 0 14 -16 25 -35 20 -38 36 -46
33 -17 -4 44 1 62 20 62 11 0 22 6 24 13 4 9 6 9 6 0 2 -21 21 -14 21 7 0 11
5 20 10 20 6 0 10 7 10 15 0 8 5 15 10 15 6 0 10 7 10 16 0 8 4 13 9 9 5 -3
13 0 17 6 3 6 0 15 -7 20 -11 7 -10 9 4 9 20 0 22 11 5 29 -11 10 -10 12 1 9
7 -2 15 2 18 9 2 6 -6 13 -19 16 l-23 4 23 2 c26 1 30 27 5 34 -17 4 -17 5 0
6 25 2 21 21 -5 21 -21 0 -21 0 -2 14 24 18 13 31 -15 16 -13 -6 -21 -7 -21
-1 0 5 9 13 21 16 14 5 18 10 11 17 -6 6 -18 6 -33 -2 l-24 -11 23 20 c14 12
18 22 12 26 -6 4 -20 -1 -31 -11 -22 -20 -26 -10 -4 13 23 22 7 38 -17 16 -21
-18 -21 -18 -9 5 15 29 7 40 -16 21 -15 -12 -16 -12 -10 5 6 15 4 17 -13 13
-11 -3 -20 -1 -20 4 0 5 -7 9 -15 9 -8 0 -15 6 -15 13 0 7 -7 22 -15 33 -13
17 -14 17 -15 2z"/>
</g>
</svg>
