<?xml version="1.0" standalone="no"?>
<!DOCTYPE svg PUBLIC "-//W3C//DTD SVG 20010904//EN"
 "http://www.w3.org/TR/2001/REC-SVG-20010904/DTD/svg10.dtd">
<svg version="1.0" xmlns="http://www.w3.org/2000/svg"
 width="64.000000pt" height="64.000000pt" viewBox="0 0 64.000000 64.000000"
 preserveAspectRatio="xMidYMid meet">
<metadata>
Created by potrace 1.16, written by Peter Selinger 2001-2019
</metadata>
<g transform="translate(0.000000,64.000000) scale(0.100000,-0.100000)"
fill="#000000" stroke="none">
<path d="M309 590 c-1 -11 -3 -24 -4 -30 -1 -5 -3 -21 -4 -35 -1 -24 -4 -25
-60 -25 -40 0 -65 5 -75 15 -14 14 -16 13 -22 -10 -3 -14 -3 -40 0 -58 4 -17
6 -38 5 -44 -5 -50 1 -342 7 -322 5 16 32 29 62 29 6 0 12 -11 12 -24 0 -33
10 -57 21 -50 5 3 9 21 9 40 l0 34 60 0 60 0 0 -34 c0 -19 4 -37 9 -40 11 -7
21 17 21 51 0 23 3 25 32 19 18 -3 36 -12 40 -19 5 -7 9 18 9 58 0 39 2 105 5
148 4 50 2 83 -5 91 -9 10 -9 20 0 39 7 16 9 43 4 74 -4 26 -10 41 -13 33 -8
-24 -24 -30 -83 -30 -37 0 -56 4 -57 13 -7 78 -30 131 -33 77z m-79 -172 c0
-13 -7 -31 -14 -41 -12 -16 -14 -15 -26 12 -14 34 -7 51 21 51 13 0 19 -7 19
-22z m227 6 c3 -8 1 -20 -6 -27 -6 -6 -11 -20 -11 -31 0 -18 -3 -16 -15 8 -21
40 -19 66 5 66 11 0 23 -7 27 -16z m-229 -131 c14 -11 13 -13 -6 -13 -18 0
-22 6 -21 28 0 15 3 20 6 12 3 -8 12 -21 21 -27z m208 2 c-3 -8 -13 -14 -23
-14 -17 1 -17 2 0 6 9 2 17 14 18 26 0 12 3 16 6 9 3 -7 2 -19 -1 -27z m-206
-65 c0 -5 -4 -10 -9 -10 -5 0 -12 -12 -15 -26 -5 -20 -10 -24 -18 -16 -9 9 -8
18 2 37 13 25 40 35 40 15z m216 -7 c16 -21 18 -53 4 -53 -5 0 -12 11 -16 25
-3 14 -10 25 -15 25 -5 0 -9 5 -9 10 0 16 22 12 36 -7z"/>
</g>
</svg>
