<?xml version="1.0" standalone="no"?>
<!DOCTYPE svg PUBLIC "-//W3C//DTD SVG 20010904//EN"
 "http://www.w3.org/TR/2001/REC-SVG-20010904/DTD/svg10.dtd">
<svg version="1.0" xmlns="http://www.w3.org/2000/svg"
 width="64.000000pt" height="64.000000pt" viewBox="0 0 64.000000 64.000000"
 preserveAspectRatio="xMidYMid meet">
<metadata>
Created by potrace 1.16, written by Peter Selinger 2001-2019
</metadata>
<g transform="translate(0.000000,64.000000) scale(0.100000,-0.100000)"
fill="#000000" stroke="none">
<path d="M299 608 c0 -2 -2 -59 -5 -128 -3 -69 -10 -126 -15 -128 -5 -2 -9
-10 -9 -18 0 -8 -6 -14 -14 -14 -8 0 -17 -4 -20 -9 -12 -19 -16 -89 -10 -153
5 -55 9 -68 23 -68 9 0 22 -13 28 -30 10 -27 16 -30 52 -30 30 0 41 4 41 15 0
8 5 15 10 15 6 0 10 15 10 33 0 18 6 42 14 53 18 25 18 93 0 118 -10 15 -14
58 -14 169 0 126 -2 148 -14 138 -11 -9 -15 -6 -20 14 -5 18 -13 25 -31 25
-14 0 -25 -1 -26 -2z m81 -160 c0 -56 -2 -99 -5 -96 -7 6 -14 181 -8 191 11
17 13 1 13 -95z"/>
</g>
</svg>
