<?xml version="1.0" standalone="no"?>
<!DOCTYPE svg PUBLIC "-//W3C//DTD SVG 20010904//EN"
 "http://www.w3.org/TR/2001/REC-SVG-20010904/DTD/svg10.dtd">
<svg version="1.0" xmlns="http://www.w3.org/2000/svg"
 width="64.000000pt" height="64.000000pt" viewBox="0 0 64.000000 64.000000"
 preserveAspectRatio="xMidYMid meet">
<metadata>
Created by potrace 1.16, written by Peter Selinger 2001-2019
</metadata>
<g transform="translate(0.000000,64.000000) scale(0.100000,-0.100000)"
fill="#000000" stroke="none">
<path d="M170 588 c0 -13 -9 -108 -20 -213 -12 -116 -16 -193 -10 -199 5 -5 5
-16 0 -26 -6 -11 -4 -24 6 -38 15 -22 44 -30 44 -12 0 19 39 10 45 -11 4 -12
12 -18 21 -15 8 3 14 -1 14 -10 0 -10 6 -14 15 -10 9 3 15 0 15 -9 0 -8 9 -15
20 -15 11 0 20 5 20 10 0 6 7 10 15 10 8 0 15 5 15 10 0 6 6 10 14 10 8 0 18
9 21 20 6 20 45 29 45 10 0 -5 6 -10 14 -10 27 0 42 36 40 97 -2 103 -37 423
-46 423 -4 0 -8 -9 -8 -20 0 -13 -7 -20 -20 -20 -13 0 -20 7 -20 20 0 11 -4
20 -8 20 -5 0 -15 -68 -22 -150 -7 -83 -17 -153 -22 -156 -4 -3 -8 4 -8 15 0
11 -4 23 -10 26 -6 4 -10 -5 -10 -19 0 -14 -4 -26 -10 -26 -5 0 -10 12 -10 26
0 14 -4 23 -10 19 -5 -3 -10 -15 -10 -26 0 -11 -4 -18 -8 -15 -5 3 -15 71 -22
151 -7 80 -17 148 -21 151 -5 3 -9 -4 -9 -15 0 -14 -6 -21 -20 -21 -13 0 -20
7 -20 20 0 11 -4 20 -10 20 -5 0 -10 -10 -10 -22z m50 -122 c0 -74 -3 -95 -15
-100 -13 -4 -15 10 -15 94 0 82 3 100 15 100 12 0 15 -17 15 -94z m230 -6 c0
-84 -2 -98 -15 -94 -12 5 -15 26 -15 100 0 77 3 94 15 94 12 0 15 -18 15 -100z
m-3 -157 c-3 -10 -5 -4 -5 12 0 17 2 24 5 18 2 -7 2 -21 0 -30z m-250 -5 c-3
-8 -6 -5 -6 6 -1 11 2 17 5 13 3 -3 4 -12 1 -19z"/>
</g>
</svg>
