<?xml version="1.0" standalone="no"?>
<!DOCTYPE svg PUBLIC "-//W3C//DTD SVG 20010904//EN"
 "http://www.w3.org/TR/2001/REC-SVG-20010904/DTD/svg10.dtd">
<svg version="1.0" xmlns="http://www.w3.org/2000/svg"
 width="64.000000pt" height="64.000000pt" viewBox="0 0 64.000000 64.000000"
 preserveAspectRatio="xMidYMid meet">
<metadata>
Created by potrace 1.16, written by Peter Selinger 2001-2019
</metadata>
<g transform="translate(0.000000,64.000000) scale(0.100000,-0.100000)"
fill="#000000" stroke="none">
<path d="M281 573 c-10 -21 -22 -57 -26 -80 -4 -24 -11 -43 -15 -43 -27 0 -17
-253 11 -286 7 -8 9 -27 5 -48 -4 -20 -2 -37 4 -41 5 -3 10 -15 10 -26 0 -10
6 -19 14 -19 24 0 76 57 83 91 3 19 14 47 24 64 11 19 20 64 24 121 6 80 4 96
-14 137 -12 25 -21 55 -21 67 0 11 -9 39 -20 60 -27 52 -53 53 -79 3z"/>
</g>
</svg>
