<?xml version="1.0" standalone="no"?>
<!DOCTYPE svg PUBLIC "-//W3C//DTD SVG 20010904//EN"
 "http://www.w3.org/TR/2001/REC-SVG-20010904/DTD/svg10.dtd">
<svg version="1.0" xmlns="http://www.w3.org/2000/svg"
 width="64.000000pt" height="64.000000pt" viewBox="0 0 64.000000 64.000000"
 preserveAspectRatio="xMidYMid meet">
<metadata>
Created by potrace 1.16, written by Peter Selinger 2001-2019
</metadata>
<g transform="translate(0.000000,64.000000) scale(0.100000,-0.100000)"
fill="#000000" stroke="none">
<path d="M257 589 c-21 -11 -41 -29 -46 -42 -8 -21 -3 -508 5 -516 2 -2 5 56
5 130 1 74 5 163 9 199 5 44 6 22 3 -70 -2 -74 0 -164 5 -200 9 -64 9 -63 11
50 2 181 12 280 27 280 16 0 19 -46 4 -55 -5 -3 -10 -22 -10 -41 0 -19 5 -34
10 -34 13 0 13 -87 0 -95 -13 -8 -13 -75 0 -75 6 0 10 -7 10 -15 0 -8 5 -15
10 -15 6 0 10 -13 10 -30 0 -16 5 -30 10 -30 6 0 10 14 10 30 0 17 5 30 10 30
6 0 10 7 10 15 0 8 5 15 10 15 6 0 10 15 10 34 0 19 -4 38 -10 41 -5 3 -10 26
-10 50 0 24 5 47 10 50 6 3 10 19 10 35 0 16 -4 32 -10 35 -15 9 -12 55 4 55
16 0 25 -95 27 -274 1 -117 2 -119 11 -56 5 36 7 126 5 200 -3 92 -2 114 3 70
4 -36 8 -125 9 -199 0 -74 3 -132 5 -130 8 8 13 495 5 516 -9 24 -81 64 -113
62 -12 -1 -38 -10 -59 -20z"/>
</g>
</svg>
