<?xml version="1.0" standalone="no"?>
<!DOCTYPE svg PUBLIC "-//W3C//DTD SVG 20010904//EN"
 "http://www.w3.org/TR/2001/REC-SVG-20010904/DTD/svg10.dtd">
<svg version="1.0" xmlns="http://www.w3.org/2000/svg"
 width="64.000000pt" height="64.000000pt" viewBox="0 0 64.000000 64.000000"
 preserveAspectRatio="xMidYMid meet">
<metadata>
Created by potrace 1.16, written by Peter Selinger 2001-2019
</metadata>
<g transform="translate(0.000000,64.000000) scale(0.100000,-0.100000)"
fill="#000000" stroke="none">
<path d="M209 568 c-41 -70 -79 -158 -79 -188 0 -15 9 -39 20 -53 21 -27 28
-49 9 -30 -19 19 -119 -2 -119 -26 0 -3 29 -5 64 -5 60 2 64 1 69 -22 4 -23
-6 -33 -17 -15 -9 14 -79 -5 -93 -25 -7 -10 -12 -19 -10 -20 2 -2 32 1 67 6
68 10 80 7 80 -16 0 -8 -4 -13 -9 -10 -15 10 -80 -23 -92 -45 -10 -20 -9 -21
12 -15 13 5 36 10 52 13 15 3 30 9 33 14 9 14 40 10 55 -7 11 -14 10 -15 -7
-13 -30 6 -94 -37 -94 -61 l0 -22 38 23 c20 13 48 30 61 38 18 12 25 13 29 3
4 -14 82 -17 82 -2 0 14 16 13 32 -2 8 -7 33 -23 56 -36 41 -22 42 -22 42 -3
0 25 -57 66 -88 63 -21 -2 -23 0 -12 13 14 17 46 20 55 5 3 -5 14 -10 23 -10
9 0 29 -6 44 -14 31 -16 41 -11 27 15 -11 21 -76 52 -90 43 -11 -6 -12 7 -1
23 6 9 24 10 72 3 35 -5 65 -8 67 -6 2 1 -7 13 -19 25 -17 19 -28 22 -63 19
-39 -5 -41 -4 -37 17 3 20 10 22 63 22 64 0 77 4 57 20 -20 16 -95 22 -107 10
-19 -19 -12 3 9 30 11 14 20 38 20 53 0 44 -92 230 -113 230 -5 0 -15 -6 -23
-14 -12 -13 -12 -22 6 -69 12 -31 27 -61 35 -67 8 -7 15 -24 15 -39 0 -14 4
-33 10 -41 15 -24 -11 -30 -41 -9 -15 11 -29 29 -31 41 -4 28 -28 36 -28 9 0
-14 -6 -21 -20 -21 -13 0 -20 7 -20 20 0 11 -7 20 -15 20 -9 0 -15 -9 -15 -24
0 -24 -51 -72 -63 -60 -11 12 5 69 39 141 31 62 33 74 22 92 -19 30 -30 26
-59 -21z"/>
</g>
</svg>
