<?xml version="1.0" standalone="no"?>
<!DOCTYPE svg PUBLIC "-//W3C//DTD SVG 20010904//EN"
 "http://www.w3.org/TR/2001/REC-SVG-20010904/DTD/svg10.dtd">
<svg version="1.0" xmlns="http://www.w3.org/2000/svg"
 width="64.000000pt" height="64.000000pt" viewBox="0 0 64.000000 64.000000"
 preserveAspectRatio="xMidYMid meet">
<metadata>
Created by potrace 1.16, written by Peter Selinger 2001-2019
</metadata>
<g transform="translate(0.000000,64.000000) scale(0.100000,-0.100000)"
fill="#000000" stroke="none">
<path d="M309 585 c-1 -8 -2 -18 -4 -22 -1 -5 -5 -21 -10 -38 -4 -16 -17 -47
-29 -67 -19 -34 -20 -37 -3 -55 22 -26 29 -144 8 -151 -8 -3 -32 -22 -52 -43
l-38 -39 27 0 c16 0 34 6 41 12 10 11 10 7 1 -16 -11 -30 -8 -49 17 -103 22
-48 39 -42 35 12 -4 41 -2 45 18 45 20 0 22 -4 18 -45 -4 -52 10 -59 33 -17
24 41 30 77 19 108 -9 23 -9 25 4 15 8 -7 24 -11 36 -9 20 3 19 5 -12 39 -18
20 -40 38 -48 41 -21 7 -15 125 7 150 15 17 15 21 -4 56 -11 20 -26 61 -33 90
-11 49 -29 70 -31 37z"/>
</g>
</svg>
