<?xml version="1.0" standalone="no"?>
<!DOCTYPE svg PUBLIC "-//W3C//DTD SVG 20010904//EN"
 "http://www.w3.org/TR/2001/REC-SVG-20010904/DTD/svg10.dtd">
<svg version="1.0" xmlns="http://www.w3.org/2000/svg"
 width="64.000000pt" height="64.000000pt" viewBox="0 0 64.000000 64.000000"
 preserveAspectRatio="xMidYMid meet">
<metadata>
Created by potrace 1.16, written by Peter Selinger 2001-2019
</metadata>
<g transform="translate(0.000000,64.000000) scale(0.100000,-0.100000)"
fill="#000000" stroke="none">
<path d="M297 573 c-29 -76 -41 -150 -42 -264 0 -97 3 -118 17 -133 20 -19 26
-41 30 -101 2 -29 8 -41 21 -43 14 -3 17 4 17 42 0 49 15 96 33 108 8 5 12 46
11 135 -1 109 -5 140 -28 211 -15 45 -31 82 -35 82 -5 0 -15 -17 -24 -37z"/>
</g>
</svg>
