<?xml version="1.0" standalone="no"?>
<!DOCTYPE svg PUBLIC "-//W3C//DTD SVG 20010904//EN"
 "http://www.w3.org/TR/2001/REC-SVG-20010904/DTD/svg10.dtd">
<svg version="1.0" xmlns="http://www.w3.org/2000/svg"
 width="64.000000pt" height="64.000000pt" viewBox="0 0 64.000000 64.000000"
 preserveAspectRatio="xMidYMid meet">
<metadata>
Created by potrace 1.16, written by Peter Selinger 2001-2019
</metadata>
<g transform="translate(0.000000,64.000000) scale(0.100000,-0.100000)"
fill="#000000" stroke="none">
<path d="M290 590 c-11 -11 -22 -40 -26 -70 -4 -27 -9 -50 -12 -50 -3 0 -30
12 -60 26 -47 22 -56 24 -69 12 -12 -13 -9 -18 25 -42 l39 -26 -29 -58 c-33
-63 -33 -114 -1 -175 9 -17 17 -52 18 -76 0 -25 6 -46 13 -49 7 -2 12 -11 12
-20 1 -15 3 -14 15 2 8 11 16 29 16 40 1 17 2 18 6 3 3 -11 14 -17 34 -17 25
0 30 -5 36 -30 7 -38 19 -38 27 0 5 25 10 30 36 30 22 0 30 5 31 18 0 9 6 3
12 -15 14 -38 27 -52 27 -30 0 8 5 17 12 19 6 2 12 24 14 49 1 24 12 66 24 93
26 58 22 109 -15 172 l-24 42 40 28 c34 24 38 29 26 42 -12 12 -21 10 -65 -12
-28 -14 -55 -26 -60 -26 -5 0 -12 23 -16 50 -6 48 -33 90 -56 90 -5 0 -19 -9
-30 -20z"/>
</g>
</svg>
