<?xml version="1.0" standalone="no"?>
<!DOCTYPE svg PUBLIC "-//W3C//DTD SVG 20010904//EN"
 "http://www.w3.org/TR/2001/REC-SVG-20010904/DTD/svg10.dtd">
<svg version="1.0" xmlns="http://www.w3.org/2000/svg"
 width="64.000000pt" height="64.000000pt" viewBox="0 0 64.000000 64.000000"
 preserveAspectRatio="xMidYMid meet">
<metadata>
Created by potrace 1.16, written by Peter Selinger 2001-2019
</metadata>
<g transform="translate(0.000000,64.000000) scale(0.100000,-0.100000)"
fill="#000000" stroke="none">
<path d="M276 563 c-3 -27 -9 -79 -12 -117 -4 -39 -15 -88 -24 -110 -19 -42
-14 -81 11 -81 10 0 15 -15 17 -47 3 -40 6 -48 23 -48 17 0 19 -7 19 -65 0
-37 4 -65 10 -65 6 0 10 28 10 64 0 55 3 64 19 69 15 4 20 15 23 48 2 24 7 42
12 41 26 -10 35 61 12 94 -8 11 -17 60 -21 112 -4 51 -11 107 -15 125 -6 29
-8 30 -16 12 -10 -23 -44 -30 -44 -9 0 7 -4 15 -9 18 -5 3 -12 -15 -15 -41z"/>
</g>
</svg>
