<?xml version="1.0" standalone="no"?>
<!DOCTYPE svg PUBLIC "-//W3C//DTD SVG 20010904//EN"
 "http://www.w3.org/TR/2001/REC-SVG-20010904/DTD/svg10.dtd">
<svg version="1.0" xmlns="http://www.w3.org/2000/svg"
 width="64.000000pt" height="64.000000pt" viewBox="0 0 64.000000 64.000000"
 preserveAspectRatio="xMidYMid meet">
<metadata>
Created by potrace 1.16, written by Peter Selinger 2001-2019
</metadata>
<g transform="translate(0.000000,64.000000) scale(0.100000,-0.100000)"
fill="#000000" stroke="none">
<path d="M254 599 c-6 -8 -23 -52 -38 -98 -24 -70 -27 -93 -22 -143 5 -41 4
-58 -3 -53 -14 8 -14 2 1 -29 6 -14 20 -28 30 -32 18 -5 17 -9 -14 -35 -18
-15 -28 -28 -22 -29 6 0 17 7 24 15 7 8 17 15 23 15 5 0 -2 -10 -17 -21 -34
-26 -27 -37 8 -14 21 14 29 15 40 5 8 -6 12 -18 9 -26 -3 -8 1 -14 8 -14 11 0
11 -2 -1 -10 -8 -5 -11 -12 -8 -16 4 -3 1 -19 -7 -34 -19 -37 -4 -49 57 -46
57 2 63 7 53 43 -5 15 -7 32 -6 37 1 5 -4 13 -11 17 -10 7 -10 9 0 9 6 0 12 9
12 19 0 29 18 35 47 16 19 -13 28 -14 37 -5 8 9 3 19 -22 40 -31 25 -32 29
-14 34 10 4 24 18 30 32 15 31 15 37 1 28 -7 -4 -9 11 -4 50 6 48 3 71 -25
156 -30 92 -50 126 -50 83 1 -47 22 -160 35 -186 20 -40 19 -47 -10 -82 -34
-42 -44 -22 -46 90 -1 50 -5 104 -10 120 -5 19 -6 3 -3 -47 4 -51 1 -84 -7
-99 l-12 -23 -9 24 c-5 14 -7 59 -4 100 3 49 2 65 -3 45 -5 -16 -9 -70 -10
-120 -2 -112 -12 -132 -46 -90 -29 35 -30 42 -10 81 15 32 39 163 33 190 -2
14 -5 15 -14 3z m-33 -326 c13 -16 12 -17 -3 -4 -10 7 -18 15 -18 17 0 8 8 3
21 -13z m219 13 c0 -2 -8 -10 -17 -17 -16 -13 -17 -12 -4 4 13 16 21 21 21 13z"/>
</g>
</svg>
