<?xml version="1.0" standalone="no"?>
<!DOCTYPE svg PUBLIC "-//W3C//DTD SVG 20010904//EN"
 "http://www.w3.org/TR/2001/REC-SVG-20010904/DTD/svg10.dtd">
<svg version="1.0" xmlns="http://www.w3.org/2000/svg"
 width="64.000000pt" height="64.000000pt" viewBox="0 0 64.000000 64.000000"
 preserveAspectRatio="xMidYMid meet">
<metadata>
Created by potrace 1.16, written by Peter Selinger 2001-2019
</metadata>
<g transform="translate(0.000000,64.000000) scale(0.100000,-0.100000)"
fill="#000000" stroke="none">
<path d="M295 590 c-3 -11 -10 -20 -15 -20 -4 0 -11 -20 -14 -45 -7 -41 -10
-45 -35 -45 -36 0 -91 -18 -113 -38 -17 -14 -25 -62 -12 -75 3 -3 20 3 38 14
19 11 41 17 50 13 10 -4 16 -1 16 9 0 8 9 17 20 20 15 4 21 0 24 -16 2 -12 10
-47 16 -78 l12 -55 -32 -33 c-41 -40 -29 -61 20 -36 32 16 33 16 25 -1 -17
-43 -17 -54 -1 -54 13 0 16 -11 16 -60 0 -33 4 -60 10 -60 6 0 10 27 10 60 0
49 3 60 16 60 16 0 16 11 -1 52 -7 17 -5 17 21 3 60 -31 72 -11 23 38 -31 30
-32 33 -20 74 6 24 11 53 11 66 0 12 4 28 9 36 7 11 13 9 30 -8 12 -12 26 -19
32 -16 5 4 26 -3 45 -14 19 -12 37 -21 40 -21 7 0 4 64 -4 77 -10 16 -87 43
-123 43 -25 0 -28 4 -35 45 -3 25 -10 45 -14 45 -5 0 -12 9 -15 20 -3 11 -15
20 -25 20 -10 0 -22 -9 -25 -20z"/>
</g>
</svg>
