<?xml version="1.0" standalone="no"?>
<!DOCTYPE svg PUBLIC "-//W3C//DTD SVG 20010904//EN"
 "http://www.w3.org/TR/2001/REC-SVG-20010904/DTD/svg10.dtd">
<svg version="1.0" xmlns="http://www.w3.org/2000/svg"
 width="64.000000pt" height="64.000000pt" viewBox="0 0 64.000000 64.000000"
 preserveAspectRatio="xMidYMid meet">
<metadata>
Created by potrace 1.16, written by Peter Selinger 2001-2019
</metadata>
<g transform="translate(0.000000,64.000000) scale(0.100000,-0.100000)"
fill="#000000" stroke="none">
<path d="M310 325 c0 -9 -9 -15 -21 -15 -18 0 -19 -3 -9 -15 7 -8 10 -21 7
-29 -4 -10 3 -14 29 -13 24 1 34 6 34 17 0 9 5 21 12 28 9 9 8 12 -5 12 -10 0
-20 7 -23 15 -4 8 -10 15 -15 15 -5 0 -9 -7 -9 -15z"/>
</g>
</svg>
