<?xml version="1.0" standalone="no"?>
<!DOCTYPE svg PUBLIC "-//W3C//DTD SVG 20010904//EN"
 "http://www.w3.org/TR/2001/REC-SVG-20010904/DTD/svg10.dtd">
<svg version="1.0" xmlns="http://www.w3.org/2000/svg"
 width="64.000000pt" height="64.000000pt" viewBox="0 0 64.000000 64.000000"
 preserveAspectRatio="xMidYMid meet">
<metadata>
Created by potrace 1.16, written by Peter Selinger 2001-2019
</metadata>
<g transform="translate(0.000000,64.000000) scale(0.100000,-0.100000)"
fill="#000000" stroke="none">
<path d="M303 499 c-9 -82 -16 -108 -37 -138 -21 -28 -23 -37 -12 -39 11 -2
14 -11 9 -32 -3 -17 3 -58 15 -97 12 -37 24 -87 28 -110 9 -56 20 -55 29 3 3
25 13 64 21 86 8 22 14 65 14 95 0 46 3 54 16 49 12 -5 9 6 -11 40 -21 35 -30
69 -38 145 -6 54 -14 99 -17 99 -3 0 -11 -46 -17 -101z"/>
</g>
</svg>
