<?xml version="1.0" standalone="no"?>
<!DOCTYPE svg PUBLIC "-//W3C//DTD SVG 20010904//EN"
 "http://www.w3.org/TR/2001/REC-SVG-20010904/DTD/svg10.dtd">
<svg version="1.0" xmlns="http://www.w3.org/2000/svg"
 width="64.000000pt" height="64.000000pt" viewBox="0 0 64.000000 64.000000"
 preserveAspectRatio="xMidYMid meet">
<metadata>
Created by potrace 1.16, written by Peter Selinger 2001-2019
</metadata>
<g transform="translate(0.000000,64.000000) scale(0.100000,-0.100000)"
fill="#000000" stroke="none">
<path d="M305 590 c-3 -11 -13 -20 -21 -20 -8 0 -14 -10 -14 -22 0 -13 -9 -34
-20 -48 -25 -32 -25 -43 0 -35 18 6 20 2 20 -32 0 -22 5 -44 11 -50 8 -8 4
-29 -14 -74 -28 -71 -48 -279 -28 -279 11 0 16 20 12 55 -3 30 8 67 19 60 5
-3 11 5 13 17 3 17 5 14 6 -9 1 -41 21 -44 21 -4 0 17 4 33 10 36 6 4 10 -8
10 -29 0 -45 20 -48 21 -3 1 27 2 29 7 9 4 -13 12 -24 17 -25 6 -1 11 -18 11
-37 3 -63 4 -70 14 -70 11 0 2 218 -10 235 -3 6 -15 32 -24 58 -14 36 -15 52
-7 60 6 6 11 28 11 50 0 34 2 38 20 32 25 -8 25 3 0 35 -11 14 -20 35 -20 48
0 13 -6 22 -16 22 -9 0 -18 9 -21 20 -3 11 -9 20 -13 20 -5 0 -12 -9 -15 -20z"/>
</g>
</svg>
