<?xml version="1.0" standalone="no"?>
<!DOCTYPE svg PUBLIC "-//W3C//DTD SVG 20010904//EN"
 "http://www.w3.org/TR/2001/REC-SVG-20010904/DTD/svg10.dtd">
<svg version="1.0" xmlns="http://www.w3.org/2000/svg"
 width="64.000000pt" height="64.000000pt" viewBox="0 0 64.000000 64.000000"
 preserveAspectRatio="xMidYMid meet">
<metadata>
Created by potrace 1.16, written by Peter Selinger 2001-2019
</metadata>
<g transform="translate(0.000000,64.000000) scale(0.100000,-0.100000)"
fill="#000000" stroke="none">
<path d="M286 555 c-9 -30 -21 -55 -27 -55 -5 0 -9 -15 -9 -34 0 -19 -5 -38
-10 -41 -11 -7 -40 -70 -40 -87 0 -6 11 -7 25 -4 18 5 25 2 25 -8 0 -8 5 -16
11 -18 5 -2 14 -45 19 -95 4 -51 11 -97 14 -102 4 -5 -7 -12 -23 -16 -32 -7
-69 -41 -57 -52 10 -10 202 -10 212 0 12 11 -25 45 -57 52 -16 4 -27 11 -23
16 3 5 10 51 15 102 5 50 14 94 19 95 6 2 10 10 10 18 0 10 7 13 25 8 14 -3
25 -2 25 4 0 17 -29 80 -40 87 -5 3 -10 22 -10 41 0 19 -4 34 -9 34 -5 0 -18
24 -29 53 -27 70 -44 71 -66 2z"/>
</g>
</svg>
