<?xml version="1.0" standalone="no"?>
<!DOCTYPE svg PUBLIC "-//W3C//DTD SVG 20010904//EN"
 "http://www.w3.org/TR/2001/REC-SVG-20010904/DTD/svg10.dtd">
<svg version="1.0" xmlns="http://www.w3.org/2000/svg"
 width="64.000000pt" height="64.000000pt" viewBox="0 0 64.000000 64.000000"
 preserveAspectRatio="xMidYMid meet">
<metadata>
Created by potrace 1.16, written by Peter Selinger 2001-2019
</metadata>
<g transform="translate(0.000000,64.000000) scale(0.100000,-0.100000)"
fill="#000000" stroke="none">
<path d="M296 602 c-3 -5 -8 -28 -12 -51 -4 -23 -11 -44 -15 -47 -5 -3 -9 -14
-9 -26 0 -11 -9 -31 -20 -45 -26 -34 -27 -57 -1 -44 16 9 20 4 31 -45 11 -43
11 -62 2 -88 -15 -41 -15 -47 2 -40 14 5 36 -80 36 -143 0 -18 5 -33 10 -33 6
0 10 15 10 33 0 19 5 59 11 91 9 43 15 56 27 51 11 -4 13 0 7 17 -16 53 -17
71 -5 114 10 36 16 43 31 39 25 -8 25 15 -1 48 -11 14 -20 34 -20 44 0 11 -3
23 -7 27 -5 4 -13 29 -18 54 -8 37 -15 48 -32 50 -11 2 -24 -1 -27 -6z"/>
</g>
</svg>
