<?xml version="1.0" standalone="no"?>
<!DOCTYPE svg PUBLIC "-//W3C//DTD SVG 20010904//EN"
 "http://www.w3.org/TR/2001/REC-SVG-20010904/DTD/svg10.dtd">
<svg version="1.0" xmlns="http://www.w3.org/2000/svg"
 width="64.000000pt" height="64.000000pt" viewBox="0 0 64.000000 64.000000"
 preserveAspectRatio="xMidYMid meet">
<metadata>
Created by potrace 1.16, written by Peter Selinger 2001-2019
</metadata>
<g transform="translate(0.000000,64.000000) scale(0.100000,-0.100000)"
fill="#000000" stroke="none">
<path d="M276 600 c-5 -16 -16 -115 -15 -140 5 -146 12 -236 17 -240 18 -13
32 -66 32 -120 0 -33 4 -60 10 -60 6 0 10 24 10 54 0 52 16 116 31 126 4 3 10
55 12 115 3 61 6 115 6 120 0 6 -2 41 -5 78 -5 52 -10 67 -20 63 -8 -3 -14 -1
-14 4 0 6 -9 10 -20 10 -11 0 -20 -6 -20 -12 0 -9 -3 -8 -10 2 -8 13 -10 13
-14 0z"/>
</g>
</svg>
