<?xml version="1.0" standalone="no"?>
<!DOCTYPE svg PUBLIC "-//W3C//DTD SVG 20010904//EN"
 "http://www.w3.org/TR/2001/REC-SVG-20010904/DTD/svg10.dtd">
<svg version="1.0" xmlns="http://www.w3.org/2000/svg"
 width="64.000000pt" height="64.000000pt" viewBox="0 0 64.000000 64.000000"
 preserveAspectRatio="xMidYMid meet">
<metadata>
Created by potrace 1.16, written by Peter Selinger 2001-2019
</metadata>
<g transform="translate(0.000000,64.000000) scale(0.100000,-0.100000)"
fill="#000000" stroke="none">
<path d="M300 593 c-11 -13 -15 -41 -14 -96 0 -57 -3 -77 -12 -73 -7 3 -14 -7
-17 -24 -4 -16 -15 -31 -26 -35 -10 -3 -24 -12 -30 -19 -9 -11 -2 -18 34 -36
48 -23 56 -42 30 -76 -17 -23 -19 -34 -4 -34 23 0 36 -28 42 -94 10 -108 25
-106 34 3 3 39 9 71 12 71 3 0 14 7 24 14 17 13 17 15 0 44 -15 26 -15 32 -3
48 8 9 30 23 48 31 27 11 31 17 22 28 -7 8 -21 17 -31 20 -11 4 -22 19 -26 35
-3 18 -10 27 -18 23 -11 -4 -13 9 -11 59 3 61 -13 128 -31 128 -5 0 -15 -8
-23 -17z"/>
</g>
</svg>
