<?xml version="1.0" standalone="no"?>
<!DOCTYPE svg PUBLIC "-//W3C//DTD SVG 20010904//EN"
 "http://www.w3.org/TR/2001/REC-SVG-20010904/DTD/svg10.dtd">
<svg version="1.0" xmlns="http://www.w3.org/2000/svg"
 width="64.000000pt" height="64.000000pt" viewBox="0 0 64.000000 64.000000"
 preserveAspectRatio="xMidYMid meet">
<metadata>
Created by potrace 1.16, written by Peter Selinger 2001-2019
</metadata>
<g transform="translate(0.000000,64.000000) scale(0.100000,-0.100000)"
fill="#000000" stroke="none">
<path d="M288 593 c-8 -10 -22 -31 -30 -48 -10 -23 -19 -29 -38 -27 -69 8
-104 4 -117 -14 -21 -29 -15 -41 23 -49 35 -6 36 -7 18 -26 -24 -27 -31 -123
-12 -169 10 -25 12 -46 6 -74 -7 -34 -5 -43 12 -60 18 -18 22 -19 30 -6 27 43
26 43 51 24 46 -37 79 -77 79 -95 0 -10 5 -19 10 -19 6 0 10 8 10 19 0 10 7
24 15 31 8 7 15 18 15 26 0 7 9 16 20 19 11 3 27 14 36 22 14 14 17 15 25 2
27 -45 27 -45 49 -23 18 17 20 26 12 60 -6 27 -5 48 4 69 20 46 17 125 -6 162
l-19 32 34 7 c37 7 43 19 22 48 -13 18 -48 22 -117 14 -19 -2 -28 4 -38 27
-20 42 -42 65 -62 65 -9 0 -24 -8 -32 -17z"/>
</g>
</svg>
