<?xml version="1.0" standalone="no"?>
<!DOCTYPE svg PUBLIC "-//W3C//DTD SVG 20010904//EN"
 "http://www.w3.org/TR/2001/REC-SVG-20010904/DTD/svg10.dtd">
<svg version="1.0" xmlns="http://www.w3.org/2000/svg"
 width="64.000000pt" height="64.000000pt" viewBox="0 0 64.000000 64.000000"
 preserveAspectRatio="xMidYMid meet">
<metadata>
Created by potrace 1.16, written by Peter Selinger 2001-2019
</metadata>
<g transform="translate(0.000000,64.000000) scale(0.100000,-0.100000)"
fill="#000000" stroke="none">
<path d="M199 585 c0 -29 -1 -29 -11 -7 -6 12 -15 22 -20 22 -13 0 -9 -65 5
-78 11 -11 29 -262 19 -262 -2 0 -15 9 -29 20 -27 21 -83 28 -83 10 0 -5 15
-16 34 -24 60 -25 53 -36 -19 -29 -54 5 -65 3 -65 -9 0 -11 15 -17 50 -22 28
-4 60 -11 73 -16 20 -8 19 -9 -11 -9 -41 -1 -102 -26 -102 -42 0 -8 10 -9 33
-5 17 4 52 9 77 12 l45 6 -42 -27 c-24 -14 -43 -30 -43 -36 0 -16 33 -10 70
12 l35 21 -19 -21 c-21 -23 -8 -28 25 -11 16 9 19 7 19 -10 0 -11 8 -23 18
-26 9 -3 25 -10 34 -15 23 -12 58 -12 58 1 0 6 9 10 21 10 12 0 23 8 26 20 6
22 11 24 33 11 21 -14 33 -2 18 17 -11 14 -9 14 15 -1 16 -10 40 -17 55 -15
26 3 25 5 -22 36 -54 35 -49 37 38 21 32 -6 60 -8 63 -5 14 13 -23 36 -68 42
-63 8 -54 21 21 30 44 5 60 11 60 22 0 12 -11 14 -65 9 -72 -7 -79 4 -18 29
18 8 31 19 28 24 -10 17 -51 11 -78 -10 -14 -11 -27 -20 -29 -20 -1 0 -2 52 0
117 2 81 8 123 18 137 15 22 19 86 6 86 -5 0 -14 -10 -20 -22 -10 -22 -11 -22
-12 7 -1 28 -1 29 -15 11 -11 -15 -13 -39 -8 -112 5 -81 4 -94 -11 -100 -11
-4 -16 -18 -16 -48 0 -28 -3 -37 -9 -27 -8 12 -12 11 -27 -4 -18 -18 -19 -17
-25 6 l-6 24 -10 -24 c-9 -22 -10 -23 -27 -6 -15 15 -19 16 -27 4 -6 -9 -9 0
-9 29 0 31 -4 42 -16 42 -13 0 -15 15 -12 104 2 74 -1 109 -9 117 -11 11 -13
7 -14 -16z"/>
</g>
</svg>
