<?xml version="1.0" standalone="no"?>
<!DOCTYPE svg PUBLIC "-//W3C//DTD SVG 20010904//EN"
 "http://www.w3.org/TR/2001/REC-SVG-20010904/DTD/svg10.dtd">
<svg version="1.0" xmlns="http://www.w3.org/2000/svg"
 width="64.000000pt" height="64.000000pt" viewBox="0 0 64.000000 64.000000"
 preserveAspectRatio="xMidYMid meet">
<metadata>
Created by potrace 1.16, written by Peter Selinger 2001-2019
</metadata>
<g transform="translate(0.000000,64.000000) scale(0.100000,-0.100000)"
fill="#000000" stroke="none">
<path d="M310 542 c0 -33 -7 -81 -15 -108 -8 -27 -15 -63 -15 -79 0 -17 -7
-41 -16 -54 -14 -19 -15 -29 -5 -61 6 -20 11 -49 11 -63 0 -14 5 -29 10 -32
20 -12 11 -62 -15 -79 -42 -28 -29 -36 53 -33 61 2 77 5 77 17 0 8 -11 17 -24
18 -20 3 -23 8 -17 35 19 102 27 132 38 138 8 5 5 19 -10 48 -12 23 -22 54
-22 69 0 15 -7 49 -15 76 -8 27 -15 75 -15 108 0 32 -4 58 -10 58 -6 0 -10
-26 -10 -58z"/>
</g>
</svg>
