<?xml version="1.0" standalone="no"?>
<!DOCTYPE svg PUBLIC "-//W3C//DTD SVG 20010904//EN"
 "http://www.w3.org/TR/2001/REC-SVG-20010904/DTD/svg10.dtd">
<svg version="1.0" xmlns="http://www.w3.org/2000/svg"
 width="64.000000pt" height="64.000000pt" viewBox="0 0 64.000000 64.000000"
 preserveAspectRatio="xMidYMid meet">
<metadata>
Created by potrace 1.16, written by Peter Selinger 2001-2019
</metadata>
<g transform="translate(0.000000,64.000000) scale(0.100000,-0.100000)"
fill="#000000" stroke="none">
<path d="M284 584 c-10 -14 -19 -47 -22 -74 -3 -37 -11 -55 -33 -76 -37 -35
-37 -53 -1 -51 24 2 27 -1 24 -25 -1 -15 7 -77 18 -138 l21 -110 -30 -26 c-50
-42 -41 -49 59 -49 57 0 90 4 90 11 0 5 -13 23 -30 39 -19 19 -28 35 -25 49
24 119 36 199 33 222 -3 26 0 29 25 27 35 -2 35 16 -2 51 -22 21 -30 39 -33
76 -6 57 -30 100 -58 100 -11 0 -27 -12 -36 -26z"/>
</g>
</svg>
