<?xml version="1.0" standalone="no"?>
<!DOCTYPE svg PUBLIC "-//W3C//DTD SVG 20010904//EN"
 "http://www.w3.org/TR/2001/REC-SVG-20010904/DTD/svg10.dtd">
<svg version="1.0" xmlns="http://www.w3.org/2000/svg"
 width="64.000000pt" height="64.000000pt" viewBox="0 0 64.000000 64.000000"
 preserveAspectRatio="xMidYMid meet">
<metadata>
Created by potrace 1.16, written by Peter Selinger 2001-2019
</metadata>
<g transform="translate(0.000000,64.000000) scale(0.100000,-0.100000)"
fill="#000000" stroke="none">
<path d="M292 586 c-11 -15 -24 -57 -31 -103 -7 -43 -19 -96 -27 -118 -8 -23
-14 -50 -14 -61 0 -11 -7 -30 -16 -43 -13 -18 -15 -42 -12 -121 3 -93 10 -121
24 -107 3 3 10 51 14 107 5 59 14 107 21 117 12 14 15 3 19 -78 4 -75 8 -94
20 -94 9 0 16 -11 18 -27 4 -36 20 -36 24 0 2 16 9 27 18 27 12 0 16 19 20 94
4 81 7 92 19 78 7 -10 16 -58 21 -117 8 -100 13 -120 27 -106 13 13 16 192 3
215 -6 13 -14 35 -16 49 -3 15 -11 45 -19 67 -7 22 -19 76 -27 119 -11 72 -36
126 -58 126 -5 0 -17 -11 -28 -24z"/>
</g>
</svg>
