<?xml version="1.0" standalone="no"?>
<!DOCTYPE svg PUBLIC "-//W3C//DTD SVG 20010904//EN"
 "http://www.w3.org/TR/2001/REC-SVG-20010904/DTD/svg10.dtd">
<svg version="1.0" xmlns="http://www.w3.org/2000/svg"
 width="64.000000pt" height="64.000000pt" viewBox="0 0 64.000000 64.000000"
 preserveAspectRatio="xMidYMid meet">
<metadata>
Created by potrace 1.16, written by Peter Selinger 2001-2019
</metadata>
<g transform="translate(0.000000,64.000000) scale(0.100000,-0.100000)"
fill="#000000" stroke="none">
<path d="M301 579 c-6 -18 -11 -40 -11 -50 0 -11 -4 -19 -9 -19 -6 0 -12 -21
-16 -47 -3 -27 -12 -61 -20 -76 -22 -42 -20 -77 5 -77 14 0 20 -7 20 -22 0
-13 6 -45 13 -73 13 -48 12 -51 -14 -90 -31 -46 -47 -95 -30 -95 5 0 26 14 46
31 l36 32 32 -32 c33 -31 57 -40 57 -21 0 15 -48 107 -59 114 -5 4 -4 27 5 59
7 28 14 62 14 75 0 15 6 22 20 22 24 0 27 28 6 68 -7 15 -17 53 -20 85 -4 31
-12 55 -17 52 -5 -4 -9 0 -9 7 0 25 -21 88 -29 88 -5 0 -14 -14 -20 -31z"/>
</g>
</svg>
