<?xml version="1.0" standalone="no"?>
<!DOCTYPE svg PUBLIC "-//W3C//DTD SVG 20010904//EN"
 "http://www.w3.org/TR/2001/REC-SVG-20010904/DTD/svg10.dtd">
<svg version="1.0" xmlns="http://www.w3.org/2000/svg"
 width="64.000000pt" height="64.000000pt" viewBox="0 0 64.000000 64.000000"
 preserveAspectRatio="xMidYMid meet">
<metadata>
Created by potrace 1.16, written by Peter Selinger 2001-2019
</metadata>
<g transform="translate(0.000000,64.000000) scale(0.100000,-0.100000)"
fill="#000000" stroke="none">
<path d="M286 570 c-9 -22 -16 -53 -16 -68 0 -15 -7 -40 -15 -56 -8 -15 -15
-36 -15 -46 0 -10 -7 -23 -15 -30 -8 -7 -15 -22 -15 -33 0 -15 3 -18 11 -10 6
6 19 8 30 6 18 -5 21 -14 24 -83 0 -14 8 -50 16 -80 9 -30 17 -71 18 -89 3
-63 17 -57 24 9 3 25 11 66 18 90 6 25 13 56 14 70 5 83 3 80 35 80 34 0 37 7
15 36 -8 10 -15 32 -15 47 0 16 -4 26 -9 22 -6 -3 -12 9 -15 27 -3 18 -8 49
-11 68 -6 41 -30 80 -49 80 -8 0 -21 -18 -30 -40z"/>
</g>
</svg>
