<?xml version="1.0" standalone="no"?>
<!DOCTYPE svg PUBLIC "-//W3C//DTD SVG 20010904//EN"
 "http://www.w3.org/TR/2001/REC-SVG-20010904/DTD/svg10.dtd">
<svg version="1.0" xmlns="http://www.w3.org/2000/svg"
 width="64.000000pt" height="64.000000pt" viewBox="0 0 64.000000 64.000000"
 preserveAspectRatio="xMidYMid meet">
<metadata>
Created by potrace 1.16, written by Peter Selinger 2001-2019
</metadata>
<g transform="translate(0.000000,64.000000) scale(0.100000,-0.100000)"
fill="#000000" stroke="none">
<path d="M292 583 c-23 -34 -42 -88 -42 -120 0 -14 -9 -36 -20 -50 -24 -31
-28 -78 -5 -69 9 3 15 0 15 -9 0 -8 4 -15 9 -15 5 0 12 -30 16 -67 4 -38 11
-71 16 -74 6 -3 15 -36 21 -72 6 -37 14 -67 19 -67 4 0 10 24 14 53 4 28 13
66 20 82 8 17 17 53 20 80 8 65 23 95 43 88 12 -5 14 0 8 27 -3 19 -13 41 -21
50 -8 9 -15 27 -15 41 0 46 -49 149 -70 149 -5 0 -17 -12 -28 -27z"/>
</g>
</svg>
