<?xml version="1.0" standalone="no"?>
<!DOCTYPE svg PUBLIC "-//W3C//DTD SVG 20010904//EN"
 "http://www.w3.org/TR/2001/REC-SVG-20010904/DTD/svg10.dtd">
<svg version="1.0" xmlns="http://www.w3.org/2000/svg"
 width="64.000000pt" height="64.000000pt" viewBox="0 0 64.000000 64.000000"
 preserveAspectRatio="xMidYMid meet">
<metadata>
Created by potrace 1.16, written by Peter Selinger 2001-2019
</metadata>
<g transform="translate(0.000000,64.000000) scale(0.100000,-0.100000)"
fill="#000000" stroke="none">
<path d="M307 604 c-3 -4 -4 -26 0 -50 5 -40 4 -44 -15 -44 -12 0 -28 -10 -36
-22 l-16 -22 0 27 c0 56 -18 24 -22 -41 -4 -56 -10 -73 -32 -97 -15 -16 -26
-38 -24 -49 3 -18 9 -21 48 -18 24 2 48 8 52 15 4 7 8 -9 8 -35 0 -34 4 -48
14 -48 18 0 26 -32 26 -112 0 -39 4 -68 10 -68 6 0 10 29 10 68 0 80 8 112 26
112 10 0 14 14 14 48 0 26 4 42 8 36 4 -6 26 -15 49 -19 34 -5 44 -3 49 8 6
17 -20 73 -37 79 -6 2 -14 35 -17 76 -2 40 -9 72 -13 72 -5 0 -9 -12 -9 -27
l0 -27 -16 22 c-8 12 -24 22 -35 22 -18 0 -20 5 -17 47 3 42 -8 64 -25 47z"/>
</g>
</svg>
