<?xml version="1.0" standalone="no"?>
<!DOCTYPE svg PUBLIC "-//W3C//DTD SVG 20010904//EN"
 "http://www.w3.org/TR/2001/REC-SVG-20010904/DTD/svg10.dtd">
<svg version="1.0" xmlns="http://www.w3.org/2000/svg"
 width="64.000000pt" height="64.000000pt" viewBox="0 0 64.000000 64.000000"
 preserveAspectRatio="xMidYMid meet">
<metadata>
Created by potrace 1.16, written by Peter Selinger 2001-2019
</metadata>
<g transform="translate(0.000000,64.000000) scale(0.100000,-0.100000)"
fill="#000000" stroke="none">
<path d="M258 603 c-29 -7 -23 -43 7 -43 25 0 35 -23 15 -35 -5 -3 -10 -18
-10 -33 0 -15 -5 -34 -10 -42 -7 -11 -10 -3 -11 30 -1 40 -2 37 -14 -30 -7
-41 -16 -86 -20 -99 -7 -21 -6 -22 14 -12 19 11 21 9 21 -14 0 -14 4 -25 9
-25 6 0 13 -31 17 -70 3 -38 10 -70 14 -70 4 0 10 -28 14 -62 3 -34 8 -64 11
-66 10 -10 15 6 21 66 4 34 10 62 14 62 4 0 10 28 14 62 3 34 11 67 16 72 6 6
10 21 10 33 0 21 2 22 21 12 20 -10 21 -9 14 12 -4 13 -13 58 -20 99 -12 67
-13 70 -14 30 -1 -33 -4 -41 -11 -30 -5 8 -10 27 -10 42 0 15 -4 30 -10 33
-20 12 -10 35 15 35 33 0 35 35 3 44 -26 6 -94 6 -120 -1z"/>
</g>
</svg>
