<?xml version="1.0" standalone="no"?>
<!DOCTYPE svg PUBLIC "-//W3C//DTD SVG 20010904//EN"
 "http://www.w3.org/TR/2001/REC-SVG-20010904/DTD/svg10.dtd">
<svg version="1.0" xmlns="http://www.w3.org/2000/svg"
 width="64.000000pt" height="64.000000pt" viewBox="0 0 64.000000 64.000000"
 preserveAspectRatio="xMidYMid meet">
<metadata>
Created by potrace 1.16, written by Peter Selinger 2001-2019
</metadata>
<g transform="translate(0.000000,64.000000) scale(0.100000,-0.100000)"
fill="#000000" stroke="none">
<path d="M261 584 c-12 -15 -21 -38 -21 -53 0 -35 -13 -53 -33 -45 -11 4 -17
1 -17 -7 0 -8 -25 -36 -55 -62 -44 -38 -55 -54 -55 -78 0 -26 3 -29 21 -24 27
9 104 -12 122 -34 8 -9 24 -34 36 -56 20 -38 22 -39 28 -17 11 45 23 0 22 -86
-1 -45 1 -86 5 -89 14 -14 19 10 17 89 -1 86 11 131 22 86 6 -22 8 -21 28 17
12 22 28 47 36 56 18 22 95 43 122 34 18 -5 21 -2 21 21 0 21 -14 41 -55 80
-30 29 -55 57 -55 64 0 7 -8 9 -19 5 -20 -6 -23 -1 -36 61 -6 32 -40 72 -51
61 -3 -3 -1 -14 4 -24 15 -30 0 -58 -32 -60 -28 -2 -28 -1 -23 42 5 51 -3 56
-32 19z"/>
</g>
</svg>
