<?xml version="1.0" standalone="no"?>
<!DOCTYPE svg PUBLIC "-//W3C//DTD SVG 20010904//EN"
 "http://www.w3.org/TR/2001/REC-SVG-20010904/DTD/svg10.dtd">
<svg version="1.0" xmlns="http://www.w3.org/2000/svg"
 width="64.000000pt" height="64.000000pt" viewBox="0 0 64.000000 64.000000"
 preserveAspectRatio="xMidYMid meet">
<metadata>
Created by potrace 1.16, written by Peter Selinger 2001-2019
</metadata>
<g transform="translate(0.000000,64.000000) scale(0.100000,-0.100000)"
fill="#000000" stroke="none">
<path d="M277 566 c-43 -52 -44 -56 -17 -56 17 0 20 -7 22 -42 3 -70 -1 -98
-18 -124 -12 -17 -19 -60 -23 -147 -4 -67 -13 -132 -19 -144 -7 -13 -9 -23 -5
-23 17 0 32 40 39 98 6 53 8 59 21 46 26 -26 33 -15 33 51 0 37 4 65 10 65 6
0 10 -28 10 -65 0 -66 7 -77 33 -50 13 12 16 7 22 -42 7 -60 23 -103 37 -103
5 0 3 10 -4 23 -6 12 -15 77 -19 144 -4 87 -11 130 -23 147 -17 26 -21 54 -18
125 2 38 4 43 22 38 11 -3 20 -1 20 5 0 10 -71 98 -80 98 -3 0 -22 -20 -43
-44z m10 -343 c-2 -16 -4 -5 -4 22 0 28 2 40 4 28 2 -13 2 -35 0 -50z m70 0
c-2 -16 -4 -5 -4 22 0 28 2 40 4 28 2 -13 2 -35 0 -50z"/>
</g>
</svg>
