<?xml version="1.0" standalone="no"?>
<!DOCTYPE svg PUBLIC "-//W3C//DTD SVG 20010904//EN"
 "http://www.w3.org/TR/2001/REC-SVG-20010904/DTD/svg10.dtd">
<svg version="1.0" xmlns="http://www.w3.org/2000/svg"
 width="64.000000pt" height="64.000000pt" viewBox="0 0 64.000000 64.000000"
 preserveAspectRatio="xMidYMid meet">
<metadata>
Created by potrace 1.16, written by Peter Selinger 2001-2019
</metadata>
<g transform="translate(0.000000,64.000000) scale(0.100000,-0.100000)"
fill="#000000" stroke="none">
<path d="M290 578 c-11 -18 -20 -43 -20 -55 0 -12 -7 -28 -15 -37 -8 -8 -15
-26 -15 -40 0 -16 -7 -27 -20 -31 -28 -9 -25 -33 4 -41 32 -8 37 -22 41 -129
2 -51 9 -91 14 -93 6 -2 11 -17 11 -33 0 -21 -5 -29 -18 -29 -20 0 -42 -18
-42 -36 0 -15 78 -25 135 -17 53 7 58 29 12 51 -27 13 -39 56 -16 64 6 2 12
44 14 97 3 97 17 131 50 131 22 0 18 27 -5 40 -11 6 -20 20 -20 31 0 11 -7 27
-15 35 -8 9 -15 25 -16 37 -1 26 -30 79 -47 85 -6 2 -21 -11 -32 -30z"/>
</g>
</svg>
