<?xml version="1.0" standalone="no"?>
<!DOCTYPE svg PUBLIC "-//W3C//DTD SVG 20010904//EN"
 "http://www.w3.org/TR/2001/REC-SVG-20010904/DTD/svg10.dtd">
<svg version="1.0" xmlns="http://www.w3.org/2000/svg"
 width="64.000000pt" height="64.000000pt" viewBox="0 0 64.000000 64.000000"
 preserveAspectRatio="xMidYMid meet">
<metadata>
Created by potrace 1.16, written by Peter Selinger 2001-2019
</metadata>
<g transform="translate(0.000000,64.000000) scale(0.100000,-0.100000)"
fill="#000000" stroke="none">
<path d="M272 583 c-6 -16 -13 -39 -15 -53 -4 -24 -4 -24 -6 3 -2 44 -21 21
-21 -26 0 -26 -8 -51 -20 -67 -26 -33 -26 -53 -1 -45 28 9 51 -40 51 -109 0
-34 5 -60 15 -69 8 -8 11 -18 7 -21 -3 -4 0 -11 7 -15 9 -6 14 -31 15 -72 1
-50 4 -64 16 -64 12 0 15 14 16 63 0 41 5 67 14 72 7 4 9 13 6 19 -4 6 -2 11
4 11 6 0 8 5 5 10 -3 6 -1 10 4 10 6 0 11 20 11 45 0 25 6 63 13 86 10 34 15
39 35 34 28 -7 28 9 2 42 -13 17 -20 41 -20 69 0 47 -19 72 -21 27 -1 -20 -3
-22 -6 -8 -17 77 -23 85 -63 85 -32 0 -39 -4 -48 -27z"/>
</g>
</svg>
