<?xml version="1.0" standalone="no"?>
<!DOCTYPE svg PUBLIC "-//W3C//DTD SVG 20010904//EN"
 "http://www.w3.org/TR/2001/REC-SVG-20010904/DTD/svg10.dtd">
<svg version="1.0" xmlns="http://www.w3.org/2000/svg"
 width="64.000000pt" height="64.000000pt" viewBox="0 0 64.000000 64.000000"
 preserveAspectRatio="xMidYMid meet">
<metadata>
Created by potrace 1.16, written by Peter Selinger 2001-2019
</metadata>
<g transform="translate(0.000000,64.000000) scale(0.100000,-0.100000)"
fill="#000000" stroke="none">
<path d="M280 597 c-23 -12 -25 -19 -28 -92 -3 -68 -6 -82 -27 -103 -14 -14
-25 -30 -25 -37 0 -16 25 -37 33 -28 4 3 7 -10 7 -30 0 -21 4 -37 8 -37 9 0
32 -102 32 -142 0 -14 -9 -37 -20 -51 -11 -14 -20 -30 -20 -35 0 -6 33 -10 80
-10 86 0 98 9 60 43 -12 11 -20 31 -20 48 0 44 23 147 32 147 4 0 8 16 8 35 0
28 4 35 20 35 28 0 26 33 -5 61 -22 21 -25 32 -25 97 0 59 -4 76 -20 92 -23
23 -54 25 -90 7z"/>
</g>
</svg>
